<?xml version="1.0" encoding="utf-8"?>
<!-- Generator: Adobe Illustrator 15.0.2, SVG Export Plug-In . SVG Version: 6.00 Build 0)  -->
<!DOCTYPE svg PUBLIC "-//W3C//DTD SVG 1.1//EN" "http://www.w3.org/Graphics/SVG/1.1/DTD/svg11.dtd">
<svg version="1.1" xmlns="http://www.w3.org/2000/svg" xmlns:xlink="http://www.w3.org/1999/xlink" x="0px" y="0px"
	 width="310.487px" height="309.146px" viewBox="0 0 310.487 309.146" enable-background="new 0 0 310.487 309.146"
	 xml:space="preserve">
<g id="Layer_2">
</g>
<g id="Layer_1_xA0_Image_1_">
</g>
<g id="Layer_3">
	<g>
		
			<image overflow="visible" opacity="0.75" width="250" height="286" xlink:href="1C2C86A7.png"  transform="matrix(1 0 0 1 31.0566 2.5)">
		</image>
		<g>
			<g>
				<path fill-rule="evenodd" clip-rule="evenodd" stroke="#FFFFFF" stroke-width="2.0426" stroke-miterlimit="10" d="M48.133,145.4
					c0.303,1.476-1.062,3.074,0,4.158c5.988,9.03,10.51,15.171,16.631,23.214c3.633,4.774,6.896,8.754,11.434,13.166
					c4.8,4.667,11.835,12.978,14.898,18.71c1.802,3.373,2.987,7.07,4.851,10.395c8.962,15.981,18.704,31.771,32.568,43.656
					c5.692,4.879,12.317,9.425,19.057,11.086c10.99,2.712,23.159,2.08,35.687,2.08c12.422,0,23.912-1.449,33.262-4.505
					c18.496-6.045,28.366-23.568,32.223-43.31c4.117-21.076,0.11-48.314,4.505-71.027c2.925-15.118,7.21-29.244,10.048-46.428
					c1.486-9.008,3.106-21.026-5.891-22.521c-9.674-1.607-11.107,8.549-12.82,16.631c-3.81,17.987-7.977,33.046-12.819,51.279
					c-1.011,3.805-2.43,7.952-5.89,6.929c-2.614-0.772-2.36-7.856-1.732-12.819c2.875-22.726,6.148-46.919,8.315-69.988
					c1.185-12.611,6.652-36.285-10.048-34.301c-3.276,0.389-6.915,3.041-8.315,5.89c-1.496,3.042-1.213,7.597-1.732,12.127
					c-2.763,24.07-6.297,48.562-9.354,72.413c-0.426,3.32-0.137,8.037-3.812,9.701c-2.134-1.541-1.365-4.56-1.386-6.583
					c-0.076-7.205,1.044-14.023,1.732-21.135c0.899-9.302,1.316-18.911,2.078-28.758c1.063-13.733,2.816-27.632,4.504-41.924
					c0.876-7.412,3.184-14.772-0.346-20.442c-4.448-7.145-15.408-4.493-19.057,2.08c-1.736,3.128-2.173,8.465-3.117,13.165
					c-2.297,11.418-3.715,22.772-5.197,35.688c-1.551,13.491-3.317,32.392-4.852,49.893c-0.28,3.201,0.066,12.415-3.811,12.474
					c-3.43,0.051-3.117-5.938-3.465-10.741c-0.991-13.681-1.89-26.05-1.387-40.191c0.254-7.13,0.724-18.234,1.04-26.679
					c0.471-12.575,2.893-27.302-6.93-29.104c-6.415-1.178-11.091,3.544-12.819,7.622c-2.046,4.823-1.729,12.556-2.079,20.095
					c-0.963,20.704-2.042,41.945-2.772,63.06c-0.239,6.932-0.221,14.134-0.692,20.096c-0.481,6.096-1.954,12.383-3.118,18.71
					c-1.625,8.827-4.203,29.463-13.166,30.837c-7.98,1.222-17.883-8.731-21.482-13.513c-2.317-3.079-3.9-7.068-6.236-10.741
					c-4.208-6.617-9.775-12.642-15.938-18.017c-5.24-4.571-14.143-11.406-24.946-8.662c-2.162,0.549-3.538,1.664-5.891,3.812
					l0.174,0.52l-0.52-0.174c0,0.116,0,0.231,0,0.347c-0.714,0.096-0.327,1.291-1.04,1.387l0.174,0.52L48.133,145.4z"/>
			</g>
		</g>
	</g>
</g>
</svg>
