<?xml version="1.0" encoding="utf-8"?>
<!-- Generator: Adobe Illustrator 16.0.0, SVG Export Plug-In . SVG Version: 6.00 Build 0)  -->
<!DOCTYPE svg PUBLIC "-//W3C//DTD SVG 1.1//EN" "http://www.w3.org/Graphics/SVG/1.1/DTD/svg11.dtd">
<svg version="1.1" id="Layer_1" xmlns="http://www.w3.org/2000/svg" xmlns:xlink="http://www.w3.org/1999/xlink" x="0px" y="0px"
	 width="310.486px" height="309.146px" viewBox="0 0 310.486 309.146" enable-background="new 0 0 310.486 309.146"
	 xml:space="preserve">
<g id="Layer_2">
</g>
<g id="Layer_1_xA0_Image_1_">
</g>
<g>
	<g>
		<path stroke="#FFFFFF" stroke-width="2.0426" stroke-miterlimit="10" d="M264.047,145.4c-0.303,1.476,1.062,3.074,0,4.158
			c-5.988,9.03-10.51,15.171-16.631,23.214c-3.633,4.773-6.896,8.754-11.435,13.166c-4.8,4.666-11.835,12.978-14.897,18.709
			c-1.802,3.373-2.987,7.07-4.852,10.396c-8.962,15.981-18.704,31.771-32.567,43.656c-5.692,4.879-12.317,9.425-19.058,11.086
			c-10.989,2.712-23.158,2.08-35.687,2.08c-12.422,0-23.912-1.449-33.262-4.505c-18.496-6.045-28.366-23.568-32.224-43.311
			c-4.117-21.076-0.109-48.314-4.505-71.027c-2.925-15.118-7.21-29.244-10.048-46.428c-1.486-9.008-3.106-21.026,5.891-22.521
			c9.675-1.607,11.107,8.549,12.82,16.631c3.81,17.987,7.977,33.046,12.819,51.279c1.011,3.805,2.43,7.953,5.89,6.929
			c2.614-0.771,2.36-7.856,1.732-12.819c-2.875-22.726-6.148-46.919-8.315-69.988c-1.183-12.612-6.651-36.286,10.05-34.301
			c3.276,0.389,6.915,3.041,8.315,5.89c1.496,3.042,1.213,7.597,1.731,12.127c2.764,24.07,6.297,48.562,9.354,72.413
			c0.426,3.32,0.137,8.037,3.812,9.701c2.135-1.541,1.365-4.56,1.387-6.583c0.075-7.205-1.044-14.023-1.732-21.135
			c-0.899-9.302-1.316-18.911-2.078-28.758c-1.062-13.733-2.815-27.632-4.504-41.924c-0.876-7.412-3.184-14.772,0.346-20.442
			c4.448-7.145,15.408-4.493,19.058,2.08c1.735,3.128,2.173,8.465,3.117,13.165c2.297,11.418,3.715,22.772,5.196,35.688
			c1.552,13.491,3.317,32.392,4.853,49.893c0.279,3.201-0.066,12.415,3.811,12.474c3.431,0.051,3.117-5.938,3.465-10.741
			c0.991-13.681,1.891-26.05,1.388-40.191c-0.254-7.13-0.725-18.234-1.04-26.679c-0.472-12.575-2.894-27.302,6.93-29.104
			c6.415-1.178,11.091,3.544,12.819,7.622c2.046,4.823,1.729,12.556,2.079,20.095c0.963,20.704,2.042,41.945,2.771,63.06
			c0.239,6.932,0.221,14.134,0.692,20.096c0.48,6.096,1.954,12.383,3.118,18.711c1.625,8.826,4.202,29.463,13.166,30.836
			c7.979,1.223,17.883-8.73,21.481-13.513c2.317-3.079,3.9-7.067,6.236-10.741c4.208-6.617,9.774-12.642,15.938-18.017
			c5.24-4.571,14.144-11.406,24.946-8.662c2.162,0.549,3.538,1.664,5.891,3.812l-0.174,0.52l0.521-0.174c0,0.116,0,0.231,0,0.347
			c0.714,0.096,0.326,1.291,1.04,1.387l-0.175,0.52L264.047,145.4z"/>
	</g>
</g>
</svg>
