<?xml version="1.0" encoding="utf-8"?>
<!-- Generator: Adobe Illustrator 15.0.2, SVG Export Plug-In . SVG Version: 6.00 Build 0)  -->
<!DOCTYPE svg PUBLIC "-//W3C//DTD SVG 1.1//EN" "http://www.w3.org/Graphics/SVG/1.1/DTD/svg11.dtd">
<svg version="1.1" id="Layer_4" xmlns="http://www.w3.org/2000/svg" xmlns:xlink="http://www.w3.org/1999/xlink" x="0px" y="0px"
	 width="825px" height="820px" viewBox="0 0 825 820" enable-background="new 0 0 825 820" xml:space="preserve">
<path fill-rule="evenodd" clip-rule="evenodd" fill="#FFFFFF" stroke="#000000" stroke-width="1.5309" stroke-miterlimit="10" d="
	M808.862,785.68c0,10.146-8.226,18.371-18.371,18.371H32.234c-10.147,0-18.372-8.225-18.372-18.371V27.423
	c0-10.147,8.225-18.372,18.372-18.372h758.257c10.146,0,18.371,8.225,18.371,18.372V785.68z"/>
<polygon points="748.473,347.164 726.126,339.71 703.779,332.256 721.408,316.63 739.038,301.004 743.756,324.084 "/>
<polygon points="75.147,347.637 74.7,324.084 74.251,300.53 94.873,311.919 115.495,323.308 95.321,335.473 "/>
<g>
	<path fill-rule="evenodd" clip-rule="evenodd" fill="#404040" d="M395.076,400.828c0.486,1.465,2.515,2.183,2.129,3.688
		c-0.688,11.074-1.553,18.834-2.862,29.099c-0.778,6.093-1.634,11.294-3.398,17.53c-1.867,6.596-3.851,17.566-3.633,24.217
		c0.13,3.914,0.972,7.799,1.021,11.701c0.235,18.76-0.32,37.748-6.53,55.386c-2.549,7.242-6.097,14.664-11.222,19.588
		c-8.357,8.03-19.473,13.7-30.581,20.114c-11.015,6.359-21.945,10.957-31.8,13.034c-19.496,4.109-37.221-6.378-50.747-21.908
		c-14.441-16.581-24.833-42.786-40.357-60.678c-10.334-11.909-21.366-22.239-32.68-36.025c-5.93-7.226-13.519-17.054-6.307-22.986
		c7.755-6.378,14.226,1.894,19.882,8.185c12.587,13.999,23.992,25.22,37.621,38.908c2.844,2.856,6.225,5.808,8.771,3.129
		c1.922-2.023-1.931-8.176-5.028-12.255c-14.183-18.68-29.473-38.458-43.205-57.805c-7.507-10.576-24.476-28.77-8.65-35.561
		c3.104-1.333,7.689-0.843,10.39,0.966c2.883,1.933,4.963,6.115,7.743,9.867c14.773,19.929,30.447,39.838,45.369,59.423
		c2.077,2.726,4.235,7.056,8.347,6.651c1.103-2.46-1.125-4.743-2.142-6.547c-3.622-6.428-8.106-11.902-12.357-17.855
		c-5.561-7.787-10.849-16.095-16.565-24.436c-7.974-11.635-16.644-23.061-25.458-34.87c-4.571-6.125-10.386-11.47-10.157-18.305
		c0.286-8.612,11.361-11.874,17.961-7.912c3.143,1.885,6.262,6.394,9.507,10.078c7.882,8.949,14.95,18.292,22.878,28.985
		c8.282,11.17,19.525,27.023,29.846,41.758c1.887,2.695,6.297,11.044,9.765,9.11c3.067-1.71-0.276-6.86-2.427-11.299
		c-6.125-12.639-11.66-24.067-19.347-36.349c-3.876-6.193-9.977-15.801-14.581-23.125c-6.855-10.911-16.542-22.729-8.755-29.356
		c5.086-4.328,11.649-2.534,15.271,0.196c4.282,3.229,7.959,10.25,12.131,16.756c11.453,17.865,23.285,36.148,34.742,54.497
		c3.761,6.024,7.433,12.421,10.902,17.466c3.549,5.158,8.072,9.979,12.344,14.994c5.961,6.996,18.811,23.975,27.463,20.604
		c7.701-3.001,11.387-16.898,12.131-22.979c0.479-3.917-0.16-8.265,0.03-12.718c0.345-8.022,2.198-16.215,4.91-24.136
		c2.307-6.736,6.7-17.354,17.687-20.453c2.197-0.62,3.988-0.335,7.174,0.364l0.112,0.549l0.372-0.418
		c0.059,0.102,0.119,0.204,0.178,0.307c0.682-0.281,0.95,0.978,1.631,0.696l0.113,0.55L395.076,400.828z"/>
	<path fill-rule="evenodd" clip-rule="evenodd" fill="#1A1A1A" stroke="#FFFFFF" stroke-width="1.2256" stroke-miterlimit="10" d="
		M557.93,426.346c-0.389,1.89,1.357,3.935,0,5.322c-7.667,11.559-13.453,19.418-21.287,29.712
		c-4.65,6.11-8.825,11.204-14.635,16.853c-6.143,5.973-15.146,16.609-19.067,23.945c-2.308,4.318-3.823,9.05-6.209,13.305
		c-11.47,20.455-23.938,40.663-41.685,55.875c-7.286,6.245-15.767,12.063-24.39,14.19c-14.067,3.47-29.643,2.661-45.677,2.661
		c-15.898,0-30.605-1.854-42.572-5.765c-23.674-7.737-36.306-30.167-41.242-55.433c-5.27-26.976-0.141-61.838-5.766-90.908
		c-3.742-19.351-9.229-37.43-12.859-59.424c-1.903-11.528-3.977-26.911,7.539-28.825c12.381-2.058,14.216,10.941,16.408,21.286
		c4.876,23.021,10.208,42.295,16.407,65.632c1.294,4.87,3.11,10.178,7.54,8.869c3.345-0.989,3.02-10.056,2.216-16.408
		c-3.68-29.086-7.868-60.053-10.643-89.579c-1.517-16.142-8.515-46.44,12.86-43.901c4.193,0.497,8.851,3.893,10.644,7.538
		c1.913,3.895,1.552,9.724,2.217,15.521c3.536,30.807,8.06,62.156,11.974,92.683c0.545,4.249,0.175,10.285,4.878,12.417
		c2.731-1.974,1.747-5.837,1.774-8.426c0.096-9.222-1.337-17.949-2.218-27.052c-1.152-11.905-1.686-24.203-2.661-36.806
		c-1.359-17.578-3.605-35.367-5.765-53.659c-1.12-9.487-4.074-18.907,0.443-26.165c5.692-9.144,19.721-5.751,24.39,2.662
		c2.224,4.004,2.781,10.834,3.991,16.851c2.94,14.614,4.754,29.147,6.652,45.676c1.983,17.269,4.246,41.459,6.209,63.858
		c0.358,4.098-0.086,15.891,4.878,15.965c4.389,0.065,3.989-7.6,4.434-13.747c1.297-17.896,2.405-33.729,1.774-51.44
		c-0.325-9.127-0.926-23.34-1.331-34.146c-0.602-16.097-3.702-34.943,8.87-37.251c8.21-1.507,14.194,4.537,16.408,9.756
		c2.617,6.173,2.212,16.069,2.66,25.72c1.232,26.498,2.612,53.686,3.548,80.711c0.307,8.871,0.283,18.09,0.887,25.72
		c0.617,7.802,2.501,15.849,3.991,23.947c2.08,11.298,5.379,37.71,16.852,39.468c10.213,1.564,22.888-11.176,27.494-17.294
		c2.967-3.942,4.993-9.046,7.982-13.749c5.386-8.469,12.513-16.18,20.399-23.059c6.707-5.852,18.102-14.6,31.93-11.087
		c2.766,0.703,4.526,2.13,7.538,4.878l-0.222,0.666l0.665-0.223c0,0.147,0,0.296,0,0.444c0.913,0.122,0.417,1.652,1.331,1.772
		l-0.223,0.666L557.93,426.346z"/>
	<path fill-rule="evenodd" clip-rule="evenodd" stroke="#FFFFFF" stroke-width="1.532" stroke-miterlimit="10" d="M647.558,540.516
		c-1.366,1.537-0.844,4.358-2.838,4.916c-13.246,6.589-22.783,10.764-35.509,16.094c-7.556,3.164-14.13,5.644-22.507,7.762
		c-8.861,2.242-22.852,7.265-30.387,11.951c-4.433,2.758-8.358,6.321-12.83,8.979c-21.505,12.777-43.802,24.796-68.308,29.384
		c-10.062,1.884-20.997,2.735-30.1,0.101c-14.844-4.297-28.801-13.351-43.612-21.902c-14.688-8.479-27.282-18.035-36.251-28.031
		c-17.743-19.772-17.449-47.229-8.534-73.202c9.519-27.729,32.849-57.198,43.158-87.052c6.863-19.872,11.438-39.499,19.813-61.752
		c4.391-11.665,10.679-26.981,22.338-22.607c12.534,4.703,7.297,17.689,3.804,28.414c-7.772,23.868-13.127,44.518-19.847,69.379
		c-1.402,5.189-2.556,11.062,2.234,12.214c3.618,0.871,8.154-7.678,10.8-13.975c12.112-28.831,24.759-59.67,37.942-88.425
		c7.208-15.72,16.904-47.441,35.295-33.697c3.608,2.697,6.1,8.318,5.811,12.641c-0.309,4.618-3.752,9.811-6.229,15.52
		c-13.164,30.346-25.705,61.717-38.37,92.003c-1.764,4.217-5.324,9.596-2.116,14.072c3.575-0.366,4.727-4.46,6.132-6.837
		c5.008-8.467,8.339-17.295,12.379-26.172c5.287-11.612,11.353-23.257,17.173-35.42c8.117-16.962,15.532-34.592,23.293-52.643
		c4.024-9.361,6.32-19.638,14.363-23.933c10.136-5.411,21.285,5.206,21.111,15.467c-0.082,4.885-3.209,11.491-5.3,17.694
		c-5.079,15.067-11.154,29.46-18.216,45.742c-7.377,17.009-18.189,40.562-28.323,62.301c-1.854,3.977-8.553,14.634-4.008,17.35
		c4.02,2.401,7.738-4.893,11.429-10.335c10.51-15.498,20.017-29.511,29.074-46.573c4.566-8.603,11.592-22.053,16.981-32.252
		c8.027-15.19,15.217-34.254,28.061-29.681c8.389,2.987,10.693,11.762,9.954,17.764c-0.875,7.099-6.528,16.024-11.261,25.179
		c-12.993,25.134-26.218,50.985-39.768,76.447c-4.447,8.359-9.386,16.863-12.897,24.233c-3.591,7.536-6.144,15.974-9.085,24.249
		c-4.105,11.547-15.144,37.705-5.483,45.447c8.601,6.893,27.103,1.883,34.622-1.313c4.843-2.058,9.437-5.692,14.705-8.441
		c9.494-4.951,20.189-8.272,31.143-10.422c9.316-1.828,24.508-3.832,35.408,6.787c2.182,2.124,3.047,4.382,4.362,8.527l-0.56,0.495
		l0.732,0.15c-0.078,0.137-0.157,0.273-0.235,0.41c0.777,0.6-0.496,1.748,0.282,2.348l-0.56,0.496L647.558,540.516z"/>
</g>
<path fill="none" stroke="#1A1A1A" stroke-width="1.2256" stroke-miterlimit="10" d="M84.471,331.897
	c109.601-211.067,497.824-232.513,645.576,0"/>
<g>
	<path stroke="#FFFFFF" stroke-width="0.2835" stroke-miterlimit="10" d="M116.947,53.443c0,7.078-2.383,20.399-7.146,39.967
		c-0.497,2.123-1.761,3.185-3.791,3.185c-2.196,0-3.625-1.252-4.288-3.756l-9.145-32.854h-0.152L83.28,92.839
		c-0.663,2.504-2.092,3.756-4.288,3.756c-2.155,0-3.46-1.228-3.915-3.685c-1.408-6.661-2.817-13.301-4.226-19.921
		c-1.865-8.867-2.797-15.383-2.797-19.546c0-0.708,0.239-1.3,0.718-1.779c0.478-0.479,1.069-0.719,1.777-0.719
		c1.704,0,2.702,0.853,2.993,2.558l5.8,35.857h0.124l10.229-36.232c0.415-1.454,1.351-2.183,2.807-2.183
		c1.454,0,2.39,0.729,2.806,2.183l10.229,36.232h0.124l5.799-35.857c0.29-1.705,1.288-2.558,2.993-2.558
		c0.707,0,1.299,0.24,1.777,0.719C116.707,52.144,116.947,52.735,116.947,53.443z"/>
	<path stroke="#FFFFFF" stroke-width="0.2835" stroke-miterlimit="10" d="M148.563,78.572c0,1.995-1.017,2.993-3.048,2.993h-20.587
		c0,2.993,0.891,5.437,2.674,7.327c1.783,1.893,4.146,2.838,7.091,2.838c1.989,0,3.834-0.395,5.534-1.185
		c0.953-0.415,2.114-1.123,3.483-2.121c1.036-0.789,1.762-1.185,2.177-1.185c1.326,0,1.99,0.816,1.99,2.449
		c0,1.841-1.83,3.516-5.488,5.021c-3.035,1.256-5.634,1.884-7.795,1.884c-4.864,0-8.669-1.687-11.412-5.061
		c-2.537-3.123-3.805-7.163-3.805-12.12c0-4.665,1.31-8.622,3.929-11.87c2.785-3.498,6.444-5.248,10.976-5.248
		c4.241,0,7.733,1.684,10.478,5.051C147.295,70.507,148.563,74.249,148.563,78.572z M143.014,77.387
		c0-2.784-0.744-5.154-2.229-7.108c-1.653-2.162-3.82-3.243-6.504-3.243c-2.974,0-5.286,0.998-6.937,2.993
		c-1.486,1.83-2.292,4.282-2.415,7.358H143.014z"/>
	<path stroke="#FFFFFF" stroke-width="0.2835" stroke-miterlimit="10" d="M159.538,93.656c0,1.959-0.926,2.938-2.775,2.938
		s-2.774-0.979-2.774-2.938V50.454c0-2,0.925-3.001,2.774-3.001s2.775,1.001,2.775,3.001V93.656z"/>
	<path stroke="#FFFFFF" stroke-width="0.2835" stroke-miterlimit="10" d="M191.404,94.408c0,0.584-0.228,1.094-0.684,1.53
		c-0.456,0.438-0.994,0.656-1.616,0.656c-1.616,0-4.642-2.421-9.075-7.262c-2.652-3.046-5.284-6.093-7.895-9.14v13.46
		c0,1.961-0.926,2.941-2.775,2.941c-1.851,0-2.775-0.979-2.775-2.938V50.454c0-2,0.925-3.001,2.775-3.001
		c1.85,0,2.775,1.001,2.775,3v23.629c2.318-2.078,4.639-4.157,6.959-6.236c4.35-3.7,7.042-5.55,8.078-5.55
		c1.532,0,2.299,0.812,2.299,2.437c0,1.208-2.037,3.436-6.111,6.685c-2.578,1.875-5.155,3.77-7.732,5.686
		c2.951,2.749,5.924,5.478,8.918,8.185C189.117,89.744,191.404,92.784,191.404,94.408z"/>
	<path stroke="#FFFFFF" stroke-width="0.2835" stroke-miterlimit="10" d="M222.959,79.414c0,4.665-1.247,8.621-3.741,11.87
		c-2.703,3.541-6.32,5.311-10.852,5.311s-8.148-1.77-10.851-5.311c-2.495-3.249-3.742-7.205-3.742-11.87
		c0-4.623,1.247-8.56,3.742-11.808c2.744-3.54,6.36-5.311,10.851-5.311s8.107,1.771,10.852,5.311
		C221.712,70.854,222.959,74.791,222.959,79.414z M217.409,79.383c0-3.284-0.683-6.049-2.045-8.294
		c-1.609-2.702-3.942-4.054-6.998-4.054s-5.389,1.352-6.998,4.054c-1.363,2.245-2.044,5.01-2.044,8.294
		c0,3.285,0.681,6.049,2.044,8.294c1.609,2.703,3.942,4.054,6.998,4.054s5.389-1.351,6.998-4.054
		C216.727,85.432,217.409,82.668,217.409,79.383z"/>
	<path stroke="#FFFFFF" stroke-width="0.2835" stroke-miterlimit="10" d="M270.666,93.659c0,1.957-0.915,2.936-2.744,2.936
		c-2.079,0-3.118-1.999-3.118-5.999c0-1.125,0.114-3.135,0.343-6.031c0.229-2.895,0.343-5.071,0.343-6.53
		c0-7.332-2.474-10.999-7.421-10.999c-4.906,0-7.358,3.667-7.358,10.999c0,1.459,0.114,3.625,0.343,6.499
		c0.229,2.875,0.343,4.896,0.343,6.062c0,4-1.039,5.999-3.118,5.999s-3.118-1.999-3.118-5.999c0-1.125,0.114-3.135,0.344-6.031
		c0.228-2.895,0.343-5.071,0.343-6.53c0-7.332-2.475-10.999-7.421-10.999c-4.906,0-7.359,3.667-7.359,10.999
		c0,1.459,0.114,3.625,0.344,6.499c0.228,2.875,0.343,4.896,0.343,6.062c0,4-1.04,5.999-3.118,5.999
		c-1.83,0-2.744-0.979-2.744-2.936V65.231c0-1.957,0.914-2.936,2.744-2.936c1.829,0,2.744,1.31,2.744,3.929l0.124,0.124
		c2.079-2.701,4.864-4.053,8.356-4.053c3.867,0,6.901,1.892,9.105,5.675c2.577-3.783,5.965-5.675,10.165-5.675
		c3.617,0,6.443,1.208,8.481,3.623c2.036,2.417,3.056,5.457,3.056,9.122V93.659z"/>
	<path stroke="#FFFFFF" stroke-width="0.2835" stroke-miterlimit="10" d="M317.374,79.414c0,4.541-1.209,8.456-3.627,11.745
		c-2.668,3.624-6.19,5.436-10.567,5.436c-4.336,0-7.295-1.559-8.88-4.677c0,1.559-0.105,2.612-0.315,3.159
		c-0.378,1.012-1.198,1.518-2.46,1.518c-1.85,0-2.774-0.979-2.774-2.938V50.454c0-2,0.914-3.001,2.744-3.001
		c2.203,0,3.305,2.961,3.305,8.884c0,1.669-0.084,3.756-0.249,6.258c-0.167,2.502-0.25,3.899-0.25,4.19
		c2.084-2.993,5.045-4.489,8.88-4.489c4.377,0,7.899,1.812,10.567,5.435C316.165,70.979,317.374,74.874,317.374,79.414z
		 M311.824,79.383c0-3.284-0.685-6.049-2.052-8.294c-1.615-2.702-3.957-4.054-7.022-4.054c-3.066,0-5.407,1.352-7.022,4.054
		c-1.368,2.245-2.051,5.01-2.051,8.294c0,3.285,0.683,6.049,2.051,8.294c1.615,2.703,3.956,4.054,7.022,4.054
		c3.065,0,5.407-1.351,7.022-4.054C311.14,85.432,311.824,82.668,311.824,79.383z"/>
	<path stroke="#FFFFFF" stroke-width="0.2835" stroke-miterlimit="10" d="M328.973,54.313c0,0.957-0.333,1.768-0.998,2.432
		c-0.665,0.666-1.455,0.998-2.369,0.998c-0.957,0-1.757-0.332-2.401-0.998c-0.645-0.664-0.967-1.475-0.967-2.432
		c0-0.914,0.322-1.704,0.967-2.37c0.645-0.664,1.444-0.998,2.401-0.998c0.914,0,1.704,0.334,2.369,0.998
		C328.64,52.609,328.973,53.399,328.973,54.313z M328.411,93.659c0,1.957-0.926,2.936-2.774,2.936c-1.851,0-2.775-0.979-2.775-2.936
		V65.231c0-1.957,0.925-2.936,2.775-2.936c1.849,0,2.774,0.979,2.774,2.936V93.659z"/>
	<path stroke="#FFFFFF" stroke-width="0.2835" stroke-miterlimit="10" d="M342.566,54.313c0,0.957-0.322,1.768-0.967,2.432
		c-0.645,0.666-1.445,0.998-2.4,0.998c-0.957,0-1.757-0.332-2.401-0.998c-0.645-0.664-0.967-1.475-0.967-2.432
		c0-0.914,0.322-1.704,0.967-2.37c0.645-0.664,1.444-0.998,2.401-0.998c0.914,0,1.704,0.334,2.369,0.998
		C342.233,52.609,342.566,53.399,342.566,54.313z M342.005,106.881c0,1.956-0.926,2.935-2.774,2.935
		c-1.851,0-2.775-0.979-2.775-2.935V65.23c0-1.957,0.925-2.935,2.775-2.935c1.849,0,2.774,0.978,2.774,2.935V106.881z"/>
	<path stroke="#FFFFFF" stroke-width="0.2835" stroke-miterlimit="10" d="M393.016,93.656c0,1.959-0.926,2.938-2.774,2.938
		c-1.263,0-2.082-0.506-2.46-1.518c-0.21-0.547-0.315-1.601-0.315-3.159c-1.585,3.118-4.545,4.677-8.88,4.677
		c-4.377,0-7.899-1.812-10.567-5.436c-2.419-3.289-3.627-7.204-3.627-11.745c0-4.54,1.208-8.435,3.627-11.684
		c2.668-3.622,6.19-5.435,10.567-5.435c3.835,0,6.795,1.496,8.88,4.489c0-0.291-0.084-1.688-0.25-4.19s-0.249-4.589-0.249-6.258
		c0-5.923,1.102-8.884,3.306-8.884c1.828,0,2.743,1.001,2.743,3.001V93.656z M388.089,79.383c0-3.284-0.684-6.049-2.051-8.294
		c-1.615-2.702-3.957-4.054-7.022-4.054c-3.066,0-5.407,1.352-7.022,4.054c-1.368,2.245-2.051,5.01-2.051,8.294
		c0,3.285,0.683,6.049,2.051,8.294c1.615,2.703,3.956,4.054,7.022,4.054c3.065,0,5.407-1.351,7.022-4.054
		C387.405,85.432,388.089,82.668,388.089,79.383z"/>
	<path stroke="#FFFFFF" stroke-width="0.2835" stroke-miterlimit="10" d="M426.94,78.572c0,1.995-1.017,2.993-3.048,2.993h-20.587
		c0,2.993,0.891,5.437,2.674,7.327c1.783,1.893,4.146,2.838,7.091,2.838c1.989,0,3.834-0.395,5.534-1.185
		c0.953-0.415,2.114-1.123,3.483-2.121c1.036-0.789,1.762-1.185,2.177-1.185c1.326,0,1.99,0.816,1.99,2.449
		c0,1.841-1.83,3.516-5.488,5.021c-3.035,1.256-5.634,1.884-7.795,1.884c-4.864,0-8.669-1.687-11.412-5.061
		c-2.537-3.123-3.805-7.163-3.805-12.12c0-4.665,1.31-8.622,3.929-11.87c2.785-3.498,6.444-5.248,10.976-5.248
		c4.241,0,7.733,1.684,10.478,5.051C425.672,70.507,426.94,74.249,426.94,78.572z M421.391,77.387c0-2.784-0.744-5.154-2.229-7.108
		c-1.653-2.162-3.82-3.243-6.504-3.243c-2.974,0-5.286,0.998-6.937,2.993c-1.486,1.83-2.292,4.282-2.415,7.358H421.391z"/>
	<path stroke="#FFFFFF" stroke-width="0.2835" stroke-miterlimit="10" d="M471.715,82.438c0,4.24-1.434,7.661-4.303,10.259
		c-2.868,2.599-6.444,3.897-10.727,3.897c-2.369,0-4.802-0.377-7.296-1.131c-3.367-1.047-5.052-2.492-5.052-4.336
		c0-1.884,0.77-2.827,2.308-2.827c0.29,0,1.549,0.571,3.773,1.715c2.224,1.144,4.334,1.715,6.329,1.715
		c2.66,0,4.843-0.852,6.548-2.557c1.705-1.704,2.558-3.887,2.558-6.548c0-2.869-1.83-5.093-5.488-6.673
		c-3.367-1.372-6.735-2.744-10.103-4.116c-3.659-2.12-5.488-5.238-5.488-9.354c0-3.283,1.393-6.069,4.179-8.356
		c2.577-2.12,5.55-3.181,8.918-3.181c2.12,0,4.281,0.374,6.485,1.123c2.951,0.998,4.428,2.369,4.428,4.115
		c0,0.666-0.229,1.238-0.686,1.716c-0.458,0.478-1.02,0.717-1.685,0.717c-0.499,0-1.601-0.468-3.305-1.403
		c-1.705-0.936-3.514-1.403-5.426-1.403c-1.954,0-3.617,0.583-4.989,1.746c-1.371,1.165-2.058,2.703-2.058,4.615
		c0,2.619,1.829,4.698,5.488,6.236c3.367,1.414,6.734,2.827,10.103,4.24C469.886,74.893,471.715,78.157,471.715,82.438z"/>
	<path stroke="#FFFFFF" stroke-width="0.2835" stroke-miterlimit="10" d="M520.107,64.732c0,1.333-1.419,6.018-4.256,14.057
		c-1.795,4.999-3.568,9.977-5.32,14.933c-0.669,1.915-1.732,2.873-3.192,2.873c-1.503,0-2.546-0.971-3.13-2.912l-7.1-22.641h-0.027
		l-7.101,22.641c-0.625,1.941-1.669,2.912-3.13,2.912c-1.502,0-2.565-0.958-3.19-2.873c-1.795-4.956-3.589-9.934-5.383-14.933
		c-2.797-8.039-4.194-12.724-4.194-14.057c0-0.707,0.25-1.291,0.749-1.749c0.498-0.458,1.122-0.688,1.87-0.688
		c1.455,0,2.474,0.935,3.056,2.806l7.048,22.887h0.124l6.924-22.076c0.374-1.247,0.706-2.078,0.997-2.494
		c0.499-0.748,1.248-1.122,2.245-1.122c0.955,0,1.703,0.374,2.244,1.122c0.25,0.416,0.582,1.247,0.998,2.494l6.923,22.076h0.125
		l7.046-22.887c0.54-1.871,1.559-2.806,3.056-2.806c0.707,0,1.319,0.229,1.84,0.688C519.848,63.441,520.107,64.025,520.107,64.732z"
		/>
	<path stroke="#FFFFFF" stroke-width="0.2835" stroke-miterlimit="10" d="M531.395,54.313c0,0.957-0.333,1.768-0.998,2.432
		c-0.665,0.666-1.455,0.998-2.369,0.998c-0.957,0-1.757-0.332-2.401-0.998c-0.645-0.664-0.967-1.475-0.967-2.432
		c0-0.914,0.322-1.704,0.967-2.37c0.645-0.664,1.444-0.998,2.401-0.998c0.914,0,1.704,0.334,2.369,0.998
		C531.062,52.609,531.395,53.399,531.395,54.313z M530.833,93.659c0,1.957-0.926,2.936-2.774,2.936
		c-1.851,0-2.775-0.979-2.775-2.936V65.231c0-1.957,0.925-2.936,2.775-2.936c1.849,0,2.774,0.979,2.774,2.936V93.659z"/>
	<path stroke="#FFFFFF" stroke-width="0.2835" stroke-miterlimit="10" d="M565.63,79.414c0,4.541-1.209,8.456-3.626,11.745
		c-2.668,3.624-6.19,5.436-10.568,5.436c-3.878,0-6.837-1.538-8.879-4.615c0,0.293,0.071,1.576,0.218,3.85
		c0.146,2.273,0.219,4.16,0.219,5.663c0,5.548-1.082,8.323-3.243,8.323c-1.83,0-2.744-0.979-2.744-2.935V65.23
		c0-1.957,0.925-2.935,2.775-2.935c1.261,0,2.081,0.498,2.459,1.496c0.211,0.541,0.316,1.56,0.316,3.056
		c1.541-3.034,4.501-4.552,8.879-4.552s7.9,1.812,10.568,5.435C564.421,70.979,565.63,74.874,565.63,79.414z M560.08,79.383
		c0-3.284-0.685-6.049-2.052-8.294c-1.615-2.702-3.957-4.054-7.022-4.054c-3.108,0-5.469,1.352-7.085,4.054
		c-1.326,2.245-1.988,5.01-1.988,8.294c0,3.285,0.662,6.049,1.988,8.294c1.616,2.703,3.977,4.054,7.085,4.054
		c3.065,0,5.407-1.351,7.022-4.054C559.396,85.432,560.08,82.668,560.08,79.383z"/>
	<path stroke="#FFFFFF" stroke-width="0.2835" stroke-miterlimit="10" d="M598.183,78.572c0,1.995-1.017,2.993-3.048,2.993h-20.587
		c0,2.993,0.891,5.437,2.674,7.327c1.783,1.893,4.146,2.838,7.091,2.838c1.989,0,3.834-0.395,5.534-1.185
		c0.953-0.415,2.114-1.123,3.483-2.121c1.036-0.789,1.762-1.185,2.177-1.185c1.326,0,1.99,0.816,1.99,2.449
		c0,1.841-1.83,3.516-5.488,5.021c-3.035,1.256-5.634,1.884-7.795,1.884c-4.864,0-8.669-1.687-11.412-5.061
		c-2.537-3.123-3.805-7.163-3.805-12.12c0-4.665,1.31-8.622,3.929-11.87c2.785-3.498,6.444-5.248,10.976-5.248
		c4.241,0,7.733,1.684,10.478,5.051C596.914,70.507,598.183,74.249,598.183,78.572z M592.633,77.387
		c0-2.784-0.744-5.154-2.229-7.108c-1.653-2.162-3.82-3.243-6.504-3.243c-2.974,0-5.286,0.998-6.937,2.993
		c-1.486,1.83-2.292,4.282-2.415,7.358H592.633z"/>
	<path stroke="#FFFFFF" stroke-width="0.2835" stroke-miterlimit="10" d="M628.053,82.438c0,4.24-1.434,7.661-4.303,10.259
		c-2.868,2.599-6.444,3.897-10.727,3.897c-2.369,0-4.802-0.377-7.296-1.131c-3.367-1.047-5.052-2.492-5.052-4.336
		c0-1.884,0.77-2.827,2.308-2.827c0.29,0,1.549,0.571,3.773,1.715c2.224,1.144,4.334,1.715,6.329,1.715
		c2.66,0,4.843-0.852,6.548-2.557c1.705-1.704,2.558-3.887,2.558-6.548c0-2.869-1.83-5.093-5.488-6.673
		c-3.367-1.372-6.735-2.744-10.103-4.116c-3.659-2.12-5.488-5.238-5.488-9.354c0-3.283,1.393-6.069,4.179-8.356
		c2.577-2.12,5.55-3.181,8.918-3.181c2.12,0,4.281,0.374,6.485,1.123c2.951,0.998,4.428,2.369,4.428,4.115
		c0,0.666-0.229,1.238-0.686,1.716c-0.458,0.478-1.02,0.717-1.685,0.717c-0.499,0-1.601-0.468-3.305-1.403
		c-1.705-0.936-3.514-1.403-5.426-1.403c-1.954,0-3.617,0.583-4.989,1.746c-1.371,1.165-2.058,2.703-2.058,4.615
		c0,2.619,1.829,4.698,5.488,6.236c3.367,1.414,6.734,2.827,10.103,4.24C626.224,74.893,628.053,78.157,628.053,82.438z"/>
	<path stroke="#FFFFFF" stroke-width="0.2835" stroke-miterlimit="10" d="M659.67,78.572c0,1.995-1.017,2.993-3.048,2.993h-20.587
		c0,2.993,0.891,5.437,2.674,7.327c1.783,1.893,4.146,2.838,7.091,2.838c1.989,0,3.834-0.395,5.534-1.185
		c0.953-0.415,2.114-1.123,3.483-2.121c1.036-0.789,1.762-1.185,2.177-1.185c1.326,0,1.99,0.816,1.99,2.449
		c0,1.841-1.83,3.516-5.488,5.021c-3.035,1.256-5.634,1.884-7.795,1.884c-4.864,0-8.669-1.687-11.412-5.061
		c-2.537-3.123-3.805-7.163-3.805-12.12c0-4.665,1.31-8.622,3.929-11.87c2.785-3.498,6.444-5.248,10.976-5.248
		c4.241,0,7.733,1.684,10.478,5.051C658.401,70.507,659.67,74.249,659.67,78.572z M654.12,77.387c0-2.784-0.744-5.154-2.229-7.108
		c-1.653-2.162-3.82-3.243-6.504-3.243c-2.974,0-5.286,0.998-6.937,2.993c-1.486,1.83-2.292,4.282-2.415,7.358H654.12z"/>
	<path stroke="#FFFFFF" stroke-width="0.2835" stroke-miterlimit="10" d="M670.645,93.656c0,1.959-0.926,2.938-2.775,2.938
		s-2.774-0.979-2.774-2.938V50.454c0-2,0.925-3.001,2.774-3.001s2.775,1.001,2.775,3.001V93.656z"/>
	<path stroke="#FFFFFF" stroke-width="0.2835" stroke-miterlimit="10" d="M705.13,78.572c0,1.995-1.017,2.993-3.048,2.993h-20.587
		c0,2.993,0.891,5.437,2.674,7.327c1.783,1.893,4.146,2.838,7.091,2.838c1.989,0,3.834-0.395,5.534-1.185
		c0.953-0.415,2.114-1.123,3.483-2.121c1.036-0.789,1.762-1.185,2.177-1.185c1.326,0,1.99,0.816,1.99,2.449
		c0,1.841-1.83,3.516-5.488,5.021c-3.035,1.256-5.634,1.884-7.795,1.884c-4.864,0-8.669-1.687-11.412-5.061
		c-2.537-3.123-3.805-7.163-3.805-12.12c0-4.665,1.31-8.622,3.929-11.87c2.785-3.498,6.444-5.248,10.976-5.248
		c4.241,0,7.733,1.684,10.478,5.051C703.861,70.507,705.13,74.249,705.13,78.572z M699.58,77.387c0-2.784-0.744-5.154-2.229-7.108
		c-1.653-2.162-3.82-3.243-6.504-3.243c-2.974,0-5.286,0.998-6.937,2.993c-1.486,1.83-2.292,4.282-2.415,7.358H699.58z"/>
	<path stroke="#FFFFFF" stroke-width="0.2835" stroke-miterlimit="10" d="M731.882,66.474c0,0.624-0.218,1.176-0.652,1.652
		c-0.435,0.479-0.963,0.718-1.585,0.718c-0.538,0-1.48-0.302-2.827-0.904s-2.621-0.904-3.822-0.904c-3.067,0-5.47,1.331-7.21,3.991
		c-1.492,2.329-2.237,5.113-2.237,8.356s0.745,6.028,2.237,8.356c1.74,2.661,4.143,3.991,7.21,3.991
		c1.325,0,2.661-0.312,4.007-0.936c1.347-0.623,2.206-0.936,2.58-0.936c1.408,0,2.113,0.776,2.113,2.329s-1.145,2.729-3.43,3.525
		c-1.664,0.587-3.431,0.881-5.301,0.881c-4.699,0-8.419-1.729-11.163-5.186c-2.536-3.165-3.805-7.164-3.805-11.995
		s1.269-8.83,3.805-11.995c2.744-3.415,6.464-5.123,11.163-5.123c1.953,0,3.741,0.249,5.362,0.748
		C730.697,63.792,731.882,64.937,731.882,66.474z"/>
	<path stroke="#FFFFFF" stroke-width="0.2835" stroke-miterlimit="10" d="M750.216,65.057c0,1.209-0.575,1.958-1.725,2.249
		c-0.369,0.084-1.437,0.125-3.202,0.125V93.66c0,1.956-0.926,2.935-2.774,2.935c-1.851,0-2.775-0.979-2.775-2.935V67.431
		c-1.766,0-2.834-0.041-3.202-0.125c-1.149-0.291-1.725-1.04-1.725-2.249c0-1.206,0.575-1.955,1.725-2.248
		c0.368-0.082,1.437-0.124,3.202-0.124c0-0.25-0.053-0.947-0.156-2.093c-0.104-1.145-0.155-2.092-0.155-2.841
		c0-3.539,1.018-5.309,3.056-5.309c2.036,0,3.056,1.77,3.056,5.309c0,0.749-0.042,1.696-0.125,2.841
		c-0.084,1.146-0.125,1.843-0.125,2.093c1.766,0,2.833,0.042,3.202,0.124C749.641,63.102,750.216,63.851,750.216,65.057z"/>
</g>
<g>
	<path stroke="#FFFFFF" stroke-width="0.2835" stroke-miterlimit="10" d="M144.359,751.757c0,1.602-0.894,2.401-2.681,2.401h-25.756
		c-2.162,0-3.243-0.83-3.243-2.49c0-1.743,3.555-7.888,10.664-18.432c4.406-6.35,8.813-12.701,13.221-19.053h-20.143
		c-1.788,0-2.682-0.82-2.682-2.463c0-1.6,0.894-2.401,2.682-2.401h24.259c1.911,0,2.868,0.645,2.868,1.931
		c0,1.868-3.638,8.157-10.913,18.866c-4.449,6.393-8.897,12.785-13.346,19.178h22.389
		C143.466,749.294,144.359,750.115,144.359,751.757z"/>
	<path stroke="#FFFFFF" stroke-width="0.2835" stroke-miterlimit="10" d="M192.378,722.732c0,1.333-1.419,6.018-4.256,14.057
		c-1.795,4.999-3.568,9.977-5.32,14.933c-0.669,1.915-1.732,2.873-3.192,2.873c-1.503,0-2.546-0.971-3.13-2.912l-7.1-22.641h-0.027
		l-7.101,22.641c-0.625,1.941-1.669,2.912-3.13,2.912c-1.502,0-2.565-0.958-3.19-2.873c-1.795-4.956-3.589-9.934-5.383-14.933
		c-2.797-8.039-4.194-12.724-4.194-14.057c0-0.707,0.25-1.291,0.749-1.749c0.498-0.458,1.122-0.688,1.87-0.688
		c1.455,0,2.474,0.935,3.056,2.806l7.048,22.887h0.124l6.924-22.076c0.374-1.247,0.706-2.078,0.997-2.494
		c0.499-0.748,1.248-1.122,2.245-1.122c0.955,0,1.703,0.374,2.244,1.122c0.25,0.416,0.582,1.247,0.998,2.494l6.923,22.076h0.125
		l7.046-22.887c0.54-1.871,1.559-2.806,3.056-2.806c0.707,0,1.319,0.229,1.84,0.688
		C192.118,721.441,192.378,722.025,192.378,722.732z"/>
	<path stroke="#FFFFFF" stroke-width="0.2835" stroke-miterlimit="10" d="M224.619,751.908c0,0.75-0.24,1.386-0.718,1.906
		c-0.479,0.52-1.091,0.78-1.84,0.78c-1.247,0-2.037-0.589-2.369-1.768c-0.125-0.463-0.188-1.578-0.188-3.346
		c-2.341,3.409-5.371,5.113-9.09,5.113c-4.514,0-8.15-1.77-10.909-5.311c-2.508-3.249-3.761-7.205-3.761-11.87
		c0-4.623,1.253-8.56,3.761-11.808c2.759-3.54,6.396-5.311,10.909-5.311c3.385,0,6.414,1.476,9.09,4.428
		c0-1.455,0.104-2.433,0.312-2.932c0.333-0.998,1.081-1.496,2.245-1.496c0.749,0,1.361,0.261,1.84,0.781
		c0.478,0.521,0.718,1.155,0.718,1.905V751.908z M219.442,737.383c0-3.284-0.663-6.049-1.988-8.294
		c-1.657-2.702-4.02-4.054-7.085-4.054c-3.066,0-5.407,1.352-7.022,4.054c-1.368,2.245-2.052,5.01-2.052,8.294
		c0,3.285,0.684,6.049,2.052,8.294c1.615,2.703,3.956,4.054,7.022,4.054c3.065,0,5.428-1.351,7.085-4.054
		C218.779,743.432,219.442,740.668,219.442,737.383z"/>
	<path stroke="#FFFFFF" stroke-width="0.2835" stroke-miterlimit="10" d="M258.045,751.908c0,0.75-0.24,1.386-0.718,1.906
		c-0.479,0.52-1.091,0.78-1.84,0.78c-1.247,0-2.037-0.589-2.369-1.768c-0.125-0.463-0.188-1.578-0.188-3.346
		c-2.341,3.409-5.371,5.113-9.09,5.113c-4.514,0-8.15-1.77-10.909-5.311c-2.508-3.249-3.761-7.205-3.761-11.87
		c0-4.623,1.253-8.56,3.761-11.808c2.759-3.54,6.396-5.311,10.909-5.311c3.385,0,6.414,1.476,9.09,4.428
		c0-1.455,0.104-2.433,0.312-2.932c0.333-0.998,1.081-1.496,2.245-1.496c0.749,0,1.361,0.261,1.84,0.781
		c0.478,0.521,0.718,1.155,0.718,1.905V751.908z M252.868,737.383c0-3.284-0.663-6.049-1.988-8.294
		c-1.657-2.702-4.02-4.054-7.085-4.054c-3.066,0-5.407,1.352-7.022,4.054c-1.368,2.245-2.052,5.01-2.052,8.294
		c0,3.285,0.684,6.049,2.052,8.294c1.615,2.703,3.956,4.054,7.022,4.054c3.065,0,5.428-1.351,7.085-4.054
		C252.205,743.432,252.868,740.668,252.868,737.383z"/>
	<path stroke="#FFFFFF" stroke-width="0.2835" stroke-miterlimit="10" d="M270.517,712.313c0,0.957-0.333,1.768-0.998,2.432
		c-0.665,0.666-1.455,0.998-2.369,0.998c-0.957,0-1.757-0.332-2.401-0.998c-0.645-0.664-0.967-1.475-0.967-2.432
		c0-0.914,0.322-1.704,0.967-2.37c0.645-0.664,1.444-0.998,2.401-0.998c0.914,0,1.704,0.334,2.369,0.998
		C270.184,710.609,270.517,711.399,270.517,712.313z M269.955,751.659c0,1.957-0.926,2.936-2.774,2.936
		c-1.851,0-2.775-0.979-2.775-2.936v-28.428c0-1.957,0.925-2.936,2.775-2.936c1.849,0,2.774,0.979,2.774,2.936V751.659z"/>
	<path stroke="#FFFFFF" stroke-width="0.2835" stroke-miterlimit="10" d="M319.22,737.414c0,4.665-1.247,8.621-3.741,11.87
		c-2.703,3.541-6.32,5.311-10.852,5.311s-8.148-1.77-10.851-5.311c-2.495-3.249-3.742-7.205-3.742-11.87
		c0-4.623,1.247-8.56,3.742-11.808c2.744-3.54,6.36-5.311,10.851-5.311s8.107,1.771,10.852,5.311
		C317.973,728.854,319.22,732.791,319.22,737.414z M313.67,737.383c0-3.284-0.683-6.049-2.045-8.294
		c-1.609-2.702-3.942-4.054-6.998-4.054s-5.389,1.352-6.998,4.054c-1.363,2.245-2.044,5.01-2.044,8.294
		c0,3.285,0.681,6.049,2.044,8.294c1.609,2.703,3.942,4.054,6.998,4.054s5.389-1.351,6.998-4.054
		C312.987,743.432,313.67,740.668,313.67,737.383z"/>
	<path stroke="#FFFFFF" stroke-width="0.2835" stroke-miterlimit="10" d="M366.927,751.659c0,1.957-0.915,2.936-2.744,2.936
		c-2.079,0-3.118-1.999-3.118-5.999c0-1.125,0.114-3.135,0.343-6.031c0.229-2.895,0.343-5.071,0.343-6.53
		c0-7.332-2.474-10.999-7.421-10.999c-4.906,0-7.358,3.667-7.358,10.999c0,1.459,0.114,3.625,0.343,6.499
		c0.229,2.875,0.343,4.896,0.343,6.062c0,4-1.039,5.999-3.118,5.999s-3.118-1.999-3.118-5.999c0-1.125,0.114-3.135,0.344-6.031
		c0.228-2.895,0.343-5.071,0.343-6.53c0-7.332-2.475-10.999-7.421-10.999c-4.906,0-7.359,3.667-7.359,10.999
		c0,1.459,0.114,3.625,0.344,6.499c0.228,2.875,0.343,4.896,0.343,6.062c0,4-1.04,5.999-3.118,5.999
		c-1.83,0-2.744-0.979-2.744-2.936v-28.428c0-1.957,0.914-2.936,2.744-2.936c1.829,0,2.744,1.31,2.744,3.929l0.124,0.124
		c2.079-2.701,4.864-4.053,8.356-4.053c3.867,0,6.901,1.892,9.105,5.675c2.577-3.783,5.965-5.675,10.165-5.675
		c3.617,0,6.443,1.208,8.481,3.623c2.036,2.417,3.056,5.457,3.056,9.122V751.659z"/>
	<path stroke="#FFFFFF" stroke-width="0.2835" stroke-miterlimit="10" d="M400.289,723.057c0,1.209-0.575,1.958-1.725,2.249
		c-0.369,0.084-1.437,0.125-3.202,0.125v26.229c0,1.956-0.926,2.935-2.774,2.935c-1.851,0-2.775-0.979-2.775-2.935v-26.229
		c-1.766,0-2.834-0.041-3.202-0.125c-1.149-0.291-1.725-1.04-1.725-2.249c0-1.206,0.575-1.955,1.725-2.248
		c0.368-0.082,1.437-0.124,3.202-0.124c0-0.25-0.053-0.947-0.156-2.093c-0.104-1.145-0.155-2.092-0.155-2.841
		c0-3.539,1.018-5.309,3.056-5.309c2.036,0,3.056,1.77,3.056,5.309c0,0.749-0.042,1.696-0.125,2.841
		c-0.084,1.146-0.125,1.843-0.125,2.093c1.766,0,2.833,0.042,3.202,0.124C399.714,721.102,400.289,721.851,400.289,723.057z"/>
	<path stroke="#FFFFFF" stroke-width="0.2835" stroke-miterlimit="10" d="M432.343,736.572c0,1.995-1.017,2.993-3.048,2.993h-20.587
		c0,2.993,0.891,5.437,2.674,7.327c1.783,1.893,4.146,2.838,7.091,2.838c1.989,0,3.834-0.395,5.534-1.185
		c0.953-0.415,2.114-1.123,3.483-2.121c1.036-0.789,1.762-1.185,2.177-1.185c1.326,0,1.99,0.816,1.99,2.449
		c0,1.841-1.83,3.516-5.488,5.021c-3.035,1.256-5.634,1.884-7.795,1.884c-4.864,0-8.669-1.687-11.412-5.061
		c-2.537-3.123-3.805-7.163-3.805-12.12c0-4.665,1.31-8.622,3.929-11.87c2.785-3.498,6.444-5.248,10.976-5.248
		c4.241,0,7.733,1.684,10.478,5.051C431.074,728.507,432.343,732.249,432.343,736.572z M426.793,735.387
		c0-2.784-0.744-5.154-2.229-7.108c-1.653-2.162-3.82-3.243-6.504-3.243c-2.974,0-5.286,0.998-6.937,2.993
		c-1.486,1.83-2.292,4.282-2.415,7.358H426.793z"/>
	<path stroke="#FFFFFF" stroke-width="0.2835" stroke-miterlimit="10" d="M479.675,751.908c0,0.75-0.24,1.386-0.718,1.906
		c-0.479,0.52-1.091,0.78-1.84,0.78c-1.247,0-2.037-0.589-2.369-1.768c-0.125-0.463-0.188-1.578-0.188-3.346
		c-2.341,3.409-5.371,5.113-9.09,5.113c-4.514,0-8.15-1.77-10.909-5.311c-2.508-3.249-3.761-7.205-3.761-11.87
		c0-4.623,1.253-8.56,3.761-11.808c2.759-3.54,6.396-5.311,10.909-5.311c3.385,0,6.414,1.476,9.09,4.428
		c0-1.455,0.104-2.433,0.312-2.932c0.333-0.998,1.081-1.496,2.245-1.496c0.749,0,1.361,0.261,1.84,0.781
		c0.478,0.521,0.718,1.155,0.718,1.905V751.908z M474.498,737.383c0-3.284-0.663-6.049-1.988-8.294
		c-1.657-2.702-4.02-4.054-7.085-4.054c-3.066,0-5.407,1.352-7.022,4.054c-1.368,2.245-2.052,5.01-2.052,8.294
		c0,3.285,0.684,6.049,2.052,8.294c1.615,2.703,3.956,4.054,7.022,4.054c3.065,0,5.428-1.351,7.085-4.054
		C473.835,743.432,474.498,740.668,474.498,737.383z"/>
	<path stroke="#FFFFFF" stroke-width="0.2835" stroke-miterlimit="10" d="M507.425,724.474c0,0.624-0.218,1.176-0.652,1.652
		c-0.435,0.479-0.963,0.718-1.585,0.718c-0.538,0-1.48-0.302-2.827-0.904s-2.621-0.904-3.822-0.904c-3.067,0-5.47,1.331-7.21,3.991
		c-1.492,2.329-2.237,5.113-2.237,8.356s0.745,6.028,2.237,8.356c1.74,2.661,4.143,3.991,7.21,3.991
		c1.325,0,2.661-0.312,4.007-0.936c1.347-0.623,2.206-0.936,2.58-0.936c1.408,0,2.113,0.776,2.113,2.329s-1.145,2.729-3.43,3.525
		c-1.664,0.587-3.431,0.881-5.301,0.881c-4.699,0-8.419-1.729-11.163-5.186c-2.536-3.165-3.805-7.164-3.805-11.995
		s1.269-8.83,3.805-11.995c2.744-3.415,6.464-5.123,11.163-5.123c1.953,0,3.741,0.249,5.362,0.748
		C506.24,721.792,507.425,722.937,507.425,724.474z"/>
	<path stroke="#FFFFFF" stroke-width="0.2835" stroke-miterlimit="10" d="M525.759,723.057c0,1.209-0.575,1.958-1.725,2.249
		c-0.369,0.084-1.437,0.125-3.202,0.125v26.229c0,1.956-0.926,2.935-2.774,2.935c-1.851,0-2.775-0.979-2.775-2.935v-26.229
		c-1.766,0-2.834-0.041-3.202-0.125c-1.149-0.291-1.725-1.04-1.725-2.249c0-1.206,0.575-1.955,1.725-2.248
		c0.368-0.082,1.437-0.124,3.202-0.124c0-0.25-0.053-0.947-0.156-2.093c-0.104-1.145-0.155-2.092-0.155-2.841
		c0-3.539,1.018-5.309,3.056-5.309c2.036,0,3.056,1.77,3.056,5.309c0,0.749-0.042,1.696-0.125,2.841
		c-0.084,1.146-0.125,1.843-0.125,2.093c1.766,0,2.833,0.042,3.202,0.124C525.184,721.102,525.759,721.851,525.759,723.057z"/>
	<path stroke="#FFFFFF" stroke-width="0.2835" stroke-miterlimit="10" d="M537.545,712.313c0,0.957-0.333,1.768-0.998,2.432
		c-0.665,0.666-1.455,0.998-2.369,0.998c-0.957,0-1.757-0.332-2.401-0.998c-0.645-0.664-0.967-1.475-0.967-2.432
		c0-0.914,0.322-1.704,0.967-2.37c0.645-0.664,1.444-0.998,2.401-0.998c0.914,0,1.704,0.334,2.369,0.998
		C537.212,710.609,537.545,711.399,537.545,712.313z M536.983,751.659c0,1.957-0.926,2.936-2.774,2.936
		c-1.851,0-2.775-0.979-2.775-2.936v-28.428c0-1.957,0.925-2.936,2.775-2.936c1.849,0,2.774,0.979,2.774,2.936V751.659z"/>
	<path stroke="#FFFFFF" stroke-width="0.2835" stroke-miterlimit="10" d="M567.977,722.857c0,1.458-1.477,6.227-4.428,14.306
		c-1.913,4.999-3.804,10.019-5.675,15.058c-0.541,1.583-1.497,2.374-2.869,2.374s-2.328-0.791-2.868-2.374
		c-1.871-5.039-3.764-10.059-5.675-15.058c-2.953-8.079-4.428-12.848-4.428-14.306c0-0.708,0.238-1.312,0.717-1.812
		c0.478-0.5,1.07-0.75,1.777-0.75c1.455,0,2.411,0.707,2.868,2.12l7.546,23.198h0.125l7.546-23.198
		c0.457-1.413,1.413-2.12,2.869-2.12c0.706,0,1.299,0.25,1.777,0.75C567.736,721.546,567.977,722.149,567.977,722.857z"/>
	<path stroke="#FFFFFF" stroke-width="0.2835" stroke-miterlimit="10" d="M599.531,736.572c0,1.995-1.017,2.993-3.048,2.993h-20.587
		c0,2.993,0.891,5.437,2.674,7.327c1.783,1.893,4.146,2.838,7.091,2.838c1.989,0,3.834-0.395,5.534-1.185
		c0.953-0.415,2.114-1.123,3.483-2.121c1.036-0.789,1.762-1.185,2.177-1.185c1.326,0,1.99,0.816,1.99,2.449
		c0,1.841-1.83,3.516-5.488,5.021c-3.035,1.256-5.634,1.884-7.795,1.884c-4.864,0-8.669-1.687-11.412-5.061
		c-2.537-3.123-3.805-7.163-3.805-12.12c0-4.665,1.31-8.622,3.929-11.87c2.785-3.498,6.444-5.248,10.976-5.248
		c4.241,0,7.733,1.684,10.478,5.051C598.263,728.507,599.531,732.249,599.531,736.572z M593.981,735.387
		c0-2.784-0.744-5.154-2.229-7.108c-1.653-2.162-3.82-3.243-6.504-3.243c-2.974,0-5.286,0.998-6.937,2.993
		c-1.486,1.83-2.292,4.282-2.415,7.358H593.981z"/>
	<path stroke="#FFFFFF" stroke-width="0.2835" stroke-miterlimit="10" d="M618.676,723.106c0,1.209-0.91,2.146-2.729,2.812
		c-2.687,0.959-4.401,1.771-5.146,2.437c-1.818,1.542-2.728,3.978-2.728,7.311v15.994c0,1.957-0.926,2.936-2.775,2.936
		c-1.851,0-2.775-0.979-2.775-2.936v-28.428c0-1.957,0.914-2.936,2.744-2.936c1.413,0,2.286,0.686,2.619,2.058
		c0.083,0.374,0.125,1.621,0.125,3.741h0.124c0.707-1.496,1.705-2.806,2.994-3.929c1.496-1.247,2.993-1.87,4.49-1.87
		C617.656,720.296,618.676,721.232,618.676,723.106z"/>
	<path stroke="#FFFFFF" stroke-width="0.2835" stroke-miterlimit="10" d="M648.235,736.572c0,1.995-1.017,2.993-3.048,2.993h-20.587
		c0,2.993,0.891,5.437,2.674,7.327c1.783,1.893,4.146,2.838,7.091,2.838c1.989,0,3.834-0.395,5.534-1.185
		c0.953-0.415,2.114-1.123,3.483-2.121c1.036-0.789,1.762-1.185,2.177-1.185c1.326,0,1.99,0.816,1.99,2.449
		c0,1.841-1.83,3.516-5.488,5.021c-3.035,1.256-5.634,1.884-7.795,1.884c-4.864,0-8.669-1.687-11.412-5.061
		c-2.537-3.123-3.805-7.163-3.805-12.12c0-4.665,1.31-8.622,3.929-11.87c2.785-3.498,6.444-5.248,10.976-5.248
		c4.241,0,7.733,1.684,10.478,5.051C646.967,728.507,648.235,732.249,648.235,736.572z M642.686,735.387
		c0-2.784-0.744-5.154-2.229-7.108c-1.653-2.162-3.82-3.243-6.504-3.243c-2.974,0-5.286,0.998-6.937,2.993
		c-1.486,1.83-2.292,4.282-2.415,7.358H642.686z"/>
	<path stroke="#FFFFFF" stroke-width="0.2835" stroke-miterlimit="10" d="M677.607,751.659c0,1.957-0.915,2.936-2.744,2.936
		c-2.038,0-3.056-2.02-3.056-6.062c0-1.084,0.093-2.979,0.28-5.687c0.188-2.708,0.28-4.75,0.28-6.126
		c0-3.623-0.499-6.352-1.496-8.186c-1.247-2.333-3.39-3.5-6.424-3.5c-3.035,0-5.176,1.167-6.423,3.5
		c-0.998,1.834-1.497,4.562-1.497,8.186c0,1.376,0.094,3.418,0.281,6.126c0.187,2.707,0.28,4.603,0.28,5.687
		c0,4.042-1.02,6.062-3.056,6.062c-1.83,0-2.744-0.979-2.744-2.936v-28.428c0-1.957,0.914-2.936,2.744-2.936
		c1.205,0,1.995,0.458,2.369,1.372c0.25,0.54,0.375,1.496,0.375,2.868l0.124,0.125c2.286-2.91,5.342-4.365,9.168-4.365
		c3.616,0,6.443,1.197,8.48,3.592c2.037,2.396,3.057,5.446,3.057,9.153V751.659z"/>
</g>
</svg>
