<?xml version="1.0" encoding="utf-8"?>
<!-- Generator: Adobe Illustrator 16.0.0, SVG Export Plug-In . SVG Version: 6.00 Build 0)  -->
<!DOCTYPE svg PUBLIC "-//W3C//DTD SVG 1.1//EN" "http://www.w3.org/Graphics/SVG/1.1/DTD/svg11.dtd">
<svg version="1.1" id="Layer_4" xmlns="http://www.w3.org/2000/svg" xmlns:xlink="http://www.w3.org/1999/xlink" x="0px" y="0px"
	 width="825px" height="820px" viewBox="0 0 825 820" enable-background="new 0 0 825 820" xml:space="preserve">
<path fill="#231F20" stroke="#FFFFFF" d="M787.529,805.051H26.989c-9.501,0-17.23-7.688-17.23-17.142V27.193
	c0-9.452,7.729-17.143,17.23-17.143h760.54c9.501,0,17.23,7.69,17.23,17.143v760.716C804.76,797.362,797.03,805.051,787.529,805.051
	z"/>
<g>
	<path opacity="0.8" fill="#EC1E24" stroke="#FFFFFF" stroke-width="0.75" d="M395.076,406.828c0.485,1.465,2.515,2.183,2.129,3.688
		c-0.688,11.073-1.553,18.833-2.862,29.099c-0.777,6.093-1.634,11.294-3.397,17.529c-1.867,6.597-3.852,17.566-3.634,24.218
		c0.131,3.914,0.973,7.799,1.021,11.7c0.235,18.761-0.32,37.748-6.53,55.387c-2.549,7.242-6.097,14.664-11.222,19.588
		c-8.357,8.03-19.473,13.7-30.581,20.114c-11.015,6.358-21.945,10.957-31.8,13.033c-19.496,4.109-37.221-6.378-50.747-21.907
		c-14.441-16.581-24.833-42.786-40.357-60.679c-10.334-11.908-21.366-22.238-32.68-36.024c-5.93-7.227-13.519-17.055-6.307-22.986
		c7.755-6.378,14.226,1.895,19.882,8.186c12.587,13.999,23.992,25.22,37.621,38.907c2.844,2.856,6.225,5.809,8.771,3.129
		c1.922-2.022-1.931-8.176-5.028-12.255c-14.183-18.68-29.473-38.458-43.205-57.805c-7.507-10.576-24.476-28.77-8.65-35.561
		c3.104-1.333,7.689-0.843,10.39,0.966c2.883,1.933,4.963,6.116,7.743,9.868c14.773,19.929,30.447,39.838,45.369,59.423
		c2.077,2.726,4.235,7.056,8.347,6.65c1.103-2.46-1.125-4.743-2.142-6.547c-3.622-6.428-8.106-11.901-12.357-17.854
		c-5.561-7.787-10.849-16.096-16.565-24.437c-7.974-11.635-16.644-23.061-25.458-34.87c-4.571-6.125-10.386-11.47-10.157-18.305
		c0.286-8.612,11.361-11.874,17.961-7.912c3.143,1.885,6.262,6.394,9.507,10.078c7.882,8.949,14.95,18.292,22.878,28.985
		c8.282,11.17,19.525,27.023,29.846,41.758c1.887,2.695,6.297,11.044,9.765,9.109c3.067-1.71-0.276-6.859-2.427-11.299
		c-6.125-12.639-11.66-24.066-19.347-36.349c-3.876-6.193-9.977-15.801-14.581-23.125c-6.855-10.911-16.542-22.729-8.755-29.356
		c5.086-4.328,11.649-2.534,15.271,0.196c4.282,3.229,7.959,10.25,12.131,16.756c11.453,17.865,23.285,36.148,34.742,54.497
		c3.761,6.024,7.433,12.421,10.902,17.466c3.549,5.158,8.071,9.979,12.344,14.994c5.961,6.996,18.811,23.976,27.463,20.604
		c7.701-3.001,11.387-16.898,12.131-22.979c0.479-3.917-0.16-8.265,0.03-12.718c0.345-8.022,2.198-16.215,4.91-24.137
		c2.307-6.735,6.699-17.354,17.687-20.452c2.197-0.62,3.988-0.335,7.174,0.364l0.112,0.549l0.372-0.418
		c0.059,0.102,0.119,0.204,0.178,0.307c0.683-0.281,0.95,0.978,1.631,0.696l0.113,0.55L395.076,406.828z"/>
	<path opacity="0.8" fill="#3853A3" stroke="#FFFFFF" stroke-width="0.75" d="M557.93,432.346c-0.389,1.891,1.357,3.936,0,5.322
		c-7.667,11.559-13.453,19.418-21.287,29.712c-4.649,6.11-8.824,11.204-14.635,16.854c-6.143,5.973-15.146,16.608-19.066,23.944
		c-2.309,4.318-3.823,9.05-6.209,13.306c-11.471,20.455-23.938,40.663-41.686,55.875c-7.286,6.245-15.767,12.062-24.39,14.189
		c-14.067,3.47-29.644,2.661-45.677,2.661c-15.898,0-30.605-1.854-42.572-5.765c-23.674-7.737-36.307-30.167-41.242-55.434
		c-5.27-26.976-0.141-61.838-5.766-90.907c-3.742-19.352-9.229-37.431-12.859-59.424c-1.903-11.528-3.977-26.911,7.539-28.825
		c12.381-2.058,14.216,10.941,16.408,21.286c4.876,23.021,10.208,42.295,16.406,65.632c1.295,4.869,3.11,10.178,7.54,8.868
		c3.346-0.988,3.021-10.056,2.217-16.407c-3.681-29.086-7.868-60.053-10.644-89.58c-1.517-16.142-8.515-46.44,12.86-43.901
		c4.192,0.497,8.851,3.893,10.644,7.538c1.913,3.895,1.553,9.724,2.217,15.521c3.536,30.807,8.061,62.156,11.975,92.683
		c0.545,4.249,0.175,10.284,4.878,12.417c2.73-1.975,1.747-5.837,1.774-8.426c0.096-9.222-1.338-17.949-2.219-27.052
		c-1.151-11.905-1.686-24.203-2.661-36.806c-1.358-17.578-3.604-35.367-5.765-53.659c-1.12-9.487-4.074-18.907,0.443-26.165
		c5.691-9.144,19.721-5.751,24.39,2.662c2.224,4.004,2.781,10.834,3.991,16.851c2.939,14.614,4.754,29.147,6.651,45.676
		c1.983,17.269,4.246,41.459,6.209,63.858c0.358,4.098-0.086,15.891,4.879,15.965c4.389,0.064,3.988-7.601,4.434-13.748
		c1.297-17.896,2.405-33.729,1.774-51.44c-0.325-9.127-0.927-23.34-1.331-34.146c-0.603-16.097-3.702-34.943,8.869-37.251
		c8.21-1.507,14.194,4.537,16.408,9.756c2.617,6.173,2.212,16.069,2.66,25.72c1.232,26.498,2.612,53.686,3.548,80.711
		c0.308,8.871,0.283,18.09,0.887,25.72c0.617,7.803,2.502,15.85,3.991,23.947c2.08,11.298,5.379,37.71,16.853,39.468
		c10.213,1.564,22.888-11.176,27.494-17.294c2.967-3.941,4.992-9.046,7.981-13.749c5.386-8.469,12.513-16.18,20.399-23.059
		c6.707-5.853,18.102-14.601,31.93-11.087c2.766,0.703,4.526,2.13,7.538,4.878l-0.222,0.666l0.665-0.224c0,0.147,0,0.297,0,0.444
		c0.913,0.122,0.417,1.652,1.331,1.772l-0.224,0.666L557.93,432.346z"/>
	<path opacity="0.8" fill="#69BC45" stroke="#FFFFFF" stroke-width="0.75" d="M647.558,546.516
		c-1.365,1.537-0.844,4.358-2.838,4.916c-13.246,6.59-22.783,10.765-35.509,16.095c-7.556,3.164-14.13,5.644-22.507,7.762
		c-8.861,2.242-22.853,7.265-30.387,11.951c-4.434,2.758-8.358,6.32-12.83,8.979c-21.505,12.777-43.803,24.796-68.309,29.384
		c-10.062,1.885-20.997,2.735-30.1,0.102c-14.844-4.297-28.801-13.352-43.612-21.902c-14.688-8.479-27.282-18.035-36.251-28.031
		c-17.743-19.771-17.449-47.229-8.534-73.201c9.52-27.729,32.85-57.198,43.158-87.052c6.863-19.873,11.438-39.5,19.813-61.752
		c4.391-11.665,10.679-26.981,22.338-22.607c12.534,4.703,7.297,17.689,3.804,28.414c-7.772,23.868-13.127,44.518-19.847,69.379
		c-1.402,5.188-2.557,11.062,2.233,12.214c3.618,0.871,8.154-7.678,10.801-13.975c12.111-28.832,24.759-59.67,37.941-88.425
		c7.208-15.72,16.904-47.441,35.295-33.697c3.608,2.697,6.101,8.318,5.812,12.641c-0.31,4.618-3.752,9.811-6.229,15.52
		c-13.164,30.346-25.705,61.717-38.37,92.002c-1.764,4.218-5.324,9.597-2.116,14.072c3.575-0.365,4.728-4.46,6.133-6.837
		c5.008-8.467,8.339-17.295,12.379-26.172c5.287-11.612,11.353-23.257,17.173-35.42c8.117-16.962,15.532-34.592,23.293-52.643
		c4.023-9.361,6.32-19.638,14.363-23.933c10.136-5.411,21.284,5.206,21.11,15.467c-0.082,4.885-3.209,11.491-5.3,17.694
		c-5.079,15.067-11.154,29.46-18.216,45.742c-7.377,17.009-18.189,40.562-28.323,62.301c-1.854,3.977-8.553,14.634-4.008,17.35
		c4.02,2.401,7.738-4.893,11.429-10.335c10.51-15.497,20.018-29.511,29.074-46.573c4.566-8.603,11.592-22.053,16.981-32.252
		c8.026-15.19,15.217-34.254,28.061-29.681c8.389,2.987,10.693,11.762,9.954,17.764c-0.875,7.099-6.528,16.024-11.261,25.179
		c-12.993,25.134-26.219,50.985-39.769,76.447c-4.447,8.358-9.386,16.862-12.896,24.232c-3.592,7.536-6.145,15.975-9.085,24.249
		c-4.105,11.547-15.145,37.705-5.483,45.447c8.602,6.893,27.104,1.883,34.622-1.313c4.843-2.058,9.437-5.691,14.705-8.44
		c9.494-4.951,20.188-8.272,31.143-10.422c9.316-1.828,24.509-3.832,35.408,6.787c2.183,2.124,3.047,4.382,4.362,8.526l-0.561,0.495
		l0.732,0.15c-0.078,0.137-0.157,0.272-0.235,0.41c0.777,0.6-0.495,1.748,0.282,2.348l-0.56,0.496L647.558,546.516z"/>
</g>
<path fill="#FFFFFF" stroke="#1A1A1A" stroke-miterlimit="10" d="M743.756,330.084l-4.718-23.08l-16.742,14.839
	c-35.533-49.703-84.809-89.581-143.505-115.932c-59.57-26.744-127.354-39.297-196.016-36.305
	c-63.998,2.79-125.283,18.983-177.229,46.828c-47.446,25.433-85.691,60.068-111.775,100.974l-19.303-10.66l0.449,23.554
	l0.447,23.553l20.174-12.164l20.174-12.165l-17.555-9.695c25.62-40.069,63.167-74.02,109.751-98.99
	c51.288-27.493,111.831-43.482,175.084-46.24c67.892-2.957,134.887,9.444,193.75,35.871
	c58.053,26.063,106.746,65.527,141.787,114.708l-14.751,13.075l22.347,7.454l22.347,7.454L743.756,330.084z"/>
<g>
	<path fill="#FFFFFF" stroke="#231F20" d="M82.884,79.493L71.94,36.36h5.888l5.119,21.822c1.28,5.376,2.433,10.751,3.2,14.911h0.128
		c0.704-4.288,2.048-9.407,3.52-14.975l5.76-21.759h5.823l5.248,21.887c1.216,5.119,2.368,10.239,3.008,14.782h0.128
		c0.896-4.735,2.111-9.535,3.456-14.91l5.695-21.759h5.695l-12.223,43.133h-5.824l-5.439-22.462
		c-1.344-5.504-2.239-9.728-2.815-14.079h-0.128c-0.704,4.287-1.729,8.511-3.328,14.079l-6.144,22.462H82.884z"/>
	<path fill="#FFFFFF" stroke="#231F20" d="M130.82,65.03c0.128,7.615,4.928,10.751,10.623,10.751c4.031,0,6.527-0.704,8.575-1.6
		l1.024,4.031c-1.984,0.896-5.439,1.984-10.367,1.984c-9.536,0-15.231-6.336-15.231-15.679c0-9.344,5.504-16.639,14.527-16.639
		c10.175,0,12.799,8.831,12.799,14.526c0,1.152-0.063,1.984-0.192,2.624H130.82z M147.331,60.998
		c0.063-3.52-1.472-9.087-7.808-9.087c-5.76,0-8.191,5.184-8.64,9.087H147.331z"/>
	<path fill="#FFFFFF" stroke="#231F20" d="M159.748,34.056h5.632v45.437h-5.632V34.056z"/>
	<path fill="#FFFFFF" stroke="#231F20" d="M180.419,62.726h0.128c0.768-1.088,1.792-2.432,2.688-3.52l9.151-10.688h6.72
		l-11.903,12.735l13.631,18.238h-6.911l-10.623-14.847l-2.88,3.199v11.647h-5.567V34.056h5.567V62.726z"/>
	<path fill="#FFFFFF" stroke="#231F20" d="M232.896,63.75c0,11.455-7.999,16.447-15.423,16.447c-8.319,0-14.847-6.144-14.847-15.935
		c0-10.304,6.848-16.383,15.359-16.383C226.882,47.879,232.896,54.342,232.896,63.75z M208.387,64.07
		c0,6.783,3.84,11.903,9.344,11.903c5.375,0,9.407-5.056,9.407-12.031c0-5.248-2.624-11.839-9.279-11.839
		C211.267,52.103,208.387,58.247,208.387,64.07z"/>
	<path fill="#FFFFFF" stroke="#231F20" d="M240.003,56.902c0-3.264-0.128-5.823-0.256-8.383h4.928l0.256,5.056h0.191
		c1.729-2.944,4.608-5.695,9.792-5.695c4.159,0,7.359,2.56,8.703,6.207h0.128c0.96-1.792,2.239-3.071,3.52-4.031
		c1.856-1.408,3.84-2.176,6.783-2.176c4.16,0,10.239,2.688,10.239,13.438v18.175h-5.503V62.022c0-6.016-2.24-9.535-6.72-9.535
		c-3.264,0-5.695,2.367-6.72,5.056c-0.256,0.832-0.448,1.792-0.448,2.815v19.135h-5.503V60.934c0-4.928-2.176-8.447-6.464-8.447
		c-3.456,0-6.079,2.815-6.976,5.632c-0.319,0.768-0.448,1.791-0.448,2.751v18.623h-5.503V56.902z"/>
	<path fill="#FFFFFF" stroke="#231F20" d="M313.218,39.816c0,1.92-1.344,3.455-3.584,3.455c-2.048,0-3.392-1.535-3.392-3.455
		s1.408-3.521,3.52-3.521C311.81,36.295,313.218,37.832,313.218,39.816z M306.946,79.493V48.519h5.632v30.974H306.946z"/>
	<path fill="#FFFFFF" stroke="#231F20" d="M321.922,56.902c0-3.264-0.064-5.823-0.256-8.383h4.991l0.32,5.119h0.128
		c1.536-2.88,5.119-5.759,10.239-5.759c4.287,0,10.943,2.56,10.943,13.183v18.431h-5.632V61.638c0-4.992-1.855-9.151-7.168-9.151
		c-3.647,0-6.527,2.624-7.551,5.76c-0.256,0.703-0.384,1.663-0.384,2.623v18.623h-5.632V56.902z"/>
	<path fill="#FFFFFF" stroke="#231F20" d="M397.694,34.056v37.438c0,2.751,0.128,5.887,0.256,7.999h-4.991l-0.256-5.376h-0.192
		c-1.664,3.456-5.375,6.08-10.431,6.08c-7.487,0-13.312-6.336-13.312-15.743c-0.063-10.303,6.399-16.574,13.887-16.574
		c4.8,0,7.936,2.239,9.344,4.671h0.128V34.056H397.694z M392.127,61.126c0-0.704-0.063-1.664-0.256-2.368
		c-0.832-3.52-3.903-6.464-8.127-6.464c-5.824,0-9.28,5.12-9.28,11.903c0,6.271,3.136,11.455,9.151,11.455
		c3.776,0,7.231-2.56,8.256-6.72c0.192-0.768,0.256-1.535,0.256-2.432V61.126z"/>
	<path fill="#FFFFFF" stroke="#231F20" d="M410.24,65.03c0.128,7.615,4.928,10.751,10.623,10.751c4.031,0,6.527-0.704,8.575-1.6
		l1.024,4.031c-1.984,0.896-5.439,1.984-10.367,1.984c-9.536,0-15.231-6.336-15.231-15.679c0-9.344,5.504-16.639,14.527-16.639
		c10.175,0,12.799,8.831,12.799,14.526c0,1.152-0.063,1.984-0.192,2.624H410.24z M426.751,60.998
		c0.063-3.52-1.472-9.087-7.808-9.087c-5.76,0-8.191,5.184-8.64,9.087H426.751z"/>
	<path fill="#FFFFFF" stroke="#231F20" d="M452.735,56.902c0-3.264-0.128-5.823-0.256-8.383h4.928l0.256,5.056h0.191
		c1.729-2.944,4.608-5.695,9.792-5.695c4.159,0,7.359,2.56,8.703,6.207h0.128c0.96-1.792,2.239-3.071,3.52-4.031
		c1.856-1.408,3.84-2.176,6.783-2.176c4.16,0,10.239,2.688,10.239,13.438v18.175h-5.503V62.022c0-6.016-2.24-9.535-6.72-9.535
		c-3.264,0-5.695,2.367-6.72,5.056c-0.256,0.832-0.448,1.792-0.448,2.815v19.135h-5.503V60.934c0-4.928-2.176-8.447-6.464-8.447
		c-3.456,0-6.079,2.815-6.976,5.632c-0.319,0.768-0.448,1.791-0.448,2.751v18.623h-5.503V56.902z"/>
	<path fill="#FFFFFF" stroke="#231F20" d="M534.141,63.75c0,11.455-7.999,16.447-15.423,16.447c-8.319,0-14.847-6.144-14.847-15.935
		c0-10.304,6.848-16.383,15.359-16.383C528.126,47.879,534.141,54.342,534.141,63.75z M509.631,64.07
		c0,6.783,3.84,11.903,9.344,11.903c5.375,0,9.407-5.056,9.407-12.031c0-5.248-2.624-11.839-9.279-11.839
		C512.511,52.103,509.631,58.247,509.631,64.07z"/>
	<path fill="#FFFFFF" stroke="#231F20" d="M569.276,63.75c0,11.455-7.999,16.447-15.423,16.447c-8.319,0-14.847-6.144-14.847-15.935
		c0-10.304,6.848-16.383,15.359-16.383C563.262,47.879,569.276,54.342,569.276,63.75z M544.767,64.07
		c0,6.783,3.84,11.903,9.344,11.903c5.375,0,9.407-5.056,9.407-12.031c0-5.248-2.624-11.839-9.279-11.839
		C547.646,52.103,544.767,58.247,544.767,64.07z"/>
	<path fill="#FFFFFF" stroke="#231F20" d="M603.068,34.056v37.438c0,2.751,0.128,5.887,0.256,7.999h-4.991l-0.256-5.376h-0.192
		c-1.664,3.456-5.375,6.08-10.431,6.08c-7.487,0-13.312-6.336-13.312-15.743c-0.063-10.303,6.399-16.574,13.887-16.574
		c4.8,0,7.936,2.239,9.344,4.671h0.128V34.056H603.068z M597.501,61.126c0-0.704-0.063-1.664-0.256-2.368
		c-0.832-3.52-3.903-6.464-8.128-6.464c-5.823,0-9.279,5.12-9.279,11.903c0,6.271,3.137,11.455,9.151,11.455
		c3.776,0,7.231-2.56,8.256-6.72c0.192-0.768,0.256-1.535,0.256-2.432V61.126z"/>
	<path fill="#FFFFFF" stroke="#231F20" d="M612.479,58.182c0-3.647-0.064-6.783-0.256-9.663h4.928l0.256,6.144h0.191
		c1.408-4.16,4.864-6.783,8.64-6.783c0.576,0,1.024,0.063,1.536,0.128v5.312c-0.576-0.128-1.152-0.128-1.92-0.128
		c-3.968,0-6.783,2.943-7.552,7.167c-0.128,0.769-0.191,1.729-0.191,2.624v16.511h-5.632V58.182z"/>
	<path fill="#FFFFFF" stroke="#231F20" d="M660.796,63.75c0,11.455-7.999,16.447-15.423,16.447c-8.319,0-14.847-6.144-14.847-15.935
		c0-10.304,6.848-16.383,15.359-16.383C654.781,47.879,660.796,54.342,660.796,63.75z M636.286,64.07
		c0,6.783,3.84,11.903,9.344,11.903c5.375,0,9.407-5.056,9.407-12.031c0-5.248-2.624-11.839-9.279-11.839
		C639.166,52.103,636.286,58.247,636.286,64.07z"/>
	<path fill="#FFFFFF" stroke="#231F20" d="M695.932,63.75c0,11.455-7.999,16.447-15.423,16.447c-8.319,0-14.847-6.144-14.847-15.935
		c0-10.304,6.848-16.383,15.359-16.383C689.917,47.879,695.932,54.342,695.932,63.75z M671.422,64.07
		c0,6.783,3.84,11.903,9.344,11.903c5.375,0,9.407-5.056,9.407-12.031c0-5.248-2.624-11.839-9.279-11.839
		C674.302,52.103,671.422,58.247,671.422,64.07z"/>
	<path fill="#FFFFFF" stroke="#231F20" d="M703.038,56.902c0-3.264-0.128-5.823-0.256-8.383h4.928l0.256,5.056h0.191
		c1.729-2.944,4.608-5.695,9.792-5.695c4.159,0,7.359,2.56,8.703,6.207h0.128c0.96-1.792,2.239-3.071,3.52-4.031
		c1.856-1.408,3.84-2.176,6.783-2.176c4.16,0,10.239,2.688,10.239,13.438v18.175h-5.503V62.022c0-6.016-2.24-9.535-6.72-9.535
		c-3.264,0-5.695,2.367-6.72,5.056c-0.256,0.832-0.448,1.792-0.448,2.815v19.135h-5.503V60.934c0-4.928-2.176-8.447-6.464-8.447
		c-3.456,0-6.079,2.815-6.976,5.632c-0.319,0.768-0.448,1.791-0.448,2.751v18.623h-5.503V56.902z"/>
</g>
<g>
	<path fill="#FFFFFF" stroke="#231F20" d="M119.781,766.004l23.87-35.006v-0.191h-21.822v-4.672h29.118v3.392l-23.807,34.878v0.191
		h24.126v4.672h-31.485V766.004z"/>
	<path fill="#FFFFFF" stroke="#231F20" d="M159.589,738.294l4.16,15.743c0.832,3.455,1.664,6.655,2.239,9.854h0.192
		c0.704-3.136,1.728-6.463,2.752-9.791l5.056-15.807h4.735l4.8,15.486c1.152,3.712,2.048,6.976,2.752,10.111h0.191
		c0.513-3.136,1.345-6.399,2.368-10.047l4.416-15.551h5.567l-9.983,30.974h-5.119l-4.736-14.783
		c-1.088-3.455-1.983-6.527-2.751-10.175H176.1c-0.768,3.712-1.728,6.911-2.815,10.239l-4.991,14.719h-5.12l-9.343-30.974H159.589z"
		/>
	<path fill="#FFFFFF" stroke="#231F20" d="M225.955,761.844c0,2.688,0.128,5.312,0.448,7.424h-5.056l-0.448-3.903h-0.191
		c-1.728,2.432-5.056,4.607-9.472,4.607c-6.271,0-9.471-4.416-9.471-8.896c0-7.487,6.655-11.583,18.622-11.52v-0.64
		c0-2.496-0.704-7.167-7.039-7.104c-2.944,0-5.952,0.832-8.128,2.304l-1.279-3.775c2.56-1.6,6.335-2.688,10.239-2.688
		c9.471,0,11.774,6.463,11.774,12.606V761.844z M220.516,753.461c-6.144-0.128-13.119,0.96-13.119,6.976
		c0,3.712,2.433,5.375,5.248,5.375c4.096,0,6.72-2.56,7.615-5.184c0.192-0.64,0.256-1.279,0.256-1.792V753.461z"/>
	<path fill="#FFFFFF" stroke="#231F20" d="M256.803,761.844c0,2.688,0.128,5.312,0.448,7.424h-5.056l-0.448-3.903h-0.191
		c-1.728,2.432-5.056,4.607-9.472,4.607c-6.271,0-9.471-4.416-9.471-8.896c0-7.487,6.655-11.583,18.622-11.52v-0.64
		c0-2.496-0.704-7.167-7.039-7.104c-2.944,0-5.952,0.832-8.128,2.304l-1.279-3.775c2.56-1.6,6.335-2.688,10.239-2.688
		c9.471,0,11.774,6.463,11.774,12.606V761.844z M251.363,753.461c-6.144-0.128-13.119,0.96-13.119,6.976
		c0,3.712,2.433,5.375,5.248,5.375c4.096,0,6.72-2.56,7.615-5.184c0.192-0.64,0.256-1.279,0.256-1.792V753.461z"/>
	<path fill="#FFFFFF" stroke="#231F20" d="M272.164,729.591c0,1.92-1.344,3.455-3.584,3.455c-2.048,0-3.392-1.535-3.392-3.455
		s1.408-3.521,3.52-3.521C270.756,726.07,272.164,727.606,272.164,729.591z M265.893,769.268v-30.974h5.632v30.974H265.893z"/>
	<path fill="#FFFFFF" stroke="#231F20" d="M322.465,753.524c0,11.455-7.999,16.447-15.423,16.447
		c-8.319,0-14.847-6.144-14.847-15.935c0-10.304,6.848-16.383,15.359-16.383C316.45,737.654,322.465,744.117,322.465,753.524z
		 M297.955,753.845c0,6.783,3.84,11.903,9.344,11.903c5.375,0,9.407-5.056,9.407-12.031c0-5.248-2.624-11.839-9.279-11.839
		C300.835,741.878,297.955,748.021,297.955,753.845z"/>
	<path fill="#FFFFFF" stroke="#231F20" d="M329.571,746.677c0-3.264-0.128-5.823-0.256-8.383h4.928l0.256,5.056h0.191
		c1.729-2.944,4.608-5.695,9.792-5.695c4.159,0,7.359,2.56,8.703,6.207h0.128c0.96-1.792,2.239-3.071,3.52-4.031
		c1.856-1.408,3.84-2.176,6.783-2.176c4.16,0,10.239,2.688,10.239,13.438v18.175h-5.503v-17.471c0-6.016-2.24-9.535-6.72-9.535
		c-3.264,0-5.695,2.367-6.72,5.056c-0.256,0.832-0.448,1.792-0.448,2.815v19.135h-5.503v-18.559c0-4.928-2.176-8.447-6.464-8.447
		c-3.456,0-6.079,2.815-6.976,5.632c-0.319,0.768-0.448,1.791-0.448,2.751v18.623h-5.503V746.677z"/>
	<path fill="#FFFFFF" stroke="#231F20" d="M403.298,730.87v7.424h8.063v4.287h-8.063v16.703c0,3.84,1.088,6.016,4.224,6.016
		c1.536,0,2.432-0.128,3.264-0.384l0.256,4.287c-1.088,0.385-2.815,0.769-4.991,0.769c-2.624,0-4.735-0.896-6.08-2.368
		c-1.535-1.728-2.176-4.479-2.176-8.127v-16.896h-4.799v-4.287h4.799v-5.76L403.298,730.87z"/>
	<path fill="#FFFFFF" stroke="#231F20" d="M420.45,754.805c0.128,7.615,4.928,10.751,10.623,10.751c4.031,0,6.527-0.704,8.575-1.6
		l1.024,4.031c-1.984,0.896-5.439,1.984-10.367,1.984c-9.536,0-15.231-6.336-15.231-15.679c0-9.344,5.504-16.639,14.527-16.639
		c10.175,0,12.799,8.831,12.799,14.526c0,1.152-0.064,1.984-0.192,2.624H420.45z M436.961,750.772
		c0.063-3.52-1.472-9.087-7.808-9.087c-5.76,0-8.191,5.184-8.64,9.087H436.961z"/>
	<path fill="#FFFFFF" stroke="#231F20" d="M484.703,761.844c0,2.688,0.128,5.312,0.448,7.424h-5.056l-0.448-3.903h-0.191
		c-1.728,2.432-5.056,4.607-9.472,4.607c-6.271,0-9.471-4.416-9.471-8.896c0-7.487,6.655-11.583,18.622-11.52v-0.64
		c0-2.496-0.704-7.167-7.039-7.104c-2.944,0-5.952,0.832-8.128,2.304l-1.279-3.775c2.56-1.6,6.335-2.688,10.239-2.688
		c9.471,0,11.774,6.463,11.774,12.606V761.844z M479.264,753.461c-6.144-0.128-13.119,0.96-13.119,6.976
		c0,3.712,2.433,5.375,5.248,5.375c4.096,0,6.72-2.56,7.615-5.184c0.192-0.64,0.256-1.279,0.256-1.792V753.461z"/>
	<path fill="#FFFFFF" stroke="#231F20" d="M515.871,768.18c-1.472,0.704-4.735,1.792-8.896,1.792
		c-9.343,0-15.423-6.336-15.423-15.807c0-9.536,6.527-16.511,16.639-16.511c3.328,0,6.271,0.831,7.808,1.663l-1.28,4.288
		c-1.344-0.704-3.455-1.472-6.527-1.472c-7.104,0-10.943,5.312-10.943,11.711c0,7.167,4.608,11.583,10.752,11.583
		c3.199,0,5.312-0.768,6.911-1.472L515.871,768.18z"/>
	<path fill="#FFFFFF" stroke="#231F20" d="M530.079,730.87v7.424h8.063v4.287h-8.063v16.703c0,3.84,1.088,6.016,4.224,6.016
		c1.536,0,2.432-0.128,3.264-0.384l0.256,4.287c-1.088,0.385-2.815,0.769-4.991,0.769c-2.624,0-4.735-0.896-6.08-2.368
		c-1.535-1.728-2.176-4.479-2.176-8.127v-16.896h-4.799v-4.287h4.799v-5.76L530.079,730.87z"/>
	<path fill="#FFFFFF" stroke="#231F20" d="M550.751,729.591c0,1.92-1.344,3.455-3.584,3.455c-2.048,0-3.392-1.535-3.392-3.455
		s1.408-3.521,3.52-3.521C549.343,726.07,550.751,727.606,550.751,729.591z M544.479,769.268v-30.974h5.632v30.974H544.479z"/>
	<path fill="#FFFFFF" stroke="#231F20" d="M561.631,738.294l6.079,17.343c1.024,2.88,1.856,5.439,2.496,7.999h0.192
		c0.703-2.56,1.6-5.119,2.623-7.999l6.016-17.343h5.888l-12.159,30.974h-5.375l-11.775-30.974H561.631z"/>
	<path fill="#FFFFFF" stroke="#231F20" d="M592.734,754.805c0.128,7.615,4.928,10.751,10.623,10.751c4.031,0,6.527-0.704,8.575-1.6
		l1.024,4.031c-1.984,0.896-5.439,1.984-10.367,1.984c-9.536,0-15.231-6.336-15.231-15.679c0-9.344,5.504-16.639,14.527-16.639
		c10.175,0,12.799,8.831,12.799,14.526c0,1.152-0.063,1.984-0.192,2.624H592.734z M609.245,750.772
		c0.063-3.52-1.472-9.087-7.808-9.087c-5.76,0-8.191,5.184-8.64,9.087H609.245z"/>
	<path fill="#FFFFFF" stroke="#231F20" d="M621.662,747.957c0-3.647-0.064-6.783-0.256-9.663h4.928l0.256,6.144h0.191
		c1.408-4.16,4.864-6.783,8.64-6.783c0.576,0,1.024,0.063,1.536,0.128v5.312c-0.576-0.128-1.152-0.128-1.92-0.128
		c-3.968,0-6.783,2.943-7.552,7.167c-0.128,0.769-0.191,1.729-0.191,2.624v16.511h-5.632V747.957z"/>
	<path fill="#FFFFFF" stroke="#231F20" d="M645.086,754.805c0.128,7.615,4.928,10.751,10.623,10.751c4.031,0,6.527-0.704,8.575-1.6
		l1.024,4.031c-1.984,0.896-5.439,1.984-10.367,1.984c-9.536,0-15.231-6.336-15.231-15.679c0-9.344,5.504-16.639,14.527-16.639
		c10.175,0,12.799,8.831,12.799,14.526c0,1.152-0.063,1.984-0.192,2.624H645.086z M661.597,750.772
		c0.063-3.52-1.472-9.087-7.808-9.087c-5.76,0-8.191,5.184-8.64,9.087H661.597z"/>
	<path fill="#FFFFFF" stroke="#231F20" d="M674.014,746.677c0-3.264-0.064-5.823-0.256-8.383h4.991l0.32,5.119h0.128
		c1.536-2.88,5.119-5.759,10.239-5.759c4.287,0,10.943,2.56,10.943,13.183v18.431h-5.632v-17.854c0-4.992-1.855-9.151-7.168-9.151
		c-3.647,0-6.527,2.624-7.551,5.76c-0.256,0.703-0.384,1.663-0.384,2.623v18.623h-5.632V746.677z"/>
</g>
<g>
	<path fill="#FFFFFF" stroke="#231F20" d="M787.529,805.051H26.989c-9.501,0-17.23-7.688-17.23-17.142V27.193
		c0-9.452,7.729-17.143,17.23-17.143h760.54c9.501,0,17.23,7.69,17.23,17.143v760.716
		C804.76,797.362,797.03,805.051,787.529,805.051z M26.989,14.949c-6.787,0-12.308,5.493-12.308,12.244v760.716
		c0,6.751,5.521,12.244,12.308,12.244h760.54c6.787,0,12.308-5.493,12.308-12.244V27.193c0-6.751-5.521-12.244-12.308-12.244H26.989
		z"/>
</g>
</svg>
