<?xml version="1.0" encoding="utf-8"?>
<!-- Generator: Adobe Illustrator 16.0.0, SVG Export Plug-In . SVG Version: 6.00 Build 0)  -->
<!DOCTYPE svg PUBLIC "-//W3C//DTD SVG 1.1//EN" "http://www.w3.org/Graphics/SVG/1.1/DTD/svg11.dtd">
<svg version="1.1" id="main" xmlns="http://www.w3.org/2000/svg" xmlns:xlink="http://www.w3.org/1999/xlink" x="0px" y="0px"
	 width="320px" height="240px" viewBox="0 0 320 240" enable-background="new 0 0 320 240" xml:space="preserve">
<g>
	<path fill="#FFFFFF" stroke="#000000" stroke-width="0.1" d="M115.18,218.03c0,0.299-0.108,0.535-0.325,0.711
		s-0.473,0.263-0.767,0.263c-0.624,0-1.153-0.602-1.586-1.805c-0.243-0.819-0.485-1.639-0.729-2.459h-8.58
		c-0.226,0.82-0.459,1.64-0.702,2.459c-0.45,1.203-0.987,1.805-1.611,1.805c-0.295,0-0.551-0.087-0.768-0.26
		c-0.217-0.174-0.325-0.408-0.325-0.703c0-0.226,0.104-0.616,0.312-1.172l5.746-15.493c0.347-0.936,0.893-1.403,1.639-1.403
		c0.745,0,1.29,0.468,1.638,1.403l5.746,15.471C115.075,217.407,115.18,217.803,115.18,218.03z M111.077,212.765l-3.563-10.116
		h-0.061l-3.562,10.116H111.077z"/>
	<path fill="#FFFFFF" stroke="#000000" stroke-width="0.1" d="M122.745,199.534c0,0.522-0.229,0.813-0.688,0.875
		c-0.46,0.061-0.914,0.108-1.365,0.144c-0.468,0.087-0.702,0.383-0.702,0.888v3.42c0.086,0,0.249,0,0.489,0c0.223,0,0.403,0,0.54,0
		c1.013,0,1.519,0.338,1.519,1.014s-0.506,1.015-1.519,1.015c-0.137,0-0.317,0-0.54,0c-0.24,0-0.403,0-0.489,0v10.896
		c0,0.812-0.386,1.219-1.156,1.219c-0.771,0-1.157-0.408-1.157-1.225v-10.948c-0.746,0-1.196-0.017-1.353-0.052
		c-0.485-0.122-0.728-0.435-0.728-0.938s0.242-0.816,0.728-0.938c0.156-0.034,0.606-0.052,1.353-0.052c0-0.296,0-0.713,0-1.251
		c0-0.521,0-0.896,0-1.121c0-1.373,0.199-2.337,0.598-2.894c0.555-0.713,1.612-1.068,3.172-1.068c0.329,0,0.628,0.091,0.897,0.273
		C122.611,198.974,122.745,199.222,122.745,199.534z"/>
	<path fill="#FFFFFF" stroke="#000000" stroke-width="0.1" d="M142.22,217.78c0,0.816-0.382,1.224-1.145,1.224
		c-0.867,0-1.3-0.833-1.3-2.501c0-0.469,0.048-1.307,0.143-2.515c0.096-1.207,0.144-2.114,0.144-2.723
		c0-3.057-1.032-4.585-3.095-4.585c-2.045,0-3.067,1.528-3.067,4.585c0,0.608,0.047,1.512,0.143,2.71s0.144,2.041,0.144,2.527
		c0,1.668-0.434,2.501-1.301,2.501c-0.866,0-1.3-0.833-1.3-2.501c0-0.469,0.048-1.307,0.144-2.515
		c0.095-1.207,0.143-2.114,0.143-2.723c0-3.057-1.031-4.585-3.094-4.585c-2.046,0-3.068,1.528-3.068,4.585
		c0,0.608,0.048,1.512,0.144,2.71c0.095,1.198,0.143,2.041,0.143,2.527c0,1.668-0.434,2.501-1.3,2.501
		c-0.763,0-1.145-0.407-1.145-1.224v-11.852c0-0.816,0.382-1.225,1.145-1.225s1.144,0.546,1.144,1.638l0.053,0.053
		c0.866-1.127,2.027-1.69,3.483-1.69c1.612,0,2.877,0.789,3.796,2.366c1.075-1.577,2.487-2.366,4.238-2.366
		c1.508,0,2.687,0.504,3.536,1.511c0.849,1.008,1.274,2.275,1.274,3.803V217.78z"/>
	<path fill="#FFFFFF" stroke="#000000" stroke-width="0.1" d="M155.636,211.49c0,0.832-0.424,1.248-1.271,1.248h-8.583
		c0,1.248,0.371,2.267,1.115,3.055c0.743,0.789,1.729,1.184,2.956,1.184c0.829,0,1.599-0.165,2.308-0.494
		c0.396-0.173,0.881-0.468,1.452-0.884c0.432-0.329,0.734-0.494,0.907-0.494c0.553,0,0.83,0.34,0.83,1.021
		c0,0.768-0.764,1.466-2.288,2.094c-1.266,0.523-2.35,0.785-3.25,0.785c-2.028,0-3.614-0.703-4.758-2.109
		c-1.058-1.303-1.587-2.986-1.587-5.054c0-1.944,0.547-3.594,1.639-4.948c1.161-1.459,2.687-2.188,4.576-2.188
		c1.768,0,3.224,0.702,4.367,2.106C155.106,208.128,155.636,209.688,155.636,211.49z M153.321,210.996
		c0-1.161-0.31-2.148-0.93-2.964c-0.688-0.901-1.593-1.352-2.711-1.352c-1.24,0-2.204,0.416-2.893,1.248
		c-0.62,0.763-0.955,1.785-1.007,3.067H153.321z"/>
	<path fill="#FFFFFF" stroke="#000000" stroke-width="0.1" d="M163.148,205.855c0,0.504-0.239,0.816-0.719,0.938
		c-0.154,0.035-0.599,0.052-1.335,0.052v10.936c0,0.816-0.386,1.224-1.157,1.224s-1.157-0.407-1.157-1.224v-10.936
		c-0.735,0-1.181-0.017-1.335-0.052c-0.479-0.121-0.719-0.434-0.719-0.938c0-0.503,0.24-0.815,0.719-0.938
		c0.154-0.034,0.6-0.052,1.335-0.052c0-0.104-0.021-0.395-0.064-0.872c-0.044-0.478-0.065-0.872-0.065-1.185
		c0-1.476,0.425-2.213,1.274-2.213c0.849,0,1.273,0.737,1.273,2.213c0,0.312-0.017,0.707-0.052,1.185s-0.052,0.769-0.052,0.872
		c0.736,0,1.181,0.018,1.335,0.052C162.909,205.04,163.148,205.353,163.148,205.855z"/>
	<path fill="#FFFFFF" stroke="#000000" stroke-width="0.1" d="M168.062,201.376c0,0.399-0.14,0.737-0.416,1.015
		c-0.277,0.277-0.607,0.416-0.988,0.416c-0.398,0-0.732-0.139-1.001-0.416s-0.403-0.615-0.403-1.015c0-0.381,0.135-0.71,0.403-0.987
		s0.603-0.416,1.001-0.416c0.381,0,0.711,0.139,0.988,0.416C167.923,200.666,168.062,200.995,168.062,201.376z M167.828,217.78
		c0,0.816-0.386,1.224-1.157,1.224s-1.156-0.407-1.156-1.224v-11.852c0-0.816,0.385-1.225,1.156-1.225s1.157,0.408,1.157,1.225
		V217.78z"/>
	<path fill="#FFFFFF" stroke="#000000" stroke-width="0.1" d="M181.192,217.78c0,0.816-0.382,1.224-1.145,1.224
		c-0.85,0-1.273-0.842-1.273-2.527c0-0.451,0.039-1.241,0.117-2.37c0.077-1.129,0.116-1.98,0.116-2.554
		c0-1.511-0.208-2.648-0.624-3.413c-0.52-0.973-1.412-1.459-2.678-1.459s-2.158,0.486-2.678,1.459
		c-0.416,0.765-0.624,1.902-0.624,3.413c0,0.573,0.039,1.425,0.117,2.554s0.117,1.919,0.117,2.37c0,1.686-0.426,2.527-1.274,2.527
		c-0.763,0-1.145-0.407-1.145-1.224v-11.852c0-0.816,0.382-1.225,1.145-1.225c0.503,0,0.832,0.191,0.988,0.572
		c0.104,0.226,0.155,0.624,0.155,1.196l0.053,0.052c0.953-1.213,2.227-1.82,3.821-1.82c1.509,0,2.687,0.499,3.536,1.498
		c0.85,0.998,1.274,2.271,1.274,3.815V217.78z"/>
	<path fill="#FFFFFF" stroke="#000000" stroke-width="0.1" d="M194.66,217.852c0,1.979-0.546,3.566-1.639,4.765
		c-1.127,1.267-2.66,1.9-4.602,1.9c-0.884,0-1.924-0.219-3.12-0.655c-1.456-0.541-2.184-1.179-2.184-1.911
		c0-0.716,0.319-1.074,0.959-1.074c0.207,0,0.79,0.269,1.75,0.807c0.959,0.537,1.88,0.806,2.762,0.806
		c1.555,0,2.618-0.581,3.188-1.742c0.381-0.797,0.57-2.054,0.57-3.77c-0.765,1.352-1.938,2.027-3.52,2.027
		c-1.877,0-3.389-0.746-4.536-2.239c-1.043-1.354-1.564-2.996-1.564-4.924c0-1.927,0.521-3.568,1.564-4.923
		c1.147-1.476,2.659-2.214,4.536-2.214c0.66,0,1.316,0.16,1.969,0.481c0.651,0.32,1.168,0.74,1.551,1.261
		c0-0.589,0.053-0.996,0.158-1.222c0.175-0.347,0.534-0.521,1.078-0.521c0.315,0,0.574,0.108,0.775,0.325
		c0.201,0.218,0.303,0.482,0.303,0.795V217.852z M192.605,211.828c0-1.369-0.285-2.521-0.854-3.458
		c-0.674-1.126-1.65-1.689-2.928-1.689c-1.278,0-2.255,0.563-2.928,1.689c-0.571,0.937-0.855,2.089-0.855,3.458
		s0.284,2.522,0.855,3.458c0.673,1.127,1.649,1.69,2.928,1.69c1.277,0,2.254-0.563,2.928-1.69
		C192.32,214.351,192.605,213.197,192.605,211.828z"/>
	<path fill="#FFFFFF" stroke="#000000" stroke-width="0.1" d="M208.311,211.49c0,0.832-0.424,1.248-1.271,1.248h-8.583
		c0,1.248,0.371,2.267,1.115,3.055c0.743,0.789,1.729,1.184,2.956,1.184c0.829,0,1.599-0.165,2.308-0.494
		c0.396-0.173,0.881-0.468,1.452-0.884c0.432-0.329,0.734-0.494,0.907-0.494c0.553,0,0.83,0.34,0.83,1.021
		c0,0.768-0.764,1.466-2.288,2.094c-1.266,0.523-2.35,0.785-3.25,0.785c-2.028,0-3.614-0.703-4.758-2.109
		c-1.058-1.303-1.587-2.986-1.587-5.054c0-1.944,0.547-3.594,1.639-4.948c1.161-1.459,2.687-2.188,4.576-2.188
		c1.768,0,3.224,0.702,4.367,2.106C207.781,208.128,208.311,209.688,208.311,211.49z M205.996,210.996
		c0-1.161-0.31-2.148-0.93-2.964c-0.688-0.901-1.593-1.352-2.711-1.352c-1.24,0-2.204,0.416-2.893,1.248
		c-0.62,0.763-0.955,1.785-1.007,3.067H205.996z"/>
	<path fill="#FFFFFF" stroke="#000000" stroke-width="0.1" d="M220.556,217.78c0,0.816-0.382,1.224-1.145,1.224
		c-0.85,0-1.273-0.842-1.273-2.527c0-0.451,0.039-1.241,0.117-2.37c0.077-1.129,0.116-1.98,0.116-2.554
		c0-1.511-0.208-2.648-0.624-3.413c-0.52-0.973-1.412-1.459-2.678-1.459s-2.158,0.486-2.678,1.459
		c-0.416,0.765-0.624,1.902-0.624,3.413c0,0.573,0.039,1.425,0.117,2.554s0.117,1.919,0.117,2.37c0,1.686-0.426,2.527-1.274,2.527
		c-0.763,0-1.145-0.407-1.145-1.224v-11.852c0-0.816,0.382-1.225,1.145-1.225c0.503,0,0.832,0.191,0.988,0.572
		c0.104,0.226,0.155,0.624,0.155,1.196l0.053,0.052c0.953-1.213,2.227-1.82,3.821-1.82c1.509,0,2.687,0.499,3.536,1.498
		c0.85,0.998,1.274,2.271,1.274,3.815V217.78z"/>
</g>
<polyline opacity="0.8" fill="#69BD45" stroke="#FFFFFF" stroke-width="0.75" points="168.708,164.581 158.984,151.103 
	216.526,151.103 216.526,92.088 230,101.472 230,164.581 166.961,164.581 "/>
<polygon opacity="0.8" fill="#69BD45" stroke="#FFFFFF" stroke-width="0.75" points="114.88,108.467 101.411,99.013 101.411,35.983 
	164.44,35.983 172.427,49.444 114.88,49.444 "/>
<polygon opacity="0.8" fill="#ED1F24" stroke="#FFFFFF" stroke-width="0.75" points="225.853,41.078 225.853,84.438 215.73,74.312 
	140.487,149.644 152.347,160.558 105.922,160.558 105.922,116.542 116.048,126.667 191.295,51.336 181.036,41.078 "/>
<polyline opacity="0.8" fill="#3953A4" stroke="#FFFFFF" stroke-width="0.7108" points="167.496,146.515 160.506,136.824 
	201.878,136.824 201.878,94.391 211.566,101.138 211.566,146.515 166.24,146.515 "/>
<polygon opacity="0.8" fill="#3953A4" stroke="#FFFFFF" stroke-width="0.7108" points="128.793,106.167 119.108,99.37 
	119.108,54.05 164.428,54.05 170.17,63.729 128.793,63.729 "/>
</svg>
