<?xml version="1.0" encoding="utf-8"?>
<!-- Generator: Adobe Illustrator 16.0.0, SVG Export Plug-In . SVG Version: 6.00 Build 0)  -->
<!DOCTYPE svg PUBLIC "-//W3C//DTD SVG 1.1//EN" "http://www.w3.org/Graphics/SVG/1.1/DTD/svg11.dtd">
<svg version="1.1" id="main" xmlns="http://www.w3.org/2000/svg" xmlns:xlink="http://www.w3.org/1999/xlink" x="0px" y="0px"
	 width="320px" height="240px" viewBox="0 0 320 240" enable-background="new 0 0 320 240" xml:space="preserve">
<g>
	<path fill="#FFFFFF" stroke="#000000" d="M302.77,240H17.23C7.729,240,0,232.312,0,222.858V17.143C0,7.69,7.729,0,17.23,0H302.77
		C312.271,0,320,7.69,320,17.143v205.716C320,232.312,312.271,240,302.77,240z M17.23,4.898c-6.787,0-12.308,5.493-12.308,12.244
		v205.716c0,6.751,5.521,12.244,12.308,12.244H302.77c6.787,0,12.308-5.493,12.308-12.244V17.143
		c0-6.751-5.521-12.244-12.308-12.244H17.23z"/>
</g>
</svg>
