<?xml version="1.0" encoding="utf-8"?>
<!-- Generator: Adobe Illustrator 16.0.0, SVG Export Plug-In . SVG Version: 6.00 Build 0)  -->
<!DOCTYPE svg PUBLIC "-//W3C//DTD SVG 1.1//EN" "http://www.w3.org/Graphics/SVG/1.1/DTD/svg11.dtd">
<svg version="1.1" id="main" xmlns="http://www.w3.org/2000/svg" xmlns:xlink="http://www.w3.org/1999/xlink" x="0px" y="0px"
	 width="320px" height="240px" viewBox="0 0 320 240" enable-background="new 0 0 320 240" xml:space="preserve">
<polyline opacity="0.8" fill="#69BD45" stroke="#FFFFFF" stroke-width="0.75" points="224.885,104.43 211.406,114.152 
	211.406,56.611 152.393,56.611 161.775,43.137 224.885,43.137 224.885,106.176 "/>
<polygon opacity="0.8" fill="#69BD45" stroke="#FFFFFF" stroke-width="0.75" points="168.771,158.258 159.316,171.727 
	96.287,171.727 96.287,108.697 109.748,100.711 109.748,158.258 "/>
<polygon opacity="0.8" fill="#ED1F24" stroke="#FFFFFF" stroke-width="0.75" points="101.381,47.285 144.742,47.285 134.615,57.406 
	209.947,132.65 220.861,120.791 220.861,167.215 176.846,167.215 186.971,157.09 111.641,81.842 101.381,92.102 "/>
<polyline opacity="0.8" fill="#3953A4" stroke="#FFFFFF" stroke-width="0.7108" points="206.818,105.641 197.127,112.631 
	197.127,71.26 154.695,71.26 161.441,61.57 206.818,61.57 206.818,106.896 "/>
<polygon opacity="0.8" fill="#3953A4" stroke="#FFFFFF" stroke-width="0.7108" points="166.471,144.344 159.674,154.029 
	114.354,154.029 114.354,108.709 124.033,102.967 124.033,144.344 "/>
<g>
	<path fill="#FFFFFF" stroke="#000000" stroke-width="0.1" d="M136.535,224.213c-1.015,0.391-3.042,0.962-5.408,0.962
		c-2.652,0-4.836-0.676-6.553-2.313c-1.508-1.456-2.443-3.797-2.443-6.526c0-5.227,3.613-9.049,9.49-9.049
		c2.027,0,3.64,0.442,4.394,0.807l-0.571,1.846c-0.937-0.442-2.106-0.754-3.875-0.754c-4.264,0-7.046,2.652-7.046,7.046
		c0,4.446,2.652,7.072,6.761,7.072c1.481,0,2.496-0.208,3.016-0.468v-5.226h-3.536v-1.82h5.772V224.213z"/>
	<path fill="#FFFFFF" stroke="#000000" stroke-width="0.1" d="M139.889,216.335c0-1.482-0.026-2.756-0.104-3.927h2.002l0.104,2.496
		h0.078c0.571-1.689,1.976-2.756,3.51-2.756c0.234,0,0.416,0.026,0.624,0.053v2.157c-0.234-0.052-0.468-0.052-0.78-0.052
		c-1.611,0-2.756,1.196-3.068,2.912c-0.052,0.312-0.077,0.702-0.077,1.066v6.708h-2.288V216.335z"/>
	<path fill="#FFFFFF" stroke="#000000" stroke-width="0.1" d="M159.519,218.597c0,4.654-3.25,6.683-6.266,6.683
		c-3.38,0-6.032-2.496-6.032-6.475c0-4.186,2.782-6.656,6.24-6.656C157.075,212.148,159.519,214.774,159.519,218.597z
		 M149.561,218.727c0,2.757,1.561,4.837,3.796,4.837c2.185,0,3.822-2.055,3.822-4.889c0-2.132-1.065-4.81-3.771-4.81
		C150.73,213.865,149.561,216.361,149.561,218.727z"/>
	<path fill="#FFFFFF" stroke="#000000" stroke-width="0.1" d="M173.792,218.597c0,4.654-3.25,6.683-6.266,6.683
		c-3.38,0-6.032-2.496-6.032-6.475c0-4.186,2.782-6.656,6.24-6.656C171.349,212.148,173.792,214.774,173.792,218.597z
		 M163.834,218.727c0,2.757,1.561,4.837,3.796,4.837c2.185,0,3.822-2.055,3.822-4.889c0-2.132-1.065-4.81-3.771-4.81
		C165.004,213.865,163.834,216.361,163.834,218.727z"/>
	<path fill="#FFFFFF" stroke="#000000" stroke-width="0.1" d="M179.434,209.393v3.016h3.276v1.742h-3.276v6.787
		c0,1.56,0.441,2.443,1.716,2.443c0.624,0,0.988-0.052,1.326-0.156l0.104,1.742c-0.442,0.156-1.145,0.312-2.028,0.312
		c-1.066,0-1.925-0.364-2.471-0.962c-0.624-0.702-0.884-1.82-0.884-3.303v-6.864h-1.95v-1.742h1.95v-2.34L179.434,209.393z"/>
	<path fill="#FFFFFF" stroke="#000000" stroke-width="0.1" d="M186.4,219.117c0.053,3.094,2.002,4.368,4.316,4.368
		c1.638,0,2.652-0.286,3.484-0.65l0.416,1.638c-0.807,0.364-2.21,0.807-4.213,0.807c-3.874,0-6.188-2.574-6.188-6.37
		s2.236-6.761,5.902-6.761c4.134,0,5.2,3.588,5.2,5.902c0,0.468-0.026,0.807-0.078,1.066H186.4z M193.109,217.479
		c0.025-1.43-0.599-3.691-3.173-3.691c-2.34,0-3.328,2.105-3.51,3.691H193.109z"/>
</g>
</svg>
