<?xml version="1.0" encoding="utf-8"?>
<!-- Generator: Adobe Illustrator 16.0.0, SVG Export Plug-In . SVG Version: 6.00 Build 0)  -->
<!DOCTYPE svg PUBLIC "-//W3C//DTD SVG 1.1//EN" "http://www.w3.org/Graphics/SVG/1.1/DTD/svg11.dtd">
<svg version="1.1" id="main" xmlns="http://www.w3.org/2000/svg" xmlns:xlink="http://www.w3.org/1999/xlink" x="0px" y="0px"
	 width="320px" height="240px" viewBox="0 0 320 240" enable-background="new 0 0 320 240" xml:space="preserve">
<g>
	<path opacity="0.8" fill="#3953A4" stroke="#FFFFFF" stroke-width="0.75" d="M200.55,78.254c0,21.816-17.685,39.509-39.505,39.509
		c-21.816,0-39.505-17.693-39.505-39.509c0-21.821,17.689-39.508,39.505-39.508C182.865,38.746,200.55,56.433,200.55,78.254z"/>
	<path opacity="0.8" fill="#ED1F24" stroke="#FFFFFF" stroke-width="0.75" d="M174.168,121.333
		c0,21.823-17.693,39.509-39.512,39.509c-21.822,0-39.505-17.686-39.505-39.509c0-21.821,17.683-39.508,39.505-39.508
		C156.475,81.825,174.168,99.512,174.168,121.333z"/>
	<path opacity="0.8" fill="#69BD45" stroke="#FFFFFF" stroke-width="0.75" d="M228.654,121.333
		c0,21.823-17.684,39.509-39.506,39.509c-21.818,0-39.507-17.686-39.507-39.509c0-21.821,17.689-39.508,39.507-39.508
		C210.971,81.825,228.654,99.512,228.654,121.333z"/>
</g>
<g>
	<path fill="#FFFFFF" stroke="#000000" stroke-width="0.075" d="M105.508,216.232c0,0.31-0.113,0.556-0.337,0.738
		c-0.225,0.183-0.491,0.273-0.796,0.273c-0.648,0-1.198-0.625-1.647-1.874c-0.252-0.852-0.504-1.702-0.756-2.555h-8.91
		c-0.234,0.853-0.478,1.703-0.729,2.555c-0.468,1.249-1.026,1.874-1.674,1.874c-0.306,0-0.572-0.09-0.797-0.271
		c-0.225-0.18-0.337-0.423-0.337-0.73c0-0.234,0.108-0.639,0.325-1.216l5.967-16.089c0.36-0.973,0.927-1.458,1.701-1.458
		c0.773,0,1.341,0.485,1.701,1.458l5.967,16.064C105.399,215.586,105.508,215.996,105.508,216.232z M101.248,210.765l-3.7-10.506
		h-0.062l-3.701,10.506H101.248z"/>
	<path fill="#FFFFFF" stroke="#000000" stroke-width="0.075" d="M116.659,204.203c0,0.27-0.095,0.509-0.282,0.716
		c-0.188,0.207-0.417,0.311-0.687,0.311c-0.233,0-0.642-0.131-1.225-0.392s-1.135-0.392-1.654-0.392
		c-1.328,0-2.368,0.576-3.122,1.729c-0.646,1.008-0.969,2.214-0.969,3.617c0,1.404,0.323,2.61,0.969,3.618
		c0.754,1.151,1.794,1.729,3.122,1.729c0.573,0,1.152-0.136,1.735-0.405c0.583-0.271,0.955-0.405,1.117-0.405
		c0.609,0,0.915,0.337,0.915,1.008c0,0.673-0.495,1.182-1.485,1.526c-0.72,0.254-1.484,0.382-2.295,0.382
		c-2.034,0-3.645-0.749-4.833-2.245c-1.098-1.37-1.646-3.102-1.646-5.193s0.549-3.823,1.646-5.193
		c1.188-1.479,2.799-2.218,4.833-2.218c0.846,0,1.62,0.107,2.322,0.323C116.146,203.042,116.659,203.538,116.659,204.203z"/>
	<path fill="#FFFFFF" stroke="#000000" stroke-width="0.075" d="M129.672,215.974c0,0.848-0.396,1.271-1.188,1.271
		c-0.882,0-1.323-0.874-1.323-2.624c0-0.47,0.041-1.29,0.122-2.463c0.08-1.172,0.121-2.056,0.121-2.652
		c0-1.568-0.216-2.749-0.647-3.543c-0.541-1.01-1.468-1.516-2.781-1.516c-1.315,0-2.241,0.506-2.781,1.516
		c-0.432,0.794-0.648,1.975-0.648,3.543c0,0.597,0.041,1.48,0.122,2.652c0.08,1.173,0.121,1.993,0.121,2.463
		c0,1.75-0.441,2.624-1.323,2.624c-0.792,0-1.188-0.424-1.188-1.272v-18.704c0-0.866,0.401-1.3,1.202-1.3s1.201,0.434,1.201,1.301
		v7.016c0.993-1.26,2.32-1.89,3.981-1.89c1.571,0,2.798,0.522,3.683,1.568s1.327,2.363,1.327,3.949V215.974z"/>
	<path fill="#FFFFFF" stroke="#000000" stroke-width="0.075" d="M137.827,203.59c0,0.522-0.249,0.847-0.747,0.974
		c-0.16,0.036-0.622,0.054-1.387,0.054v11.356c0,0.848-0.4,1.271-1.201,1.271s-1.202-0.423-1.202-1.271v-11.356
		c-0.764,0-1.227-0.018-1.386-0.054c-0.498-0.127-0.747-0.451-0.747-0.974s0.249-0.847,0.747-0.974
		c0.159-0.036,0.622-0.054,1.386-0.054c0-0.108-0.023-0.41-0.067-0.905c-0.044-0.496-0.067-0.906-0.067-1.23
		c0-1.533,0.441-2.299,1.323-2.299s1.323,0.766,1.323,2.299c0,0.324-0.018,0.734-0.054,1.23c-0.037,0.495-0.055,0.797-0.055,0.905
		c0.765,0,1.227,0.018,1.387,0.054C137.578,202.743,137.827,203.067,137.827,203.59z"/>
	<path fill="#FFFFFF" stroke="#000000" stroke-width="0.075" d="M151.705,209.44c0,0.865-0.44,1.297-1.32,1.297h-8.914
		c0,1.296,0.386,2.354,1.158,3.172c0.771,0.82,1.795,1.229,3.069,1.229c0.861,0,1.66-0.172,2.396-0.514
		c0.412-0.18,0.916-0.485,1.508-0.918c0.448-0.342,0.764-0.513,0.943-0.513c0.574,0,0.861,0.354,0.861,1.061
		c0,0.797-0.792,1.521-2.376,2.174c-1.314,0.544-2.439,0.815-3.375,0.815c-2.106,0-3.753-0.73-4.941-2.19
		c-1.098-1.354-1.647-3.102-1.647-5.248c0-2.02,0.567-3.732,1.702-5.14c1.206-1.515,2.79-2.271,4.752-2.271
		c1.836,0,3.348,0.729,4.536,2.187C151.155,205.949,151.705,207.569,151.705,209.44z M149.301,208.929
		c0-1.206-0.322-2.232-0.965-3.079c-0.716-0.935-1.654-1.403-2.815-1.403c-1.288,0-2.289,0.432-3.004,1.296
		c-0.644,0.792-0.992,1.854-1.046,3.187H149.301z"/>
	<path fill="#FFFFFF" stroke="#000000" stroke-width="0.075" d="M159.992,203.611c0,0.523-0.394,0.929-1.182,1.217
		c-1.162,0.415-1.904,0.767-2.227,1.056c-0.788,0.667-1.181,1.722-1.181,3.164v6.926c0,0.848-0.401,1.271-1.201,1.271
		c-0.802,0-1.202-0.423-1.202-1.271v-12.309c0-0.847,0.396-1.271,1.188-1.271c0.612,0,0.99,0.296,1.134,0.891
		c0.036,0.162,0.054,0.702,0.054,1.62h0.054c0.306-0.648,0.738-1.215,1.297-1.701c0.646-0.54,1.295-0.81,1.943-0.81
		C159.552,202.395,159.992,202.8,159.992,203.611z"/>
	<path fill="#FFFFFF" stroke="#000000" stroke-width="0.075" d="M172.602,216.047c0,2.054-0.566,3.704-1.701,4.948
		c-1.17,1.315-2.764,1.973-4.779,1.973c-0.918,0-1.998-0.227-3.24-0.68c-1.512-0.562-2.268-1.224-2.268-1.984
		c0-0.744,0.332-1.115,0.996-1.115c0.215,0,0.822,0.278,1.818,0.837c0.996,0.558,1.951,0.837,2.867,0.837
		c1.615,0,2.719-0.604,3.312-1.809c0.396-0.829,0.592-2.133,0.592-3.915c-0.794,1.403-2.013,2.105-3.653,2.105
		c-1.951,0-3.521-0.775-4.713-2.326c-1.082-1.406-1.623-3.11-1.623-5.112s0.541-3.706,1.623-5.112
		c1.191-1.533,2.762-2.299,4.713-2.299c0.686,0,1.365,0.166,2.043,0.499c0.676,0.334,1.213,0.77,1.61,1.31
		c0-0.611,0.056-1.034,0.164-1.269c0.183-0.36,0.556-0.54,1.12-0.54c0.327,0,0.596,0.112,0.805,0.337
		c0.209,0.227,0.314,0.501,0.314,0.825V216.047z M170.469,209.792c0-1.422-0.297-2.619-0.889-3.591
		c-0.699-1.17-1.713-1.755-3.041-1.755c-1.326,0-2.34,0.585-3.039,1.755c-0.594,0.972-0.889,2.169-0.889,3.591
		s0.295,2.619,0.889,3.591c0.699,1.171,1.713,1.756,3.039,1.756c1.328,0,2.342-0.585,3.041-1.756
		C170.172,212.411,170.469,211.214,170.469,209.792z"/>
	<path fill="#FFFFFF" stroke="#000000" stroke-width="0.075" d="M181.322,203.611c0,0.523-0.395,0.929-1.182,1.217
		c-1.162,0.415-1.904,0.767-2.227,1.056c-0.787,0.667-1.182,1.722-1.182,3.164v6.926c0,0.848-0.4,1.271-1.201,1.271
		s-1.202-0.423-1.202-1.271v-12.309c0-0.847,0.396-1.271,1.188-1.271c0.611,0,0.99,0.296,1.135,0.891
		c0.035,0.162,0.053,0.702,0.053,1.62h0.055c0.306-0.648,0.738-1.215,1.296-1.701c0.647-0.54,1.296-0.81,1.944-0.81
		C180.881,202.395,181.322,202.8,181.322,203.611z"/>
	<path fill="#FFFFFF" stroke="#000000" stroke-width="0.075" d="M195.2,209.806c0,2.02-0.54,3.732-1.62,5.14
		c-1.17,1.532-2.736,2.299-4.697,2.299c-1.963,0-3.529-0.767-4.699-2.299c-1.08-1.407-1.619-3.12-1.619-5.14
		c0-2.002,0.539-3.706,1.619-5.112c1.188-1.533,2.754-2.299,4.699-2.299c1.943,0,3.51,0.766,4.697,2.299
		C194.66,206.1,195.2,207.804,195.2,209.806z M192.797,209.792c0-1.422-0.295-2.619-0.885-3.591
		c-0.697-1.17-1.707-1.755-3.029-1.755c-1.324,0-2.334,0.585-3.031,1.755c-0.59,0.972-0.885,2.169-0.885,3.591
		s0.295,2.619,0.885,3.591c0.697,1.171,1.707,1.756,3.031,1.756c1.322,0,2.332-0.585,3.029-1.756
		C192.502,212.411,192.797,211.214,192.797,209.792z"/>
	<path fill="#FFFFFF" stroke="#000000" stroke-width="0.075" d="M207.863,215.974c0,0.848-0.396,1.271-1.188,1.271
		c-0.883,0-1.324-0.874-1.324-2.624c0-0.47,0.041-1.29,0.121-2.463c0.082-1.172,0.122-2.056,0.122-2.652
		c0-1.568-0.216-2.749-0.647-3.543c-0.541-1.01-1.468-1.516-2.781-1.516c-1.314,0-2.24,0.506-2.781,1.516
		c-0.432,0.794-0.648,1.975-0.648,3.543c0,0.597,0.041,1.48,0.123,2.652c0.08,1.173,0.121,1.993,0.121,2.463
		c0,1.75-0.441,2.624-1.324,2.624c-0.792,0-1.188-0.423-1.188-1.271v-12.309c0-0.847,0.396-1.271,1.188-1.271
		c0.523,0,0.865,0.198,1.027,0.594c0.107,0.234,0.161,0.648,0.161,1.242l0.054,0.054c0.99-1.26,2.313-1.89,3.969-1.89
		c1.566,0,2.791,0.519,3.672,1.556c0.883,1.036,1.324,2.357,1.324,3.962V215.974z"/>
	<path fill="#FFFFFF" stroke="#000000" stroke-width="0.075" d="M222.523,215.972c0,0.849-0.4,1.272-1.201,1.272
		c-0.546,0-0.9-0.219-1.064-0.657c-0.092-0.236-0.137-0.692-0.137-1.368c-0.687,1.351-1.967,2.025-3.845,2.025
		c-1.896,0-3.421-0.784-4.575-2.354c-1.047-1.424-1.57-3.119-1.57-5.085s0.523-3.652,1.57-5.059c1.154-1.568,2.68-2.353,4.575-2.353
		c1.661,0,2.941,0.647,3.845,1.943c0-0.126-0.036-0.73-0.107-1.813c-0.072-1.084-0.109-1.987-0.109-2.71
		c0-2.563,0.477-3.847,1.432-3.847c0.791,0,1.188,0.434,1.188,1.3V215.972z M220.391,209.792c0-1.422-0.297-2.619-0.889-3.591
		c-0.699-1.17-1.713-1.755-3.039-1.755c-1.328,0-2.342,0.585-3.041,1.755c-0.592,0.972-0.889,2.169-0.889,3.591
		s0.297,2.619,0.889,3.591c0.699,1.171,1.713,1.756,3.041,1.756c1.326,0,2.34-0.585,3.039-1.756
		C220.094,212.411,220.391,211.214,220.391,209.792z"/>
</g>
</svg>
