<?xml version="1.0" encoding="utf-8"?>
<!-- Generator: Adobe Illustrator 16.0.0, SVG Export Plug-In . SVG Version: 6.00 Build 0)  -->
<!DOCTYPE svg PUBLIC "-//W3C//DTD SVG 1.1//EN" "http://www.w3.org/Graphics/SVG/1.1/DTD/svg11.dtd">
<svg version="1.1" id="main" xmlns="http://www.w3.org/2000/svg" xmlns:xlink="http://www.w3.org/1999/xlink" x="0px" y="0px"
	 width="320px" height="240px" viewBox="0 0 320 240" enable-background="new 0 0 320 240" xml:space="preserve">
<g>
	<path fill="#FFFFFF" stroke="#000000" stroke-width="0.1" d="M112.498,205.729c1.379-0.234,3.017-0.391,4.811-0.391
		c3.25,0,5.564,0.78,7.099,2.185c1.586,1.43,2.496,3.458,2.496,6.292c0,2.86-0.91,5.2-2.522,6.812
		c-1.664,1.638-4.368,2.522-7.774,2.522c-1.638,0-2.964-0.078-4.108-0.208V205.729z M114.761,221.226
		c0.572,0.078,1.404,0.104,2.288,0.104c4.862,0,7.462-2.704,7.462-7.437c0.026-4.134-2.313-6.76-7.098-6.76
		c-1.171,0-2.055,0.104-2.652,0.233V221.226z"/>
	<path fill="#FFFFFF" stroke="#000000" stroke-width="0.1" d="M129.736,214.336c0-1.482-0.026-2.757-0.104-3.927h2.002l0.104,2.496
		h0.078c0.571-1.689,1.976-2.756,3.51-2.756c0.234,0,0.416,0.026,0.624,0.052v2.158c-0.234-0.052-0.468-0.052-0.78-0.052
		c-1.611,0-2.756,1.196-3.068,2.912c-0.052,0.312-0.077,0.702-0.077,1.066v6.708h-2.288V214.336z"/>
	<path fill="#FFFFFF" stroke="#000000" stroke-width="0.1" d="M140.89,206.873c0,0.78-0.546,1.404-1.456,1.404
		c-0.832,0-1.378-0.624-1.378-1.404c0-0.779,0.571-1.43,1.43-1.43C140.317,205.443,140.89,206.067,140.89,206.873z M138.342,222.994
		v-12.585h2.288v12.585H138.342z"/>
	<path fill="#FFFFFF" stroke="#000000" stroke-width="0.1" d="M145.699,217.118c0.053,3.094,2.002,4.368,4.316,4.368
		c1.638,0,2.652-0.286,3.484-0.65l0.416,1.638c-0.807,0.364-2.21,0.807-4.213,0.807c-3.874,0-6.188-2.574-6.188-6.37
		c0-3.797,2.236-6.761,5.902-6.761c4.134,0,5.2,3.588,5.2,5.902c0,0.468-0.026,0.806-0.078,1.066H145.699z M152.408,215.479
		c0.025-1.43-0.599-3.692-3.173-3.692c-2.34,0-3.328,2.106-3.51,3.692H152.408z"/>
	<path fill="#FFFFFF" stroke="#000000" stroke-width="0.1" d="M157.451,204.533h2.288v7.878h0.052
		c0.364-0.649,0.936-1.248,1.638-1.638c0.677-0.39,1.482-0.624,2.341-0.624c1.689,0,4.394,1.04,4.394,5.356v7.488h-2.288v-7.229
		c0-2.028-0.754-3.718-2.912-3.718c-1.482,0-2.626,1.04-3.068,2.262c-0.13,0.338-0.155,0.676-0.155,1.092v7.593h-2.288V204.533z"/>
	<path fill="#FFFFFF" stroke="#000000" stroke-width="0.1" d="M183.269,216.598c0,4.654-3.25,6.683-6.266,6.683
		c-3.38,0-6.032-2.496-6.032-6.475c0-4.187,2.782-6.656,6.24-6.656C180.825,210.149,183.269,212.775,183.269,216.598z
		 M173.311,216.728c0,2.756,1.561,4.836,3.796,4.836c2.185,0,3.822-2.054,3.822-4.888c0-2.132-1.065-4.811-3.771-4.811
		C174.48,211.865,173.311,214.361,173.311,216.728z"/>
	<path fill="#FFFFFF" stroke="#000000" stroke-width="0.1" d="M187.428,217.118c0.053,3.094,2.002,4.368,4.316,4.368
		c1.638,0,2.652-0.286,3.484-0.65l0.416,1.638c-0.807,0.364-2.21,0.807-4.213,0.807c-3.874,0-6.188-2.574-6.188-6.37
		c0-3.797,2.236-6.761,5.902-6.761c4.134,0,5.2,3.588,5.2,5.902c0,0.468-0.026,0.806-0.078,1.066H187.428z M194.137,215.479
		c0.025-1.43-0.599-3.692-3.173-3.692c-2.34,0-3.328,2.106-3.51,3.692H194.137z"/>
	<path fill="#FFFFFF" stroke="#000000" stroke-width="0.1" d="M201.441,216.182h0.052c0.312-0.442,0.729-0.988,1.093-1.43
		l3.718-4.343h2.729l-4.836,5.175l5.538,7.41h-2.808l-4.316-6.032l-1.17,1.3v4.732h-2.262v-18.461h2.262V216.182z"/>
</g>
<polygon opacity="0.8" fill="#ED1F24" stroke="#FFFFFF" stroke-width="1.4319" points="80.778,165.052 154.08,38.091 
	227.383,165.052 "/>
<polygon opacity="0.8" fill="#69BD45" stroke="#FFFFFF" stroke-width="1.0711" points="234.383,169.854 154.095,123.5 
	234.382,77.146 "/>
<polygon opacity="0.8" fill="#3953A4" stroke="#FFFFFF" stroke-width="1.2284" points="73.793,41.795 154.08,88.15 73.793,134.504 
	"/>
</svg>
