<?xml version="1.0" encoding="utf-8"?>
<!-- Generator: Adobe Illustrator 16.0.0, SVG Export Plug-In . SVG Version: 6.00 Build 0)  -->
<!DOCTYPE svg PUBLIC "-//W3C//DTD SVG 1.1//EN" "http://www.w3.org/Graphics/SVG/1.1/DTD/svg11.dtd">
<svg version="1.1" id="main" xmlns="http://www.w3.org/2000/svg" xmlns:xlink="http://www.w3.org/1999/xlink" x="0px" y="0px"
	 width="320px" height="240px" viewBox="0 0 320 240" enable-background="new 0 0 320 240" xml:space="preserve">
<g>
	<path fill="#FFFFFF" stroke="#000000" stroke-width="0.1" d="M92.217,218.521c0.75,0.45,2.46,1.2,4.32,1.2
		c3.359,0,4.439-2.13,4.41-3.78c-0.03-2.729-2.49-3.899-5.04-3.899h-1.47v-1.98h1.47c1.92,0,4.35-0.989,4.35-3.3
		c0-1.56-0.99-2.939-3.42-2.939c-1.56,0-3.06,0.689-3.899,1.29l-0.721-1.92c1.051-0.75,3.03-1.5,5.13-1.5
		c3.84,0,5.58,2.28,5.58,4.649c0,2.04-1.229,3.75-3.6,4.62v0.06c2.399,0.45,4.319,2.25,4.35,4.98c0,3.12-2.46,5.85-7.109,5.85
		c-2.19,0-4.11-0.69-5.07-1.32L92.217,218.521z"/>
	<path fill="#FFFFFF" stroke="#000000" stroke-width="0.1" d="M120.326,200.222v17.549c0,1.29,0.061,2.76,0.12,3.75h-2.34
		l-0.12-2.52h-0.09c-0.78,1.619-2.52,2.85-4.89,2.85c-3.51,0-6.24-2.97-6.24-7.38c-0.029-4.83,3-7.77,6.51-7.77
		c2.25,0,3.72,1.05,4.38,2.189h0.061v-8.669H120.326z M117.717,212.911c0-0.33-0.03-0.78-0.12-1.11
		c-0.391-1.649-1.83-3.029-3.811-3.029c-2.729,0-4.35,2.399-4.35,5.579c0,2.94,1.471,5.37,4.29,5.37c1.77,0,3.39-1.2,3.87-3.15
		c0.09-0.359,0.12-0.72,0.12-1.14V212.911z"/>
	<path fill="#FFFFFF" stroke="#000000" stroke-width="0.1" d="M130.736,218.851c0.81,0.48,2.189,1.02,3.51,1.02
		c1.89,0,2.79-0.93,2.79-2.159c0-1.26-0.75-1.92-2.67-2.641c-2.64-0.96-3.87-2.369-3.87-4.109c0-2.34,1.92-4.26,5.01-4.26
		c1.47,0,2.76,0.39,3.54,0.9l-0.63,1.92c-0.57-0.36-1.62-0.87-2.97-0.87c-1.561,0-2.4,0.899-2.4,1.979c0,1.2,0.84,1.74,2.73,2.49
		c2.489,0.93,3.81,2.189,3.81,4.35c0,2.58-2.01,4.38-5.399,4.38c-1.591,0-3.061-0.42-4.08-1.021L130.736,218.851z"/>
	<path fill="#FFFFFF" stroke="#000000" stroke-width="0.1" d="M153.325,221.011c-0.689,0.33-2.22,0.84-4.169,0.84
		c-4.38,0-7.23-2.97-7.23-7.41c0-4.47,3.061-7.739,7.8-7.739c1.561,0,2.94,0.39,3.66,0.78l-0.6,2.01
		c-0.631-0.33-1.62-0.69-3.061-0.69c-3.33,0-5.13,2.49-5.13,5.49c0,3.359,2.16,5.43,5.04,5.43c1.5,0,2.49-0.36,3.24-0.69
		L153.325,221.011z"/>
	<path fill="#FFFFFF" stroke="#000000" stroke-width="0.1" d="M166.615,218.041c0,1.26,0.06,2.489,0.21,3.479h-2.37l-0.21-1.83
		h-0.09c-0.811,1.14-2.37,2.16-4.439,2.16c-2.94,0-4.44-2.07-4.44-4.17c0-3.51,3.12-5.43,8.729-5.399v-0.301
		c0-1.17-0.33-3.359-3.3-3.329c-1.38,0-2.79,0.39-3.81,1.08l-0.6-1.771c1.199-0.75,2.97-1.26,4.8-1.26c4.439,0,5.52,3.03,5.52,5.91
		V218.041z M164.065,214.11c-2.88-0.06-6.15,0.45-6.15,3.271c0,1.74,1.141,2.52,2.46,2.52c1.92,0,3.15-1.2,3.57-2.43
		c0.09-0.3,0.12-0.6,0.12-0.84V214.11z"/>
	<path fill="#FFFFFF" stroke="#000000" stroke-width="0.1" d="M170.875,210.931c0-1.529-0.029-2.729-0.119-3.93h2.34l0.149,2.4
		h0.061c0.72-1.351,2.399-2.7,4.8-2.7c2.01,0,5.13,1.2,5.13,6.18v8.64h-2.641v-8.37c0-2.34-0.869-4.289-3.359-4.289
		c-1.71,0-3.06,1.229-3.54,2.699c-0.12,0.33-0.18,0.78-0.18,1.23v8.729h-2.641V210.931z"/>
	<path fill="#FFFFFF" stroke="#000000" stroke-width="0.1" d="M187.524,210.931c0-1.529-0.029-2.729-0.119-3.93h2.34l0.149,2.4
		h0.061c0.72-1.351,2.399-2.7,4.8-2.7c2.01,0,5.13,1.2,5.13,6.18v8.64h-2.641v-8.37c0-2.34-0.87-4.289-3.359-4.289
		c-1.71,0-3.06,1.229-3.54,2.699c-0.12,0.33-0.18,0.78-0.18,1.23v8.729h-2.641V210.931z"/>
	<path fill="#FFFFFF" stroke="#000000" stroke-width="0.1" d="M205.645,214.741c0.06,3.569,2.31,5.039,4.979,5.039
		c1.89,0,3.06-0.33,4.02-0.75l0.48,1.891c-0.93,0.42-2.55,0.93-4.86,0.93c-4.47,0-7.14-2.97-7.14-7.35s2.58-7.8,6.81-7.8
		c4.771,0,6,4.14,6,6.81c0,0.54-0.03,0.93-0.09,1.23H205.645z M213.384,212.851c0.03-1.649-0.689-4.26-3.66-4.26
		c-2.699,0-3.84,2.43-4.05,4.26H213.384z"/>
	<path fill="#FFFFFF" stroke="#000000" stroke-width="0.1" d="M219.203,211.531c0-1.71-0.029-3.181-0.119-4.53h2.31l0.12,2.88h0.09
		c0.66-1.95,2.28-3.18,4.05-3.18c0.27,0,0.48,0.03,0.72,0.06v2.49c-0.27-0.06-0.54-0.06-0.899-0.06c-1.86,0-3.18,1.38-3.54,3.359
		c-0.061,0.36-0.09,0.811-0.09,1.23v7.739h-2.641V211.531z"/>
</g>
<polygon opacity="0.8" fill="#69BD45" stroke="#FFFFFF" stroke-width="0.75" points="220.397,126.309 99.966,126.57 78.273,165.111 
	241.427,165.111 "/>
<polygon opacity="0.8" fill="#69BD45" stroke="#FFFFFF" stroke-width="0.75" points="220.397,52.091 241.427,39.916 241.427,164.85 
	220.397,126.309 "/>
<polygon opacity="0.8" fill="#69BD45" stroke="#FFFFFF" stroke-width="0.75" points="99.966,52.091 78.936,40.177 78.936,165.111 
	99.966,126.57 "/>
<polygon opacity="0.8" fill="#69BD45" stroke="#FFFFFF" stroke-width="0.75" points="241.427,39.916 78.936,40.177 99.966,52.091 
	220.397,52.091 "/>
<g opacity="0.8">
	<path fill="#ED1F24" stroke="#FFFFFF" stroke-width="1.0778" d="M169.345,127.27v7.097c9.594-3.998,16.337-13.454,16.337-24.494
		c0-14.65-11.881-26.533-26.531-26.533c-14.652,0-26.533,11.882-26.533,26.533c0,10.876,6.557,20.213,15.923,24.306v-7.167
		c-5.737-3.56-9.571-9.893-9.571-17.139c0-11.147,9.037-20.182,20.182-20.182c11.146,0,20.181,9.034,20.181,20.182
		C179.331,117.294,175.313,123.762,169.345,127.27z"/>
	<path fill="#ED1F24" stroke="#FFFFFF" stroke-width="1.0778" d="M159.15,71.503c-21.188,0-38.369,17.176-38.369,38.369
		c0,17.504,11.734,32.237,27.759,36.845v-5.391c-13.135-4.43-22.608-16.827-22.608-31.454c0-18.352,14.87-33.222,33.219-33.222
		c18.347,0,33.219,14.871,33.219,33.222c0,14.785-9.667,27.305-23.024,31.61v5.341c16.233-4.47,28.176-19.3,28.176-36.951
		C197.521,88.679,180.342,71.503,159.15,71.503z"/>
	<path fill="#ED1F24" stroke="#FFFFFF" stroke-width="1.0778" d="M163.882,155.892c0-2.205,0-39.191,0-39.594
		c1.858-1.43,3.072-3.65,3.072-6.175c0-4.307-3.492-7.805-7.804-7.805c-4.312,0-7.808,3.498-7.808,7.805
		c0,2.512,1.209,4.725,3.05,6.15l0,0c0,0,0,37.246,0,39.618c0,6.734-6.275,8.879-6.275,8.879h23.469
		C171.586,164.771,163.882,162.318,163.882,155.892z"/>
</g>
</svg>
