<?xml version="1.0" encoding="utf-8"?>
<!-- Generator: Adobe Illustrator 16.0.0, SVG Export Plug-In . SVG Version: 6.00 Build 0)  -->
<!DOCTYPE svg PUBLIC "-//W3C//DTD SVG 1.1//EN" "http://www.w3.org/Graphics/SVG/1.1/DTD/svg11.dtd">
<svg version="1.1" id="main" xmlns="http://www.w3.org/2000/svg" xmlns:xlink="http://www.w3.org/1999/xlink" x="0px" y="0px"
	 width="320px" height="240px" viewBox="0 0 320 240" enable-background="new 0 0 320 240" xml:space="preserve">
<g>
	<path fill="#FFFFFF" stroke="#000000" stroke-width="0.1" d="M134.195,202.409c0,0.66-0.858,3.368-2.574,8.123
		c-1.075,2.916-2.149,5.824-3.224,8.723c-0.295,0.833-0.737,1.249-1.326,1.249c-0.59,0-1.032-0.416-1.326-1.249
		c-1.075-2.898-2.149-5.807-3.224-8.723c-1.717-4.755-2.574-7.463-2.574-8.123c0-0.26,0.1-0.481,0.299-0.663
		c0.199-0.183,0.438-0.273,0.715-0.273c0.398,0,0.719,0.155,0.962,0.468c0.121,0.173,0.269,0.512,0.442,1.014l4.68,13.65h0.052
		l4.681-13.65c0.173-0.502,0.32-0.841,0.441-1.014c0.243-0.312,0.563-0.468,0.962-0.468c0.277,0,0.516,0.091,0.716,0.273
		C134.095,201.928,134.195,202.149,134.195,202.409z"/>
	<path fill="#FFFFFF" stroke="#000000" stroke-width="0.1" d="M146.207,213.341c0,1.945-0.521,3.595-1.561,4.949
		c-1.127,1.477-2.635,2.214-4.523,2.214c-1.89,0-3.397-0.737-4.524-2.214c-1.04-1.354-1.56-3.004-1.56-4.949
		c0-1.927,0.52-3.568,1.56-4.923c1.145-1.476,2.652-2.214,4.524-2.214s3.38,0.738,4.523,2.214
		C145.687,209.772,146.207,211.414,146.207,213.341z M143.893,213.328c0-1.369-0.284-2.521-0.852-3.458
		c-0.672-1.126-1.645-1.689-2.918-1.689c-1.274,0-2.247,0.563-2.918,1.689c-0.568,0.937-0.853,2.089-0.853,3.458
		s0.284,2.522,0.853,3.458c0.671,1.127,1.644,1.69,2.918,1.69c1.273,0,2.246-0.563,2.918-1.69
		C143.608,215.851,143.893,214.697,143.893,213.328z"/>
	<path fill="#FFFFFF" stroke="#000000" stroke-width="0.1" d="M154.137,207.376c0,0.504-0.379,0.895-1.137,1.172
		c-1.12,0.4-1.835,0.738-2.146,1.017c-0.758,0.643-1.138,1.658-1.138,3.048v6.668c0,0.816-0.386,1.224-1.156,1.224
		c-0.771,0-1.157-0.407-1.157-1.224v-11.852c0-0.816,0.381-1.225,1.144-1.225c0.59,0,0.953,0.286,1.093,0.858
		c0.034,0.156,0.052,0.676,0.052,1.56h0.052c0.295-0.624,0.711-1.17,1.248-1.638c0.624-0.521,1.248-0.78,1.872-0.78
		C153.712,206.204,154.137,206.595,154.137,207.376z"/>
	<path fill="#FFFFFF" stroke="#000000" stroke-width="0.1" d="M174.235,219.28c0,0.816-0.382,1.224-1.145,1.224
		c-0.867,0-1.3-0.833-1.3-2.501c0-0.469,0.048-1.307,0.143-2.515c0.096-1.207,0.144-2.114,0.144-2.723
		c0-3.057-1.032-4.585-3.095-4.585c-2.045,0-3.067,1.528-3.067,4.585c0,0.608,0.047,1.512,0.143,2.71s0.144,2.041,0.144,2.527
		c0,1.668-0.434,2.501-1.301,2.501c-0.866,0-1.3-0.833-1.3-2.501c0-0.469,0.048-1.307,0.144-2.515
		c0.095-1.207,0.143-2.114,0.143-2.723c0-3.057-1.031-4.585-3.094-4.585c-2.046,0-3.068,1.528-3.068,4.585
		c0,0.608,0.048,1.512,0.144,2.71c0.095,1.198,0.143,2.041,0.143,2.527c0,1.668-0.434,2.501-1.3,2.501
		c-0.763,0-1.145-0.407-1.145-1.224v-11.852c0-0.816,0.382-1.225,1.145-1.225s1.144,0.546,1.144,1.638l0.053,0.053
		c0.866-1.127,2.027-1.69,3.483-1.69c1.612,0,2.877,0.789,3.796,2.366c1.075-1.577,2.487-2.366,4.238-2.366
		c1.508,0,2.687,0.504,3.536,1.511c0.849,1.008,1.274,2.275,1.274,3.803V219.28z"/>
	<path fill="#FFFFFF" stroke="#000000" stroke-width="0.1" d="M187.651,212.99c0,0.832-0.424,1.248-1.271,1.248h-8.583
		c0,1.248,0.371,2.267,1.115,3.055c0.743,0.789,1.729,1.184,2.956,1.184c0.829,0,1.599-0.165,2.308-0.494
		c0.396-0.173,0.881-0.468,1.452-0.884c0.432-0.329,0.734-0.494,0.907-0.494c0.553,0,0.83,0.34,0.83,1.021
		c0,0.768-0.764,1.466-2.288,2.094c-1.266,0.523-2.35,0.785-3.25,0.785c-2.028,0-3.614-0.703-4.758-2.109
		c-1.058-1.303-1.587-2.986-1.587-5.054c0-1.944,0.547-3.594,1.639-4.948c1.161-1.459,2.687-2.188,4.576-2.188
		c1.768,0,3.224,0.702,4.367,2.106C187.122,209.628,187.651,211.188,187.651,212.99z M185.337,212.496
		c0-1.161-0.31-2.148-0.93-2.964c-0.688-0.901-1.593-1.352-2.711-1.352c-1.24,0-2.204,0.416-2.893,1.248
		c-0.62,0.763-0.955,1.785-1.007,3.067H185.337z"/>
	<path fill="#FFFFFF" stroke="#000000" stroke-width="0.1" d="M199.896,219.28c0,0.816-0.382,1.224-1.145,1.224
		c-0.85,0-1.273-0.842-1.273-2.527c0-0.451,0.039-1.241,0.117-2.37c0.077-1.129,0.116-1.98,0.116-2.554
		c0-1.511-0.208-2.648-0.624-3.413c-0.52-0.973-1.412-1.459-2.678-1.459s-2.158,0.486-2.678,1.459
		c-0.416,0.765-0.624,1.902-0.624,3.413c0,0.573,0.039,1.425,0.117,2.554s0.117,1.919,0.117,2.37c0,1.686-0.426,2.527-1.274,2.527
		c-0.763,0-1.145-0.407-1.145-1.224v-11.852c0-0.816,0.382-1.225,1.145-1.225c0.503,0,0.832,0.191,0.988,0.572
		c0.104,0.226,0.155,0.624,0.155,1.196l0.053,0.052c0.953-1.213,2.227-1.82,3.821-1.82c1.509,0,2.687,0.499,3.536,1.498
		c0.85,0.998,1.274,2.271,1.274,3.815V219.28z"/>
</g>
<rect x="80.399" y="107.738" opacity="0.8" fill="#3953A4" stroke="#FFFFFF" stroke-width="0.9382" width="67.55" height="67.551"/>
<circle opacity="0.8" fill="#A24E9E" stroke="#FFFFFF" stroke-width="1.0778" cx="114.175" cy="63.234" r="38.801"/>
<polygon opacity="0.8" fill="#ED1F24" stroke="#FFFFFF" stroke-width="1.0778" points="189.524,174.414 171.17,142.624 
	189.524,110.833 226.232,110.833 244.587,142.624 226.232,174.414 "/>
<polygon opacity="0.8" fill="#69BD45" stroke="#FFFFFF" stroke-width="1.1549" points="206.903,25.539 219.946,51.967 
	249.112,56.206 228.008,76.777 232.988,105.823 206.903,92.109 180.816,105.823 185.799,76.777 164.695,56.206 193.86,51.967 "/>
</svg>
