<?xml version="1.0" encoding="utf-8"?>
<!-- Generator: Adobe Illustrator 16.0.0, SVG Export Plug-In . SVG Version: 6.00 Build 0)  -->
<!DOCTYPE svg PUBLIC "-//W3C//DTD SVG 1.1//EN" "http://www.w3.org/Graphics/SVG/1.1/DTD/svg11.dtd">
<svg version="1.1" id="main" xmlns="http://www.w3.org/2000/svg" xmlns:xlink="http://www.w3.org/1999/xlink" x="0px" y="0px"
	 width="320px" height="240px" viewBox="0 0 320 240" enable-background="new 0 0 320 240" xml:space="preserve">
<g>
	<path fill="#FFFFFF" stroke="#000000" stroke-width="0.1" d="M140.332,219.923c1.014,0.649,2.469,1.144,4.029,1.144
		c2.314,0,3.667-1.222,3.667-2.99c0-1.612-0.937-2.574-3.303-3.458c-2.86-1.04-4.628-2.548-4.628-4.992
		c0-2.73,2.262-4.758,5.668-4.758c1.769,0,3.095,0.416,3.849,0.857l-0.624,1.847c-0.546-0.338-1.717-0.832-3.303-0.832
		c-2.392,0-3.303,1.43-3.303,2.626c0,1.638,1.066,2.444,3.484,3.38c2.965,1.145,4.447,2.574,4.447,5.148
		c0,2.704-1.977,5.07-6.11,5.07c-1.69,0-3.536-0.521-4.473-1.145L140.332,219.923z"/>
	<path fill="#FFFFFF" stroke="#000000" stroke-width="0.1" d="M156.035,207.078v3.016h3.277v1.742h-3.277v6.786
		c0,1.561,0.443,2.444,1.717,2.444c0.625,0,0.988-0.052,1.326-0.156l0.104,1.742c-0.441,0.156-1.144,0.312-2.027,0.312
		c-1.066,0-1.924-0.364-2.471-0.962c-0.624-0.702-0.884-1.82-0.884-3.303v-6.864h-1.95v-1.742h1.95v-2.34L156.035,207.078z"/>
	<path fill="#FFFFFF" stroke="#000000" stroke-width="0.1" d="M163.004,216.803c0.053,3.094,2.002,4.368,4.316,4.368
		c1.639,0,2.652-0.286,3.484-0.65l0.416,1.638c-0.807,0.364-2.21,0.807-4.213,0.807c-3.875,0-6.188-2.574-6.188-6.37
		c0-3.797,2.236-6.761,5.902-6.761c4.134,0,5.2,3.588,5.2,5.902c0,0.468-0.026,0.806-0.078,1.066H163.004z M169.713,215.164
		c0.025-1.43-0.599-3.692-3.173-3.692c-2.341,0-3.328,2.106-3.51,3.692H169.713z"/>
	<path fill="#FFFFFF" stroke="#000000" stroke-width="0.1" d="M174.756,214.021c0-1.482-0.026-2.757-0.105-3.927h2.002l0.105,2.496
		h0.078c0.571-1.689,1.976-2.756,3.51-2.756c0.234,0,0.416,0.026,0.623,0.052v2.158c-0.234-0.052-0.467-0.052-0.779-0.052
		c-1.611,0-2.756,1.196-3.068,2.912c-0.053,0.312-0.077,0.702-0.077,1.066v6.708h-2.288V214.021z"/>
</g>
<polygon opacity="0.8" fill="#ED1F24" stroke="#FFFFFF" stroke-width="1.4319" points="156.325,38.092 179.049,84.135 
	229.861,91.519 193.094,127.358 201.773,177.965 156.325,154.071 110.877,177.965 119.557,127.358 82.789,91.519 133.602,84.135 "/>
<polygon opacity="0.8" fill="#3953A4" stroke="#FFFFFF" stroke-width="1.2284" points="219.865,81.948 201.619,85.807 
	194.455,103.026 185.146,86.866 166.557,85.373 179.049,71.525 174.725,53.384 191.754,60.986 207.67,51.268 205.703,69.813 "/>
<polygon opacity="0.8" fill="#69BD45" stroke="#FFFFFF" stroke-width="1.071" points="136,149.841 109.418,150 94.48,171.986 
	86.115,146.756 60.59,139.344 82,123.591 81.162,97.023 102.76,112.518 127.768,103.511 119.705,128.84 "/>
</svg>
