<?xml version="1.0" encoding="utf-8"?>
<!-- Generator: Adobe Illustrator 16.0.0, SVG Export Plug-In . SVG Version: 6.00 Build 0)  -->
<!DOCTYPE svg PUBLIC "-//W3C//DTD SVG 1.1//EN" "http://www.w3.org/Graphics/SVG/1.1/DTD/svg11.dtd">
<svg version="1.1" id="main" xmlns="http://www.w3.org/2000/svg" xmlns:xlink="http://www.w3.org/1999/xlink" x="0px" y="0px"
	 width="125px" height="125px" viewBox="0 0 125 125" enable-background="new 0 0 125 125" xml:space="preserve">
<g>
	<path stroke="#FFFFFF" stroke-miterlimit="10" d="M62.501,12.5c-27.61,0-50.003,22.382-50.003,49.991
		c0,27.615,22.393,50.009,50.003,50.009c27.621,0,50.009-22.394,50.009-50.009C112.51,34.882,90.122,12.5,62.501,12.5z
		 M62.501,104.744c-23.329,0-42.249-18.925-42.249-42.253c0-23.329,18.92-42.24,42.249-42.24c23.328,0,42.255,18.911,42.255,42.24
		C104.756,85.819,85.829,104.744,62.501,104.744z"/>
	<rect x="41.315" y="54.456" stroke="#FFFFFF" stroke-miterlimit="10" width="42.376" height="16.082"/>
</g>
</svg>
