<?xml version="1.0" encoding="utf-8"?>
<!-- Generator: Adobe Illustrator 16.0.0, SVG Export Plug-In . SVG Version: 6.00 Build 0)  -->
<!DOCTYPE svg PUBLIC "-//W3C//DTD SVG 1.1//EN" "http://www.w3.org/Graphics/SVG/1.1/DTD/svg11.dtd">
<svg version="1.1" id="main" xmlns="http://www.w3.org/2000/svg" xmlns:xlink="http://www.w3.org/1999/xlink" x="0px" y="0px"
	 width="320px" height="240px" viewBox="0 0 320 240" enable-background="new 0 0 320 240" xml:space="preserve">
<g>
	<path fill="#FFFFFF" stroke="#000000" stroke-width="0.1" d="M125.057,210.858c0,2.669-0.633,4.862-1.897,6.578
		c-1.422,1.924-3.424,2.886-6.006,2.886h-4.811c-0.814,0-1.222-0.416-1.222-1.248v-16.198c0-0.832,0.407-1.248,1.222-1.248h4.498
		c2.583,0,4.619,0.91,6.11,2.73C124.354,206.058,125.057,208.224,125.057,210.858z M122.613,210.858c0-2.09-0.476-3.773-1.427-5.052
		c-1.071-1.434-2.618-2.15-4.641-2.15h-3.111v14.638h3.267c2.005,0,3.526-0.769,4.563-2.306
		C122.163,214.676,122.613,212.966,122.613,210.858z"/>
	<path fill="#FFFFFF" stroke="#000000" stroke-width="0.1" d="M130.205,202.876c0,0.399-0.14,0.737-0.416,1.015
		c-0.277,0.277-0.607,0.416-0.988,0.416c-0.398,0-0.732-0.139-1.001-0.416s-0.403-0.615-0.403-1.015c0-0.381,0.135-0.71,0.403-0.987
		s0.603-0.416,1.001-0.416c0.381,0,0.711,0.139,0.988,0.416C130.065,202.166,130.205,202.495,130.205,202.876z M129.971,219.28
		c0,0.816-0.386,1.224-1.157,1.224s-1.156-0.407-1.156-1.224v-11.852c0-0.816,0.385-1.225,1.156-1.225s1.157,0.408,1.157,1.225
		V219.28z"/>
	<path fill="#FFFFFF" stroke="#000000" stroke-width="0.1" d="M142.243,207.946c0,0.26-0.092,0.49-0.272,0.689
		c-0.182,0.199-0.401,0.299-0.661,0.299c-0.225,0-0.617-0.126-1.179-0.377s-1.093-0.377-1.594-0.377
		c-1.278,0-2.28,0.555-3.006,1.664c-0.622,0.971-0.933,2.132-0.933,3.483c0,1.353,0.311,2.514,0.933,3.484
		c0.726,1.109,1.728,1.664,3.006,1.664c0.553,0,1.109-0.13,1.671-0.391c0.562-0.26,0.92-0.39,1.075-0.39
		c0.588,0,0.882,0.324,0.882,0.971c0,0.647-0.478,1.138-1.431,1.47c-0.693,0.245-1.43,0.367-2.21,0.367
		c-1.959,0-3.51-0.721-4.653-2.162c-1.058-1.319-1.586-2.986-1.586-5.001c0-2.014,0.528-3.681,1.586-5.001
		c1.144-1.424,2.694-2.136,4.653-2.136c0.814,0,1.561,0.104,2.236,0.312C141.749,206.828,142.243,207.306,142.243,207.946z"/>
	<path fill="#FFFFFF" stroke="#000000" stroke-width="0.1" d="M154.775,219.28c0,0.816-0.382,1.224-1.145,1.224
		c-0.85,0-1.273-0.842-1.273-2.527c0-0.451,0.038-1.241,0.116-2.37s0.117-1.98,0.117-2.554c0-1.511-0.208-2.648-0.624-3.413
		c-0.52-0.973-1.413-1.459-2.678-1.459c-1.266,0-2.158,0.486-2.678,1.459c-0.416,0.765-0.624,1.902-0.624,3.413
		c0,0.573,0.039,1.425,0.116,2.554c0.078,1.129,0.117,1.919,0.117,2.37c0,1.686-0.425,2.527-1.273,2.527
		c-0.764,0-1.145-0.408-1.145-1.225v-18.012c0-0.834,0.386-1.251,1.157-1.251s1.157,0.417,1.157,1.252v6.756
		c0.956-1.213,2.233-1.82,3.833-1.82c1.513,0,2.694,0.504,3.547,1.511c0.852,1.008,1.278,2.275,1.278,3.803V219.28z"/>
	<path fill="#FFFFFF" stroke="#000000" stroke-width="0.1" d="M162.626,207.355c0,0.504-0.239,0.816-0.719,0.938
		c-0.154,0.035-0.599,0.052-1.335,0.052v10.936c0,0.816-0.386,1.224-1.157,1.224s-1.157-0.407-1.157-1.224v-10.936
		c-0.735,0-1.181-0.017-1.335-0.052c-0.479-0.121-0.719-0.434-0.719-0.938c0-0.503,0.24-0.815,0.719-0.938
		c0.154-0.034,0.6-0.052,1.335-0.052c0-0.104-0.021-0.395-0.064-0.872c-0.044-0.478-0.065-0.872-0.065-1.185
		c0-1.476,0.425-2.213,1.274-2.213c0.849,0,1.273,0.737,1.273,2.213c0,0.312-0.017,0.707-0.052,1.185s-0.052,0.769-0.052,0.872
		c0.736,0,1.181,0.018,1.335,0.052C162.387,206.54,162.626,206.853,162.626,207.355z"/>
	<path fill="#FFFFFF" stroke="#000000" stroke-width="0.1" d="M175.158,219.28c0,0.816-0.382,1.224-1.145,1.224
		c-0.85,0-1.273-0.842-1.273-2.527c0-0.451,0.038-1.241,0.116-2.37s0.117-1.98,0.117-2.554c0-1.511-0.208-2.648-0.624-3.413
		c-0.52-0.973-1.413-1.459-2.678-1.459c-1.266,0-2.158,0.486-2.678,1.459c-0.416,0.765-0.624,1.902-0.624,3.413
		c0,0.573,0.039,1.425,0.116,2.554c0.078,1.129,0.117,1.919,0.117,2.37c0,1.686-0.425,2.527-1.273,2.527
		c-0.764,0-1.145-0.408-1.145-1.225v-18.012c0-0.834,0.386-1.251,1.157-1.251s1.157,0.417,1.157,1.252v6.756
		c0.956-1.213,2.233-1.82,3.833-1.82c1.513,0,2.694,0.504,3.547,1.511c0.852,1.008,1.278,2.275,1.278,3.803V219.28z"/>
	<path fill="#FFFFFF" stroke="#000000" stroke-width="0.1" d="M188.729,212.99c0,0.832-0.424,1.248-1.271,1.248h-8.583
		c0,1.248,0.371,2.267,1.115,3.055c0.743,0.789,1.729,1.184,2.956,1.184c0.829,0,1.599-0.165,2.308-0.494
		c0.396-0.173,0.881-0.468,1.452-0.884c0.432-0.329,0.734-0.494,0.907-0.494c0.553,0,0.83,0.34,0.83,1.021
		c0,0.768-0.764,1.466-2.288,2.094c-1.266,0.523-2.35,0.785-3.25,0.785c-2.028,0-3.614-0.703-4.758-2.109
		c-1.058-1.303-1.587-2.986-1.587-5.054c0-1.944,0.547-3.594,1.639-4.948c1.161-1.459,2.687-2.188,4.576-2.188
		c1.768,0,3.224,0.702,4.367,2.106C188.2,209.628,188.729,211.188,188.729,212.99z M186.415,212.496c0-1.161-0.31-2.148-0.93-2.964
		c-0.688-0.901-1.593-1.352-2.711-1.352c-1.24,0-2.204,0.416-2.893,1.248c-0.62,0.763-0.955,1.785-1.007,3.067H186.415z"/>
	<path fill="#FFFFFF" stroke="#000000" stroke-width="0.1" d="M193.513,202.876c0,0.399-0.14,0.737-0.416,1.015
		c-0.277,0.277-0.607,0.416-0.988,0.416c-0.398,0-0.732-0.139-1.001-0.416s-0.403-0.615-0.403-1.015c0-0.381,0.135-0.71,0.403-0.987
		s0.603-0.416,1.001-0.416c0.381,0,0.711,0.139,0.988,0.416C193.373,202.166,193.513,202.495,193.513,202.876z M193.278,219.28
		c0,0.816-0.386,1.224-1.157,1.224s-1.156-0.407-1.156-1.224v-11.852c0-0.816,0.385-1.225,1.156-1.225s1.157,0.408,1.157,1.225
		V219.28z"/>
	<path fill="#FFFFFF" stroke="#000000" stroke-width="0.1" d="M208.332,219.279c0,0.816-0.386,1.225-1.156,1.225
		c-0.526,0-0.868-0.211-1.025-0.632c-0.088-0.229-0.132-0.668-0.132-1.317c-0.661,1.3-1.895,1.949-3.702,1.949
		c-1.825,0-3.294-0.755-4.406-2.266c-1.008-1.371-1.512-3.004-1.512-4.897c0-1.893,0.504-3.516,1.512-4.87
		c1.112-1.511,2.581-2.267,4.406-2.267c1.599,0,2.833,0.624,3.702,1.872c0-0.121-0.035-0.704-0.104-1.747s-0.104-1.913-0.104-2.609
		c0-2.469,0.459-3.703,1.378-3.703c0.763,0,1.144,0.417,1.144,1.251V219.279z M206.278,213.328c0-1.369-0.285-2.521-0.855-3.458
		c-0.673-1.126-1.649-1.689-2.928-1.689s-2.254,0.563-2.928,1.689c-0.57,0.937-0.855,2.089-0.855,3.458s0.285,2.522,0.855,3.458
		c0.674,1.127,1.649,1.69,2.928,1.69s2.255-0.563,2.928-1.69C205.993,215.851,206.278,214.697,206.278,213.328z"/>
</g>
<path opacity="0.8" fill="#3953A4" stroke="#FFFFFF" stroke-width="0.9313" d="M172.117,142.121v-11.427h8.73v-3.252h-8.73v-11.472
	h8.73v-3.246h-8.73v-11.262h8.73v-3.625h-8.73V86.462h8.73v-3.157h-8.73V71.81h9.104v-4.103h-9.104v-0.113V58.94h-3.911v8.653
	h-11.461V58.94h-3.655v8.653h-11.213V58.94h-3.305v8.653h-11.367V58.94h-3.312v8.653h-11.556V58.94h-3.312v8.653H97.758V58.94
	h-3.846v8.653v0.126h-8.76v4.179h8.76v11.217h-8.76v3.315h8.76v11.207h-8.76v3.315h8.76v11.363h-8.76v3.309h8.76v11.552h-8.76v3.314
	h8.76v11.578h-8.76v3.92h8.76v8.994h3.977v-9.108h11.267v9.108h3.302v-9.108h11.587v9.108h3.315v-9.108h11.364v9.108h3.315v-9.108
	h11.546v9.108h3.315v-9.108h11.395v9.108h3.822v-8.73v-0.434h9.371v-3.698H172.117z M112.263,71.815h11.385v11.382h-11.385V71.815z
	 M97.637,71.815h11.374v11.382H97.637V71.815z M109.148,142.082H97.772v-11.376h11.376V142.082z M109.148,127.454H97.772v-11.369
	h11.376V127.454z M109.165,112.625H97.792v-11.376h11.373V112.625z M109.165,97.661H97.792V86.292h11.373V97.661z M112.263,86.444
	h11.385v11.375h-11.385V86.444z M123.779,142.082h-11.378v-11.376h11.378V142.082z M123.779,127.454h-11.378v-11.369h11.378V127.454
	z M123.796,112.625h-11.379v-11.376h11.379V112.625z M141.673,71.815h11.382v11.376h-11.382V71.815z M127.444,71.815h11.384v11.382
	h-11.384V71.815z M127.444,86.444h11.384v11.375h-11.384V86.444z M138.964,142.082h-11.38v-11.376h11.38V142.082z M138.964,127.454
	h-11.38v-11.369h11.38V127.454z M138.982,112.625H127.6v-11.376h11.383V112.625z M141.673,86.444h11.382v11.375h-11.382V86.444z
	 M153.194,142.074h-11.386v-11.375h11.386V142.074z M153.194,127.454h-11.386v-11.383h11.386V127.454z M153.207,112.625h-11.379
	v-11.376h11.379V112.625z M156.856,71.815h11.379v11.376h-11.379V71.815z M156.856,86.444h11.379v11.375h-11.379V86.444z
	 M156.856,112.775v-11.375h11.379v11.375H156.856z M168.376,142.074h-11.382v-11.375h11.382V142.074z M168.376,127.454h-11.382
	v-11.383h11.382V127.454z"/>
<path opacity="0.8" fill="#69BD45" stroke="#FFFFFF" stroke-width="0.9313" d="M194.563,106.74V95.314h8.73v-3.252h-8.73V80.591
	h8.73v-3.246h-8.73V66.083h8.73v-3.625h-8.73V51.082h8.73v-3.157h-8.73V36.429h9.104v-4.103h-9.104v-0.113V23.56h-3.911v8.653
	H179.19V23.56h-3.654v8.653h-11.213V23.56h-3.306v8.653h-11.366V23.56h-3.312v8.653h-11.556V23.56h-3.313v8.653h-11.267V23.56
	h-3.847v8.653v0.126h-8.76v4.179h8.76v11.217h-8.76v3.315h8.76v11.207h-8.76v3.315h8.76v11.363h-8.76v3.309h8.76v11.552h-8.76v3.315
	h8.76v11.578h-8.76v3.92h8.76v8.994h3.978v-9.107h11.266v9.107h3.302v-9.107h11.588v9.107h3.314v-9.107h11.365v9.107h3.314v-9.107
	h11.547v9.107h3.314v-9.107h11.395v9.107h3.823v-8.729v-0.434h9.371v-3.7H194.563z M134.709,36.435h11.385v11.382h-11.385V36.435z
	 M120.083,36.435h11.374v11.382h-11.374V36.435z M131.595,106.701h-11.376V95.326h11.376V106.701z M131.595,92.074h-11.376V80.705
	h11.376V92.074z M131.61,77.244h-11.372V65.868h11.372V77.244z M131.61,62.281h-11.372V50.912h11.372V62.281z M134.709,51.063
	h11.385v11.375h-11.385V51.063z M146.226,106.701h-11.379V95.326h11.379V106.701z M146.226,92.074h-11.379V80.705h11.379V92.074z
	 M146.241,77.244h-11.378V65.868h11.378V77.244z M164.118,36.435h11.383v11.376h-11.383V36.435z M149.891,36.435h11.383v11.382
	h-11.383V36.435z M149.891,51.063h11.383v11.375h-11.383V51.063z M161.409,106.701h-11.38V95.326h11.38V106.701z M161.409,92.074
	h-11.38V80.705h11.38V92.074z M161.428,77.244h-11.383V65.868h11.383V77.244z M164.118,51.063h11.383v11.375h-11.383V51.063z
	 M175.641,106.695h-11.387V95.319h11.387V106.695z M175.641,92.074h-11.387V80.691h11.387V92.074z M175.652,77.244h-11.379V65.868
	h11.379V77.244z M179.303,36.435h11.378v11.376h-11.378V36.435z M179.303,51.063h11.378v11.375h-11.378V51.063z M179.303,77.395
	V66.02h11.378v11.375H179.303z M190.821,106.695H179.44V95.319h11.381V106.695z M190.821,92.074H179.44V80.691h11.381V92.074z"/>
<path opacity="0.8" fill="#ED1F24" stroke="#FFFFFF" stroke-width="0.9313" d="M220.438,161.774v-11.428h8.73v-3.252h-8.73v-11.471
	h8.73v-3.246h-8.73v-11.262h8.73v-3.625h-8.73v-11.376h8.73v-3.157h-8.73V91.463h9.104v-4.104h-9.104v-0.113v-8.653h-3.912v8.653
	h-11.461v-8.653h-3.654v8.653h-11.213v-8.653h-3.306v8.653h-11.366v-8.653h-3.312v8.653h-11.555v-8.653h-3.313v8.653h-11.267v-8.653
	h-3.847v8.653v0.126h-8.76v4.179h8.76v11.217h-8.76v3.315h8.76v11.206h-8.76v3.315h8.76v11.363h-8.76v3.309h8.76v11.553h-8.76v3.315
	h8.76v11.577h-8.76v3.92h8.76v8.994h3.978v-9.108h11.266v9.108h3.302v-9.108h11.587v9.108h3.315v-9.108h11.364v9.108h3.315v-9.108
	h11.546v9.108h3.315v-9.108h11.395v9.108h3.823v-8.73v-0.434h9.371v-3.698H220.438z M160.582,91.469h11.385v11.382h-11.385V91.469z
	 M145.957,91.469h11.373v11.382h-11.373V91.469z M157.469,161.735h-11.377v-11.376h11.377V161.735z M157.469,147.106h-11.377
	v-11.368h11.377V147.106z M157.484,132.277h-11.373v-11.376h11.373V132.277z M157.484,117.314h-11.373v-11.369h11.373V117.314z
	 M160.582,106.097h11.385v11.375h-11.385V106.097z M172.1,161.735h-11.379v-11.376H172.1V161.735z M172.1,147.106h-11.379v-11.368
	H172.1V147.106z M172.115,132.277h-11.379v-11.376h11.379V132.277z M189.992,91.469h11.383v11.376h-11.383V91.469z M175.764,91.469
	h11.384v11.382h-11.384V91.469z M175.764,106.097h11.384v11.375h-11.384V106.097z M187.283,161.735h-11.38v-11.376h11.38V161.735z
	 M187.283,147.106h-11.38v-11.368h11.38V147.106z M187.302,132.277h-11.383v-11.376h11.383V132.277z M189.992,106.097h11.383v11.375
	h-11.383V106.097z M201.514,161.728h-11.386v-11.376h11.386V161.728z M201.514,147.106h-11.386v-11.382h11.386V147.106z
	 M201.526,132.277h-11.379v-11.376h11.379V132.277z M205.176,91.469h11.379v11.376h-11.379V91.469z M205.176,106.097h11.379v11.375
	h-11.379V106.097z M205.176,132.428v-11.375h11.379v11.375H205.176z M216.695,161.728h-11.381v-11.376h11.381V161.728z
	 M216.695,147.106h-11.381v-11.382h11.381V147.106z"/>
</svg>
