<?xml version="1.0" encoding="utf-8"?>
<!-- Generator: Adobe Illustrator 16.0.0, SVG Export Plug-In . SVG Version: 6.00 Build 0)  -->
<!DOCTYPE svg PUBLIC "-//W3C//DTD SVG 1.1//EN" "http://www.w3.org/Graphics/SVG/1.1/DTD/svg11.dtd">
<svg version="1.1" id="main" xmlns="http://www.w3.org/2000/svg" xmlns:xlink="http://www.w3.org/1999/xlink" x="0px" y="0px"
	 width="320px" height="240px" viewBox="0 0 320 240" enable-background="new 0 0 320 240" xml:space="preserve">
<path opacity="0.8" fill="#ED1F24" stroke="#FFFFFF" stroke-width="1.4319" d="M158.727,31.317
	c-30.306,0-54.871,24.567-54.871,54.871c0,30.305,24.565,54.864,54.871,54.864c30.301,0,54.87-24.56,54.87-54.864
	C213.597,55.885,189.027,31.317,158.727,31.317z M158.727,133.092c-25.867,0-46.906-21.039-46.906-46.903
	c0-25.87,21.039-46.903,46.906-46.903c25.862,0,46.905,21.033,46.905,46.903C205.632,112.053,184.589,133.092,158.727,133.092z"/>
<path opacity="0.8" fill="#69BD45" stroke="#FFFFFF" stroke-width="1.071" d="M158.399,59.311c-0.023,0-0.033,0-0.041,0
	c-0.017,0-0.017,0-0.017,0s0,0-0.008,0h-0.014c-0.015,0-0.015,0-0.015,0s0,0-0.009,0c-0.053-0.014-0.075-0.007-0.116-0.007
	c-6.952,0-13.717,2.762-18.72,7.604l-5.505-5.575c-0.262-0.263-0.668-0.35-0.995-0.202c-0.34,0.142-0.577,0.471-0.577,0.847
	l0.918,19.045h17.902c0.008,0,0.031,0,0.031,0c0.519,0,0.929-0.409,0.929-0.92c0-0.336-0.181-0.632-0.46-0.8l-5.425-5.495
	c3.226-3.104,7.421-4.81,12.026-4.81c9.399,0.061,17.058,7.766,17.058,17.312c-0.071,9.358-7.7,16.963-17.2,17.03
	c-6.185-0.336-12.026-4.018-14.818-10.11l-8.814,4.063l0.058,0.114c6.036,11.656,15.528,16.58,25.735,15.532
	c13.731-1.095,24.647-12.603,24.742-26.758C185.065,71.477,173.11,59.432,158.399,59.311z"/>
<g>
	<path fill="#FFFFFF" stroke="#000000" stroke-width="0.1" d="M117.932,208.247c1.144-0.208,2.808-0.363,4.342-0.363
		c2.418,0,4.004,0.468,5.07,1.43c0.857,0.78,1.378,1.976,1.378,3.354c0,2.288-1.456,3.822-3.276,4.445v0.078
		c1.326,0.469,2.132,1.717,2.548,3.536c0.572,2.444,0.988,4.135,1.353,4.811h-2.34c-0.286-0.521-0.677-2.002-1.145-4.187
		c-0.52-2.418-1.482-3.328-3.536-3.406h-2.132v7.593h-2.262V208.247z M120.193,216.229h2.314c2.418,0,3.951-1.326,3.951-3.328
		c0-2.262-1.638-3.25-4.029-3.25c-1.093,0-1.847,0.078-2.236,0.183V216.229z"/>
	<path fill="#FFFFFF" stroke="#000000" stroke-width="0.1" d="M143.333,219.142c0,4.654-3.25,6.683-6.266,6.683
		c-3.38,0-6.032-2.496-6.032-6.475c0-4.186,2.782-6.656,6.24-6.656C140.89,212.693,143.333,215.319,143.333,219.142z
		 M133.375,219.271c0,2.757,1.561,4.837,3.796,4.837c2.185,0,3.822-2.055,3.822-4.889c0-2.132-1.065-4.81-3.771-4.81
		C134.545,214.41,133.375,216.906,133.375,219.271z"/>
	<path fill="#FFFFFF" stroke="#000000" stroke-width="0.1" d="M148.975,209.938v3.016h3.276v1.742h-3.276v6.787
		c0,1.56,0.441,2.443,1.716,2.443c0.624,0,0.988-0.052,1.326-0.156l0.104,1.742c-0.442,0.156-1.145,0.312-2.028,0.312
		c-1.066,0-1.925-0.364-2.471-0.962c-0.624-0.702-0.884-1.82-0.884-3.303v-6.864h-1.95v-1.742h1.95v-2.34L148.975,209.938z"/>
	<path fill="#FFFFFF" stroke="#000000" stroke-width="0.1" d="M155.942,219.662c0.052,3.094,2.002,4.368,4.316,4.368
		c1.638,0,2.652-0.286,3.484-0.65l0.416,1.638c-0.807,0.364-2.21,0.807-4.212,0.807c-3.875,0-6.188-2.574-6.188-6.37
		s2.235-6.761,5.902-6.761c4.134,0,5.2,3.588,5.2,5.902c0,0.468-0.026,0.807-0.078,1.066H155.942z M162.65,218.023
		c0.026-1.43-0.598-3.691-3.172-3.691c-2.34,0-3.328,2.105-3.51,3.691H162.65z"/>
	<path fill="#FFFFFF" stroke="#000000" stroke-width="0.1" d="M167.694,216.88c0-1.482-0.026-2.756-0.104-3.927h2.002l0.104,2.496
		h0.078c0.571-1.689,1.976-2.756,3.51-2.756c0.234,0,0.416,0.026,0.624,0.053v2.157c-0.234-0.052-0.468-0.052-0.78-0.052
		c-1.612,0-2.756,1.196-3.067,2.912c-0.053,0.312-0.078,0.702-0.078,1.066v6.708h-2.288V216.88z"/>
	<path fill="#FFFFFF" stroke="#000000" stroke-width="0.1" d="M177.21,219.662c0.052,3.094,2.002,4.368,4.316,4.368
		c1.638,0,2.652-0.286,3.484-0.65l0.416,1.638c-0.807,0.364-2.21,0.807-4.212,0.807c-3.875,0-6.188-2.574-6.188-6.37
		s2.235-6.761,5.902-6.761c4.134,0,5.2,3.588,5.2,5.902c0,0.468-0.026,0.807-0.078,1.066H177.21z M183.918,218.023
		c0.026-1.43-0.598-3.691-3.172-3.691c-2.34,0-3.328,2.105-3.51,3.691H183.918z"/>
	<path fill="#FFFFFF" stroke="#000000" stroke-width="0.1" d="M188.962,216.359c0-1.326-0.026-2.365-0.104-3.406h2.028l0.13,2.08
		h0.052c0.624-1.17,2.08-2.34,4.16-2.34c1.742,0,4.446,1.04,4.446,5.356v7.488h-2.288v-7.254c0-2.028-0.754-3.719-2.912-3.719
		c-1.481,0-2.652,1.066-3.068,2.341c-0.104,0.285-0.155,0.676-0.155,1.065v7.566h-2.288V216.359z"/>
</g>
</svg>
