<?xml version="1.0" encoding="utf-8"?>
<!-- Generator: Adobe Illustrator 16.0.0, SVG Export Plug-In . SVG Version: 6.00 Build 0)  -->
<!DOCTYPE svg PUBLIC "-//W3C//DTD SVG 1.1//EN" "http://www.w3.org/Graphics/SVG/1.1/DTD/svg11.dtd">
<svg version="1.1" id="main" xmlns="http://www.w3.org/2000/svg" xmlns:xlink="http://www.w3.org/1999/xlink" x="0px" y="0px"
	 width="320px" height="240px" viewBox="0 0 320 240" enable-background="new 0 0 320 240" xml:space="preserve">
<rect x="83.4" y="55.138" opacity="0.8" fill="#69BD45" stroke="#FFFFFF" stroke-width="1.2775" width="153.199" height="13.56"/>
<rect x="83.4" y="85.862" opacity="0.8" fill="#3953A4" stroke="#FFFFFF" stroke-width="1.2775" width="153.199" height="19.541"/>
<rect x="83.4" y="122.153" opacity="0.8" fill="#ED1F24" stroke="#FFFFFF" stroke-width="1.2775" width="153.199" height="43.914"/>
<g>
	<path fill="#FFFFFF" stroke="#000000" stroke-width="0.1" d="M139.707,217.756c0,0.711-0.373,1.066-1.118,1.066h-5.953
		c-0.815,0-1.223-0.416-1.223-1.248v-16.38c0-0.814,0.386-1.222,1.157-1.222s1.157,0.407,1.157,1.222v15.47h4.866
		C139.336,216.664,139.707,217.028,139.707,217.756z"/>
	<path fill="#FFFFFF" stroke="#000000" stroke-width="0.1" d="M144.491,201.376c0,0.399-0.14,0.737-0.416,1.015
		c-0.277,0.277-0.607,0.416-0.988,0.416c-0.398,0-0.732-0.139-1.001-0.416s-0.403-0.615-0.403-1.015c0-0.381,0.135-0.71,0.403-0.987
		s0.603-0.416,1.001-0.416c0.381,0,0.711,0.139,0.988,0.416C144.352,200.666,144.491,200.995,144.491,201.376z M144.257,217.78
		c0,0.816-0.386,1.224-1.157,1.224s-1.156-0.407-1.156-1.224v-11.852c0-0.816,0.385-1.225,1.156-1.225s1.157,0.408,1.157,1.225
		V217.78z"/>
	<path fill="#FFFFFF" stroke="#000000" stroke-width="0.1" d="M150.159,201.376c0,0.399-0.135,0.737-0.403,1.015
		s-0.603,0.416-1.001,0.416s-0.732-0.139-1.001-0.416s-0.403-0.615-0.403-1.015c0-0.381,0.135-0.71,0.403-0.987
		s0.603-0.416,1.001-0.416c0.381,0,0.711,0.139,0.988,0.416C150.02,200.666,150.159,200.995,150.159,201.376z M149.925,223.293
		c0,0.815-0.386,1.224-1.157,1.224s-1.156-0.408-1.156-1.224v-17.365c0-0.815,0.385-1.224,1.156-1.224s1.157,0.408,1.157,1.224
		V223.293z"/>
	<path fill="#FFFFFF" stroke="#000000" stroke-width="0.1" d="M163.289,217.78c0,0.816-0.382,1.224-1.145,1.224
		c-0.85,0-1.273-0.842-1.273-2.527c0-0.451,0.039-1.241,0.117-2.37c0.077-1.129,0.116-1.98,0.116-2.554
		c0-1.511-0.208-2.648-0.624-3.413c-0.52-0.973-1.412-1.459-2.678-1.459s-2.158,0.486-2.678,1.459
		c-0.416,0.765-0.624,1.902-0.624,3.413c0,0.573,0.039,1.425,0.117,2.554s0.117,1.919,0.117,2.37c0,1.686-0.426,2.527-1.274,2.527
		c-0.763,0-1.145-0.407-1.145-1.224v-11.852c0-0.816,0.382-1.225,1.145-1.225c0.503,0,0.832,0.191,0.988,0.572
		c0.104,0.226,0.155,0.624,0.155,1.196l0.053,0.052c0.953-1.213,2.227-1.82,3.821-1.82c1.509,0,2.687,0.499,3.536,1.498
		c0.85,0.998,1.274,2.271,1.274,3.815V217.78z"/>
	<path fill="#FFFFFF" stroke="#000000" stroke-width="0.1" d="M176.705,211.49c0,0.832-0.424,1.248-1.271,1.248h-8.583
		c0,1.248,0.371,2.267,1.115,3.055c0.743,0.789,1.729,1.184,2.956,1.184c0.829,0,1.599-0.165,2.308-0.494
		c0.396-0.173,0.881-0.468,1.452-0.884c0.432-0.329,0.734-0.494,0.907-0.494c0.553,0,0.83,0.34,0.83,1.021
		c0,0.768-0.764,1.466-2.288,2.094c-1.266,0.523-2.35,0.785-3.25,0.785c-2.028,0-3.614-0.703-4.758-2.109
		c-1.058-1.303-1.587-2.986-1.587-5.054c0-1.944,0.547-3.594,1.639-4.948c1.161-1.459,2.687-2.188,4.576-2.188
		c1.768,0,3.224,0.702,4.367,2.106C176.176,208.128,176.705,209.688,176.705,211.49z M174.391,210.996
		c0-1.161-0.31-2.148-0.93-2.964c-0.688-0.901-1.593-1.352-2.711-1.352c-1.24,0-2.204,0.416-2.893,1.248
		c-0.62,0.763-0.955,1.785-1.007,3.067H174.391z"/>
	<path fill="#FFFFFF" stroke="#000000" stroke-width="0.1" d="M188.95,217.78c0,0.816-0.382,1.224-1.145,1.224
		c-0.85,0-1.273-0.842-1.273-2.527c0-0.451,0.039-1.241,0.117-2.37c0.077-1.129,0.116-1.98,0.116-2.554
		c0-1.511-0.208-2.648-0.624-3.413c-0.52-0.973-1.412-1.459-2.678-1.459s-2.158,0.486-2.678,1.459
		c-0.416,0.765-0.624,1.902-0.624,3.413c0,0.573,0.039,1.425,0.117,2.554s0.117,1.919,0.117,2.37c0,1.686-0.426,2.527-1.274,2.527
		c-0.763,0-1.145-0.407-1.145-1.224v-11.852c0-0.816,0.382-1.225,1.145-1.225c0.503,0,0.832,0.191,0.988,0.572
		c0.104,0.226,0.155,0.624,0.155,1.196l0.053,0.052c0.953-1.213,2.227-1.82,3.821-1.82c1.509,0,2.687,0.499,3.536,1.498
		c0.85,0.998,1.274,2.271,1.274,3.815V217.78z"/>
</g>
</svg>
