<?xml version="1.0" encoding="utf-8"?>
<!-- Generator: Adobe Illustrator 16.0.0, SVG Export Plug-In . SVG Version: 6.00 Build 0)  -->
<!DOCTYPE svg PUBLIC "-//W3C//DTD SVG 1.1//EN" "http://www.w3.org/Graphics/SVG/1.1/DTD/svg11.dtd">
<svg version="1.1" id="main" xmlns="http://www.w3.org/2000/svg" xmlns:xlink="http://www.w3.org/1999/xlink" x="0px" y="0px"
	 width="320px" height="240px" viewBox="0 0 320 240" enable-background="new 0 0 320 240" xml:space="preserve">
<path opacity="0.8" fill="#69BD45" stroke="#FFFFFF" stroke-width="1.0874" d="M128.918,105.72
	c0,14.923-12.091,27.018-27.016,27.018c-14.926,0-27.021-12.095-27.021-27.018c0-14.918,12.095-27.019,27.021-27.019
	C116.827,78.702,128.918,90.802,128.918,105.72z"/>
<path opacity="0.8" fill="#3953A4" stroke="#FFFFFF" stroke-width="1.0874" d="M189.227,105.432
	c0,22.712-18.399,41.116-41.111,41.116c-22.719,0-41.123-18.404-41.123-41.116c0-22.701,18.404-41.117,41.123-41.117
	C170.827,64.315,189.227,82.73,189.227,105.432z"/>
<g>
	<path fill="#FFFFFF" stroke="#000000" stroke-width="0.1" d="M99.98,201.194c0,0.832-0.746,1.248-2.236,1.248
		c-0.364,0-0.823-0.026-1.378-0.078s-0.875-0.078-0.962-0.078v15.494c0,0.816-0.386,1.224-1.157,1.224s-1.157-0.407-1.157-1.224
		v-15.494c-0.104,0-0.433,0.026-0.987,0.078c-0.556,0.052-1.015,0.078-1.378,0.078c-1.474,0-2.21-0.416-2.21-1.248
		c0-0.711,0.373-1.066,1.12-1.066h9.225C99.606,200.128,99.98,200.483,99.98,201.194z"/>
	<path fill="#FFFFFF" stroke="#000000" stroke-width="0.1" d="M105.466,205.876c0,0.504-0.379,0.895-1.137,1.172
		c-1.12,0.4-1.835,0.738-2.146,1.017c-0.758,0.643-1.138,1.658-1.138,3.048v6.668c0,0.816-0.386,1.224-1.156,1.224
		c-0.771,0-1.157-0.407-1.157-1.224v-11.852c0-0.816,0.381-1.225,1.144-1.225c0.59,0,0.953,0.286,1.093,0.858
		c0.034,0.156,0.052,0.676,0.052,1.56h0.052c0.295-0.624,0.711-1.17,1.248-1.638c0.624-0.521,1.248-0.78,1.872-0.78
		C105.041,204.704,105.466,205.095,105.466,205.876z"/>
	<path fill="#FFFFFF" stroke="#000000" stroke-width="0.1" d="M119.142,217.884c0,0.313-0.1,0.578-0.299,0.795
		s-0.455,0.325-0.767,0.325c-0.521,0-0.85-0.245-0.988-0.736c-0.052-0.193-0.078-0.658-0.078-1.396
		c-0.976,1.422-2.239,2.132-3.79,2.132c-1.882,0-3.397-0.737-4.548-2.214c-1.046-1.354-1.568-3.004-1.568-4.949
		c0-1.927,0.522-3.568,1.568-4.923c1.15-1.476,2.666-2.214,4.548-2.214c1.412,0,2.675,0.615,3.79,1.846
		c0-0.606,0.043-1.014,0.13-1.222c0.139-0.416,0.451-0.624,0.937-0.624c0.312,0,0.567,0.109,0.767,0.326s0.299,0.481,0.299,0.794
		V217.884z M116.984,211.828c0-1.369-0.277-2.521-0.829-3.458c-0.691-1.126-1.676-1.689-2.954-1.689s-2.255,0.563-2.928,1.689
		c-0.57,0.937-0.855,2.089-0.855,3.458s0.285,2.522,0.855,3.458c0.673,1.127,1.649,1.69,2.928,1.69s2.263-0.563,2.954-1.69
		C116.707,214.351,116.984,213.197,116.984,211.828z"/>
	<path fill="#FFFFFF" stroke="#000000" stroke-width="0.1" d="M131.804,217.78c0,0.816-0.382,1.224-1.145,1.224
		c-0.85,0-1.273-0.842-1.273-2.527c0-0.451,0.039-1.241,0.117-2.37c0.077-1.129,0.116-1.98,0.116-2.554
		c0-1.511-0.208-2.648-0.624-3.413c-0.52-0.973-1.412-1.459-2.678-1.459s-2.158,0.486-2.678,1.459
		c-0.416,0.765-0.624,1.902-0.624,3.413c0,0.573,0.039,1.425,0.117,2.554s0.117,1.919,0.117,2.37c0,1.686-0.426,2.527-1.274,2.527
		c-0.763,0-1.145-0.407-1.145-1.224v-11.852c0-0.816,0.382-1.225,1.145-1.225c0.503,0,0.832,0.191,0.988,0.572
		c0.104,0.226,0.155,0.624,0.155,1.196l0.053,0.052c0.953-1.213,2.227-1.82,3.821-1.82c1.509,0,2.687,0.499,3.536,1.498
		c0.85,0.998,1.274,2.271,1.274,3.815V217.78z"/>
	<path fill="#FFFFFF" stroke="#000000" stroke-width="0.1" d="M143.243,214.68c0,1.372-0.512,2.448-1.534,3.23
		c-0.936,0.729-2.105,1.094-3.51,1.094c-0.971,0-2.011-0.209-3.12-0.628c-1.387-0.541-2.08-1.222-2.08-2.042
		c0-0.279,0.086-0.523,0.26-0.733c0.172-0.21,0.396-0.314,0.673-0.314c0.19,0,0.73,0.282,1.62,0.845
		c0.89,0.563,1.793,0.846,2.708,0.846c0.64,0,1.219-0.147,1.736-0.442c0.622-0.347,0.934-0.823,0.934-1.43
		c0-0.745-0.64-1.421-1.918-2.028c-1.175-0.555-2.357-1.101-3.549-1.638c-1.261-0.763-1.892-1.699-1.892-2.809
		c0-1.213,0.494-2.184,1.482-2.911c0.9-0.677,1.976-1.015,3.224-1.015c0.884,0,1.811,0.199,2.782,0.599
		c1.213,0.485,1.819,1.109,1.819,1.871c0,0.624-0.346,0.937-1.036,0.937c-0.224,0-0.678-0.238-1.359-0.715
		c-0.683-0.477-1.412-0.715-2.189-0.715c-0.639,0-1.174,0.13-1.605,0.391c-0.535,0.33-0.804,0.79-0.804,1.381
		c0,0.66,0.631,1.259,1.892,1.798c2.314,1.008,3.498,1.528,3.55,1.563C142.604,212.578,143.243,213.533,143.243,214.68z"/>
	<path fill="#FFFFFF" stroke="#000000" stroke-width="0.1" d="M156.555,211.841c0,1.894-0.504,3.526-1.512,4.897
		c-1.112,1.511-2.581,2.266-4.406,2.266c-1.616,0-2.851-0.641-3.702-1.924c0,0.122,0.03,0.657,0.092,1.604
		c0.061,0.948,0.091,1.735,0.091,2.361c0,2.313-0.451,3.471-1.353,3.471c-0.763,0-1.144-0.408-1.144-1.224v-17.365
		c0-0.815,0.386-1.224,1.157-1.224c0.525,0,0.867,0.208,1.025,0.624c0.087,0.226,0.131,0.65,0.131,1.274
		c0.643-1.266,1.877-1.898,3.702-1.898s3.294,0.756,4.406,2.267C156.051,208.325,156.555,209.948,156.555,211.841z M154.241,211.828
		c0-1.369-0.285-2.521-0.855-3.458c-0.674-1.126-1.649-1.689-2.928-1.689c-1.296,0-2.28,0.563-2.954,1.689
		c-0.553,0.937-0.829,2.089-0.829,3.458s0.276,2.522,0.829,3.458c0.674,1.127,1.658,1.69,2.954,1.69c1.278,0,2.254-0.563,2.928-1.69
		C153.956,214.351,154.241,213.197,154.241,211.828z"/>
	<path fill="#FFFFFF" stroke="#000000" stroke-width="0.1" d="M170.127,211.49c0,0.832-0.424,1.248-1.271,1.248h-8.583
		c0,1.248,0.371,2.267,1.115,3.055c0.743,0.789,1.729,1.184,2.956,1.184c0.829,0,1.599-0.165,2.308-0.494
		c0.396-0.173,0.881-0.468,1.452-0.884c0.432-0.329,0.734-0.494,0.907-0.494c0.553,0,0.83,0.34,0.83,1.021
		c0,0.768-0.764,1.466-2.288,2.094c-1.266,0.523-2.35,0.785-3.25,0.785c-2.028,0-3.614-0.703-4.758-2.109
		c-1.058-1.303-1.587-2.986-1.587-5.054c0-1.944,0.547-3.594,1.639-4.948c1.161-1.459,2.687-2.188,4.576-2.188
		c1.768,0,3.224,0.702,4.367,2.106C169.598,208.128,170.127,209.688,170.127,211.49z M167.812,210.996
		c0-1.161-0.31-2.148-0.93-2.964c-0.688-0.901-1.593-1.352-2.711-1.352c-1.24,0-2.204,0.416-2.893,1.248
		c-0.62,0.763-0.955,1.785-1.007,3.067H167.812z"/>
	<path fill="#FFFFFF" stroke="#000000" stroke-width="0.1" d="M178.107,205.876c0,0.504-0.379,0.895-1.137,1.172
		c-1.12,0.4-1.835,0.738-2.146,1.017c-0.758,0.643-1.138,1.658-1.138,3.048v6.668c0,0.816-0.386,1.224-1.156,1.224
		c-0.771,0-1.157-0.407-1.157-1.224v-11.852c0-0.816,0.381-1.225,1.144-1.225c0.59,0,0.953,0.286,1.093,0.858
		c0.034,0.156,0.052,0.676,0.052,1.56h0.052c0.295-0.624,0.711-1.17,1.248-1.638c0.624-0.521,1.248-0.78,1.872-0.78
		C177.683,204.704,178.107,205.095,178.107,205.876z"/>
	<path fill="#FFFFFF" stroke="#000000" stroke-width="0.1" d="M191.783,217.884c0,0.313-0.1,0.578-0.299,0.795
		s-0.455,0.325-0.767,0.325c-0.521,0-0.85-0.245-0.988-0.736c-0.052-0.193-0.078-0.658-0.078-1.396
		c-0.976,1.422-2.239,2.132-3.79,2.132c-1.882,0-3.397-0.737-4.548-2.214c-1.046-1.354-1.568-3.004-1.568-4.949
		c0-1.927,0.522-3.568,1.568-4.923c1.15-1.476,2.666-2.214,4.548-2.214c1.412,0,2.675,0.615,3.79,1.846
		c0-0.606,0.043-1.014,0.13-1.222c0.139-0.416,0.451-0.624,0.937-0.624c0.312,0,0.567,0.109,0.767,0.326s0.299,0.481,0.299,0.794
		V217.884z M189.626,211.828c0-1.369-0.277-2.521-0.829-3.458c-0.691-1.126-1.676-1.689-2.954-1.689s-2.255,0.563-2.928,1.689
		c-0.57,0.937-0.855,2.089-0.855,3.458s0.285,2.522,0.855,3.458c0.673,1.127,1.649,1.69,2.928,1.69s2.263-0.563,2.954-1.69
		C189.349,214.351,189.626,213.197,189.626,211.828z"/>
	<path fill="#FFFFFF" stroke="#000000" stroke-width="0.1" d="M204.445,217.78c0,0.816-0.382,1.224-1.145,1.224
		c-0.85,0-1.273-0.842-1.273-2.527c0-0.451,0.039-1.241,0.117-2.37c0.077-1.129,0.116-1.98,0.116-2.554
		c0-1.511-0.208-2.648-0.624-3.413c-0.52-0.973-1.412-1.459-2.678-1.459s-2.158,0.486-2.678,1.459
		c-0.416,0.765-0.624,1.902-0.624,3.413c0,0.573,0.039,1.425,0.117,2.554s0.117,1.919,0.117,2.37c0,1.686-0.426,2.527-1.274,2.527
		c-0.763,0-1.145-0.407-1.145-1.224v-11.852c0-0.816,0.382-1.225,1.145-1.225c0.503,0,0.832,0.191,0.988,0.572
		c0.104,0.226,0.155,0.624,0.155,1.196l0.053,0.052c0.953-1.213,2.227-1.82,3.821-1.82c1.509,0,2.687,0.499,3.536,1.498
		c0.85,0.998,1.274,2.271,1.274,3.815V217.78z"/>
	<path fill="#FFFFFF" stroke="#000000" stroke-width="0.1" d="M212.141,205.855c0,0.504-0.239,0.816-0.719,0.938
		c-0.154,0.035-0.599,0.052-1.335,0.052v10.936c0,0.816-0.386,1.224-1.157,1.224s-1.157-0.407-1.157-1.224v-10.936
		c-0.735,0-1.181-0.017-1.335-0.052c-0.479-0.121-0.719-0.434-0.719-0.938c0-0.503,0.24-0.815,0.719-0.938
		c0.154-0.034,0.6-0.052,1.335-0.052c0-0.104-0.021-0.395-0.064-0.872c-0.044-0.478-0.065-0.872-0.065-1.185
		c0-1.476,0.425-2.213,1.274-2.213c0.849,0,1.273,0.737,1.273,2.213c0,0.312-0.017,0.707-0.052,1.185s-0.052,0.769-0.052,0.872
		c0.736,0,1.181,0.018,1.335,0.052C211.901,205.04,212.141,205.353,212.141,205.855z"/>
	<path fill="#FFFFFF" stroke="#000000" stroke-width="0.1" d="M217.055,201.376c0,0.399-0.14,0.737-0.416,1.015
		c-0.277,0.277-0.607,0.416-0.988,0.416c-0.398,0-0.732-0.139-1.001-0.416s-0.403-0.615-0.403-1.015c0-0.381,0.135-0.71,0.403-0.987
		s0.603-0.416,1.001-0.416c0.381,0,0.711,0.139,0.988,0.416C216.915,200.666,217.055,200.995,217.055,201.376z M216.82,217.78
		c0,0.816-0.386,1.224-1.157,1.224s-1.156-0.407-1.156-1.224v-11.852c0-0.816,0.385-1.225,1.156-1.225s1.157,0.408,1.157,1.225
		V217.78z"/>
	<path fill="#FFFFFF" stroke="#000000" stroke-width="0.1" d="M231.173,211.49c0,0.832-0.424,1.248-1.271,1.248h-8.583
		c0,1.248,0.371,2.267,1.115,3.055c0.743,0.789,1.729,1.184,2.956,1.184c0.829,0,1.599-0.165,2.308-0.494
		c0.396-0.173,0.881-0.468,1.452-0.884c0.432-0.329,0.734-0.494,0.907-0.494c0.553,0,0.83,0.34,0.83,1.021
		c0,0.768-0.764,1.466-2.288,2.094c-1.266,0.523-2.35,0.785-3.25,0.785c-2.028,0-3.614-0.703-4.758-2.109
		c-1.058-1.303-1.587-2.986-1.587-5.054c0-1.944,0.547-3.594,1.639-4.948c1.161-1.459,2.687-2.188,4.576-2.188
		c1.768,0,3.224,0.702,4.367,2.106C230.644,208.128,231.173,209.688,231.173,211.49z M228.858,210.996
		c0-1.161-0.31-2.148-0.93-2.964c-0.688-0.901-1.593-1.352-2.711-1.352c-1.24,0-2.204,0.416-2.893,1.248
		c-0.62,0.763-0.955,1.785-1.007,3.067H228.858z"/>
</g>
<path opacity="0.8" fill="#ED1F24" stroke="#FFFFFF" stroke-width="1.0874" d="M253.997,105.428
	c0,29.594-23.987,53.588-53.577,53.588c-29.597,0-53.588-23.994-53.588-53.588c0-29.585,23.991-53.581,53.588-53.581
	C230.01,51.847,253.997,75.842,253.997,105.428z"/>
</svg>
