<?xml version="1.0" encoding="utf-8"?>
<!-- Generator: Adobe Illustrator 16.0.0, SVG Export Plug-In . SVG Version: 6.00 Build 0)  -->
<!DOCTYPE svg PUBLIC "-//W3C//DTD SVG 1.1//EN" "http://www.w3.org/Graphics/SVG/1.1/DTD/svg11.dtd">
<svg version="1.1" id="main" xmlns="http://www.w3.org/2000/svg" xmlns:xlink="http://www.w3.org/1999/xlink" x="0px" y="0px"
	 width="320px" height="240px" viewBox="0 0 320 240" enable-background="new 0 0 320 240" xml:space="preserve">
<g>
	<path fill="#FFFFFF" stroke="#000000" stroke-width="0.1" d="M121.924,214.982c-0.13-2.444-0.285-5.408-0.285-7.566h-0.053
		c-0.624,2.028-1.326,4.238-2.21,6.656l-3.094,8.502h-1.716l-2.86-8.346c-0.832-2.496-1.508-4.732-2.002-6.812h-0.052
		c-0.053,2.184-0.183,5.096-0.339,7.748l-0.468,7.515h-2.158l1.223-17.524h2.886l2.99,8.476c0.728,2.158,1.3,4.082,1.768,5.902
		h0.053c0.468-1.768,1.092-3.692,1.872-5.902l3.12-8.476h2.886l1.092,17.524h-2.236L121.924,214.982z"/>
	<path fill="#FFFFFF" stroke="#000000" stroke-width="0.1" d="M129.411,216.803c0.052,3.094,2.002,4.368,4.316,4.368
		c1.638,0,2.652-0.286,3.484-0.65l0.416,1.638c-0.807,0.364-2.21,0.807-4.212,0.807c-3.875,0-6.188-2.574-6.188-6.37
		c0-3.797,2.235-6.761,5.902-6.761c4.134,0,5.2,3.588,5.2,5.902c0,0.468-0.026,0.806-0.078,1.066H129.411z M136.119,215.164
		c0.026-1.43-0.598-3.692-3.172-3.692c-2.34,0-3.328,2.106-3.51,3.692H136.119z"/>
	<path fill="#FFFFFF" stroke="#000000" stroke-width="0.1" d="M142.437,216.803c0.052,3.094,2.002,4.368,4.316,4.368
		c1.638,0,2.652-0.286,3.484-0.65l0.416,1.638c-0.807,0.364-2.21,0.807-4.212,0.807c-3.875,0-6.188-2.574-6.188-6.37
		c0-3.797,2.235-6.761,5.902-6.761c4.134,0,5.2,3.588,5.2,5.902c0,0.468-0.026,0.806-0.078,1.066H142.437z M149.145,215.164
		c0.026-1.43-0.598-3.692-3.172-3.692c-2.34,0-3.328,2.106-3.51,3.692H149.145z"/>
	<path fill="#FFFFFF" stroke="#000000" stroke-width="0.1" d="M154.188,214.021c0-1.482-0.026-2.757-0.104-3.927h2.002l0.104,2.496
		h0.078c0.571-1.689,1.976-2.756,3.51-2.756c0.234,0,0.416,0.026,0.624,0.052v2.158c-0.234-0.052-0.468-0.052-0.78-0.052
		c-1.612,0-2.756,1.196-3.067,2.912c-0.053,0.312-0.078,0.702-0.078,1.066v6.708h-2.288V214.021z"/>
	<path fill="#FFFFFF" stroke="#000000" stroke-width="0.1" d="M162.794,204.218h2.288v7.878h0.052
		c0.364-0.649,0.936-1.248,1.638-1.638c0.676-0.39,1.482-0.624,2.34-0.624c1.69,0,4.395,1.04,4.395,5.356v7.488h-2.288v-7.229
		c0-2.028-0.754-3.718-2.912-3.718c-1.481,0-2.626,1.04-3.068,2.262c-0.13,0.338-0.155,0.676-0.155,1.092v7.593h-2.288V204.218z"/>
	<path fill="#FFFFFF" stroke="#000000" stroke-width="0.1" d="M188.611,216.282c0,4.654-3.25,6.683-6.266,6.683
		c-3.381,0-6.032-2.496-6.032-6.475c0-4.187,2.782-6.656,6.24-6.656C186.168,209.834,188.611,212.46,188.611,216.282z
		 M178.653,216.412c0,2.756,1.56,4.836,3.796,4.836c2.185,0,3.822-2.054,3.822-4.888c0-2.132-1.066-4.811-3.77-4.811
		C179.823,211.55,178.653,214.046,178.653,216.412z"/>
	<path fill="#FFFFFF" stroke="#000000" stroke-width="0.1" d="M192.771,216.803c0.052,3.094,2.002,4.368,4.316,4.368
		c1.638,0,2.652-0.286,3.484-0.65l0.416,1.638c-0.807,0.364-2.21,0.807-4.212,0.807c-3.875,0-6.188-2.574-6.188-6.37
		c0-3.797,2.235-6.761,5.902-6.761c4.134,0,5.2,3.588,5.2,5.902c0,0.468-0.026,0.806-0.078,1.066H192.771z M199.479,215.164
		c0.026-1.43-0.598-3.692-3.172-3.692c-2.34,0-3.328,2.106-3.51,3.692H199.479z"/>
	<path fill="#FFFFFF" stroke="#000000" stroke-width="0.1" d="M206.784,215.866h0.052c0.312-0.442,0.729-0.988,1.092-1.43
		l3.719-4.343h2.73l-4.837,5.175l5.538,7.41h-2.808l-4.316-6.032l-1.17,1.3v4.732h-2.262v-18.461h2.262V215.866z"/>
</g>
<polygon opacity="0.8" fill="#3953A4" stroke="#FFFFFF" stroke-width="1.2284" points="197.657,174.65 168,144.994 168,103.052 
	197.657,73.395 239.599,73.395 269.256,103.052 269.256,144.994 239.599,174.65 "/>
<polygon opacity="0.8" fill="#69BD45" stroke="#FFFFFF" stroke-width="1.0711" points="72.205,171.121 50.756,149.673 
	50.756,119.338 72.205,97.889 102.539,97.889 123.988,119.338 123.988,149.673 102.539,171.121 "/>
<polygon opacity="0.8" fill="#ED1F24" stroke="#FFFFFF" stroke-width="1.4319" points="125.816,173.656 87.372,135.212 
	87.372,80.845 125.816,42.4 180.184,42.4 218.628,80.845 218.628,135.212 180.184,173.656 "/>
</svg>
