<?xml version="1.0" encoding="utf-8"?>
<!-- Generator: Adobe Illustrator 16.0.0, SVG Export Plug-In . SVG Version: 6.00 Build 0)  -->
<!DOCTYPE svg PUBLIC "-//W3C//DTD SVG 1.1//EN" "http://www.w3.org/Graphics/SVG/1.1/DTD/svg11.dtd">
<svg version="1.1" id="main" xmlns="http://www.w3.org/2000/svg" xmlns:xlink="http://www.w3.org/1999/xlink" x="0px" y="0px"
	 width="320px" height="240px" viewBox="0 0 320 240" enable-background="new 0 0 320 240" xml:space="preserve">
<g>
	<path fill="#FFFFFF" stroke="#000000" stroke-width="0.1" d="M133.349,216.11c0,5.995-2.635,8.991-7.903,8.991
		c-2.531,0-4.551-0.98-6.059-2.941c-1.369-1.788-2.054-3.983-2.054-6.587c0-2.708,0.719-4.938,2.158-6.691
		c1.542-1.875,3.64-2.812,6.292-2.812c1.04,0,2.27,0.251,3.691,0.754c1.769,0.624,2.652,1.369,2.652,2.235
		c0,0.312-0.109,0.572-0.326,0.78s-0.472,0.312-0.766,0.312c-0.261,0-0.65-0.18-1.17-0.539c-0.729-0.479-1.292-0.805-1.69-0.977
		c-0.798-0.358-1.646-0.539-2.548-0.539c-1.907,0-3.397,0.797-4.472,2.389c-0.919,1.384-1.378,3.08-1.378,5.087
		c0,2.059,0.459,3.772,1.378,5.139c1.074,1.574,2.6,2.362,4.575,2.362c1.871,0,3.259-0.685,4.16-2.055
		c0.779-1.161,1.17-2.712,1.17-4.653c-0.121,0-0.425,0.018-0.91,0.052c-0.485,0.035-0.875,0.052-1.17,0.052
		c-1.508,0-2.262-0.398-2.262-1.196c0-0.71,0.373-1.065,1.117-1.065h3.849C132.794,214.208,133.349,214.842,133.349,216.11z"/>
	<path fill="#FFFFFF" stroke="#000000" stroke-width="0.1" d="M146.297,217.588c0,0.832-0.424,1.248-1.271,1.248h-8.583
		c0,1.248,0.371,2.267,1.115,3.055c0.743,0.789,1.729,1.184,2.956,1.184c0.829,0,1.599-0.165,2.307-0.494
		c0.396-0.173,0.882-0.468,1.453-0.884c0.432-0.329,0.734-0.494,0.907-0.494c0.553,0,0.83,0.34,0.83,1.021
		c0,0.768-0.764,1.466-2.288,2.094c-1.266,0.523-2.35,0.785-3.25,0.785c-2.028,0-3.614-0.703-4.758-2.109
		c-1.058-1.303-1.587-2.986-1.587-5.054c0-1.944,0.547-3.594,1.638-4.948c1.162-1.459,2.688-2.188,4.577-2.188
		c1.768,0,3.224,0.702,4.367,2.106C145.768,214.226,146.297,215.785,146.297,217.588z M143.982,217.094
		c0-1.161-0.31-2.148-0.93-2.964c-0.688-0.901-1.593-1.352-2.711-1.352c-1.24,0-2.205,0.416-2.893,1.248
		c-0.62,0.763-0.955,1.785-1.007,3.067H143.982z"/>
	<path fill="#FFFFFF" stroke="#000000" stroke-width="0.1" d="M150.872,223.877c0,0.816-0.386,1.225-1.157,1.225
		s-1.157-0.408-1.157-1.225v-18.012c0-0.834,0.386-1.251,1.157-1.251s1.157,0.417,1.157,1.251V223.877z"/>
	<path fill="#FFFFFF" stroke="#000000" stroke-width="0.1" d="M164.703,219.527c0,1.737-0.486,3.101-1.456,4.09
		c-0.971,0.99-2.313,1.484-4.03,1.484c-1.732,0-3.08-0.494-4.042-1.484c-0.962-0.989-1.443-2.353-1.443-4.09v-7.501
		c0-0.816,0.381-1.225,1.145-1.225c0.849,0,1.273,0.815,1.273,2.444c0,0.468-0.043,1.287-0.13,2.457s-0.13,2.059-0.13,2.665
		c0,3.138,1.109,4.706,3.327,4.706c2.202,0,3.303-1.568,3.303-4.706c0-0.606-0.044-1.495-0.13-2.665
		c-0.087-1.17-0.13-1.989-0.13-2.457c0-1.629,0.433-2.444,1.3-2.444c0.763,0,1.144,0.408,1.144,1.225V219.527z"/>
	<path fill="#FFFFFF" stroke="#000000" stroke-width="0.1" d="M170.086,207.474c0,0.399-0.14,0.737-0.416,1.015
		c-0.277,0.277-0.607,0.416-0.988,0.416c-0.398,0-0.732-0.139-1.001-0.416s-0.403-0.615-0.403-1.015c0-0.381,0.135-0.71,0.403-0.987
		s0.603-0.416,1.001-0.416c0.381,0,0.711,0.139,0.988,0.416C169.946,206.764,170.086,207.093,170.086,207.474z M169.852,223.878
		c0,0.816-0.386,1.224-1.157,1.224s-1.157-0.407-1.157-1.224v-11.852c0-0.816,0.386-1.225,1.157-1.225s1.157,0.408,1.157,1.225
		V223.878z"/>
	<path fill="#FFFFFF" stroke="#000000" stroke-width="0.1" d="M184.905,223.877c0,0.816-0.386,1.225-1.156,1.225
		c-0.526,0-0.868-0.211-1.025-0.632c-0.088-0.229-0.132-0.668-0.132-1.317c-0.661,1.3-1.895,1.949-3.702,1.949
		c-1.825,0-3.294-0.755-4.407-2.266c-1.007-1.371-1.511-3.004-1.511-4.897c0-1.893,0.504-3.516,1.511-4.87
		c1.113-1.511,2.582-2.267,4.407-2.267c1.599,0,2.833,0.624,3.702,1.872c0-0.121-0.035-0.704-0.105-1.747
		c-0.068-1.043-0.103-1.913-0.103-2.609c0-2.469,0.459-3.703,1.378-3.703c0.763,0,1.144,0.417,1.144,1.251V223.877z
		 M182.852,217.926c0-1.369-0.285-2.521-0.855-3.458c-0.673-1.126-1.649-1.689-2.928-1.689s-2.254,0.563-2.928,1.689
		c-0.57,0.937-0.855,2.089-0.855,3.458s0.285,2.522,0.855,3.458c0.674,1.127,1.649,1.69,2.928,1.69s2.255-0.563,2.928-1.69
		C182.566,220.448,182.852,219.295,182.852,217.926z"/>
	<path fill="#FFFFFF" stroke="#000000" stroke-width="0.1" d="M199.049,217.588c0,0.832-0.423,1.248-1.271,1.248h-8.583
		c0,1.248,0.371,2.267,1.115,3.055c0.742,0.789,1.729,1.184,2.955,1.184c0.83,0,1.6-0.165,2.309-0.494
		c0.396-0.173,0.881-0.468,1.452-0.884c0.432-0.329,0.734-0.494,0.907-0.494c0.553,0,0.83,0.34,0.83,1.021
		c0,0.768-0.764,1.466-2.288,2.094c-1.266,0.523-2.35,0.785-3.25,0.785c-2.028,0-3.614-0.703-4.758-2.109
		c-1.058-1.303-1.587-2.986-1.587-5.054c0-1.944,0.547-3.594,1.639-4.948c1.161-1.459,2.687-2.188,4.576-2.188
		c1.768,0,3.223,0.702,4.367,2.106C198.521,214.226,199.049,215.785,199.049,217.588z M196.734,217.094
		c0-1.161-0.309-2.148-0.929-2.964c-0.688-0.901-1.593-1.352-2.711-1.352c-1.241,0-2.204,0.416-2.893,1.248
		c-0.62,0.763-0.955,1.785-1.007,3.067H196.734z"/>
	<path fill="#FFFFFF" stroke="#000000" stroke-width="0.1" d="M211.295,223.878c0,0.816-0.382,1.224-1.145,1.224
		c-0.85,0-1.273-0.842-1.273-2.527c0-0.451,0.039-1.241,0.117-2.37c0.076-1.129,0.116-1.98,0.116-2.554
		c0-1.511-0.208-2.648-0.624-3.413c-0.52-0.973-1.412-1.459-2.678-1.459s-2.158,0.486-2.678,1.459
		c-0.416,0.765-0.624,1.902-0.624,3.413c0,0.573,0.039,1.425,0.117,2.554s0.117,1.919,0.117,2.37c0,1.686-0.426,2.527-1.274,2.527
		c-0.764,0-1.145-0.407-1.145-1.224v-11.852c0-0.816,0.381-1.225,1.145-1.225c0.502,0,0.832,0.191,0.988,0.572
		c0.104,0.226,0.155,0.624,0.155,1.196l0.053,0.052c0.953-1.213,2.227-1.82,3.821-1.82c1.509,0,2.686,0.499,3.536,1.498
		c0.851,0.998,1.274,2.271,1.274,3.815V223.878z"/>
</g>
<g id="_x3C_Group_x3E__5_" opacity="0.8">
	<path fill="#3953A4" stroke="#FFFFFF" stroke-width="1.0874" d="M138.845,124.701l-35.398,5.736v42.568
		c-1.857-0.652-4.067-0.758-6.328-0.193c-5.02,1.248-8.308,5.393-7.344,9.24c0.563,3.566,5.816,5.957,10.826,4.697
		c4.416-1.1,7.489-4.438,7.514-7.84h0.004l0.116-35.967l25.94-4.74v28.908c-1.886-0.664-4.146-0.781-6.434-0.215
		c-5.074,1.268-8.395,5.445-7.421,9.344c0.971,3.885,5.867,6.012,10.942,4.752c4.62-1.172,7.582-4.34,7.582-8.307V124.701z"/>
</g>
<g id="_x3C_Group_x3E__4_" opacity="0.8">
	<path fill="#69BD45" stroke="#FFFFFF" d="M180.083,84.287l-53.098,8.605v63.854c-2.787-0.979-6.102-1.137-9.492-0.291
		c-7.529,1.871-12.462,8.088-11.016,13.861c0.845,5.348,8.725,8.934,16.238,7.045c6.625-1.648,11.234-6.654,11.271-11.76h0.007
		l0.175-53.949l38.909-7.109v43.361c-2.828-0.996-6.219-1.174-9.65-0.322c-7.611,1.902-12.592,8.168-11.129,14.014
		c1.454,5.83,8.799,9.02,16.412,7.129c6.93-1.756,11.373-6.508,11.373-12.459V84.287z"/>
</g>
<g id="_x3C_Group_x3E__3_" opacity="0.8">
	<path fill="#ED1F24" stroke="#FFFFFF" d="M230.394,40.141l-70.797,11.474v85.138c-3.715-1.305-8.135-1.514-12.656-0.389
		c-10.039,2.496-16.615,10.785-14.688,18.484c1.128,7.129,11.633,11.91,21.653,9.391c8.831-2.195,14.979-8.873,15.027-15.68h0.008
		l0.234-71.931l51.878-9.48v57.815c-3.771-1.328-8.292-1.564-12.867-0.43c-10.148,2.537-16.788,10.891-14.839,18.686
		c1.939,7.771,11.732,12.025,21.883,9.506c9.239-2.342,15.164-8.68,15.164-16.611V40.141z"/>
</g>
</svg>
