<?xml version="1.0" encoding="utf-8"?>
<!-- Generator: Adobe Illustrator 16.0.0, SVG Export Plug-In . SVG Version: 6.00 Build 0)  -->
<!DOCTYPE svg PUBLIC "-//W3C//DTD SVG 1.1//EN" "http://www.w3.org/Graphics/SVG/1.1/DTD/svg11.dtd">
<svg version="1.1" id="main" xmlns="http://www.w3.org/2000/svg" xmlns:xlink="http://www.w3.org/1999/xlink" x="0px" y="0px"
	 width="320px" height="240px" viewBox="0 0 320 240" enable-background="new 0 0 320 240" xml:space="preserve">
<rect x="82.66" y="61.693" opacity="0.8" fill="#69BD45" stroke="#FFFFFF" stroke-width="0.9328" width="153.199" height="7.23"/>
<rect x="82.66" y="86.778" opacity="0.8" fill="#3953A4" stroke="#FFFFFF" stroke-width="1.0667" width="153.199" height="13.625"/>
<rect x="82.66" y="116.302" opacity="0.8" fill="#ED1F24" stroke="#FFFFFF" stroke-width="1.1013" width="153.199" height="32.638"/>
<g>
	<path fill="#FFFFFF" stroke="#000000" stroke-width="0.1" d="M115.19,210.332h2.288v15.627h7.488v1.897h-9.776V210.332z"/>
	<path fill="#FFFFFF" stroke="#000000" stroke-width="0.1" d="M129.959,211.736c0,0.779-0.547,1.403-1.457,1.403
		c-0.832,0-1.377-0.624-1.377-1.403c0-0.78,0.57-1.431,1.428-1.431C129.385,210.306,129.959,210.93,129.959,211.736z
		 M127.41,227.856v-12.585h2.288v12.585H127.41z"/>
	<path fill="#FFFFFF" stroke="#000000" stroke-width="0.1" d="M130.398,231.549c1.066-0.078,1.951-0.364,2.496-0.988
		c0.625-0.702,0.885-1.689,0.885-4.706v-10.583h2.289v11.467c0,2.444-0.391,4.03-1.508,5.174c-1.016,1.015-2.68,1.431-3.9,1.431
		L130.398,231.549z M136.328,211.736c0,0.754-0.521,1.403-1.457,1.403c-0.831,0-1.377-0.649-1.377-1.403
		c0-0.78,0.571-1.431,1.43-1.431S136.328,210.956,136.328,211.736z"/>
	<path fill="#FFFFFF" stroke="#000000" stroke-width="0.1" d="M139.812,218.678c0-1.326-0.026-2.365-0.104-3.406h2.027l0.13,2.08
		h0.052c0.625-1.17,2.08-2.34,4.16-2.34c1.742,0,4.446,1.04,4.446,5.356v7.488h-2.288v-7.255c0-2.027-0.754-3.718-2.912-3.718
		c-1.482,0-2.652,1.066-3.068,2.341c-0.104,0.285-0.155,0.676-0.155,1.065v7.566h-2.288V218.678z"/>
	<path fill="#FFFFFF" stroke="#000000" stroke-width="0.1" d="M165.084,209.396v15.211c0,1.118,0.053,2.392,0.104,3.25h-2.028
		l-0.104-2.185h-0.078c-0.678,1.404-2.186,2.471-4.238,2.471c-3.042,0-5.408-2.574-5.408-6.396c-0.027-4.186,2.6-6.734,5.642-6.734
		c1.95,0,3.225,0.91,3.796,1.898h0.053v-7.515H165.084z M162.822,220.395c0-0.286-0.026-0.676-0.105-0.963
		c-0.337-1.43-1.585-2.625-3.301-2.625c-2.367,0-3.771,2.08-3.771,4.836c0,2.548,1.274,4.654,3.718,4.654
		c1.535,0,2.938-1.041,3.354-2.73c0.079-0.312,0.105-0.624,0.105-0.988V220.395z"/>
	<path fill="#FFFFFF" stroke="#000000" stroke-width="0.1" d="M171.454,211.736c0,0.779-0.546,1.403-1.456,1.403
		c-0.832,0-1.379-0.624-1.379-1.403c0-0.78,0.572-1.431,1.43-1.431C170.881,210.306,171.454,210.93,171.454,211.736z
		 M168.906,227.856v-12.585h2.288v12.585H168.906z"/>
	<path fill="#FFFFFF" stroke="#000000" stroke-width="0.1" d="M177.252,221.044h0.052c0.312-0.442,0.728-0.987,1.093-1.43
		l3.718-4.343h2.729l-4.836,5.175l5.537,7.41h-2.807l-4.316-6.032l-1.17,1.3v4.732h-2.262v-18.461h2.262V221.044z"/>
	<path fill="#FFFFFF" stroke="#000000" stroke-width="0.1" d="M189.939,212.256v3.016h3.276v1.742h-3.276v6.787
		c0,1.56,0.441,2.443,1.715,2.443c0.625,0,0.988-0.052,1.327-0.156l0.104,1.742c-0.443,0.156-1.145,0.312-2.028,0.312
		c-1.066,0-1.925-0.364-2.471-0.962c-0.624-0.702-0.884-1.82-0.884-3.302v-6.865h-1.951v-1.742h1.951v-2.34L189.939,212.256z"/>
	<path fill="#FFFFFF" stroke="#000000" stroke-width="0.1" d="M196.906,221.98c0.053,3.094,2.002,4.368,4.316,4.368
		c1.639,0,2.652-0.286,3.484-0.65l0.416,1.638c-0.807,0.364-2.211,0.807-4.213,0.807c-3.875,0-6.188-2.574-6.188-6.37
		s2.236-6.761,5.902-6.761c4.133,0,5.2,3.588,5.2,5.902c0,0.469-0.026,0.807-0.078,1.066H196.906z M203.615,220.342
		c0.025-1.43-0.599-3.691-3.173-3.691c-2.341,0-3.328,2.105-3.51,3.691H203.615z"/>
</g>
</svg>
