<?xml version="1.0" encoding="utf-8"?>
<!-- Generator: Adobe Illustrator 16.0.0, SVG Export Plug-In . SVG Version: 6.00 Build 0)  -->
<!DOCTYPE svg PUBLIC "-//W3C//DTD SVG 1.1//EN" "http://www.w3.org/Graphics/SVG/1.1/DTD/svg11.dtd">
<svg version="1.1" id="main" xmlns="http://www.w3.org/2000/svg" xmlns:xlink="http://www.w3.org/1999/xlink" x="0px" y="0px"
	 width="320px" height="240px" viewBox="0 0 320 240" enable-background="new 0 0 320 240" xml:space="preserve">
<g>
	<path fill="#FFFFFF" stroke="#000000" stroke-width="0.1" d="M125.057,210.858c0,2.669-0.633,4.862-1.897,6.578
		c-1.422,1.924-3.424,2.886-6.006,2.886h-4.811c-0.814,0-1.222-0.416-1.222-1.248v-16.198c0-0.832,0.407-1.248,1.222-1.248h4.498
		c2.583,0,4.619,0.91,6.11,2.73C124.354,206.058,125.057,208.224,125.057,210.858z M122.613,210.858c0-2.09-0.476-3.773-1.427-5.052
		c-1.071-1.434-2.618-2.15-4.641-2.15h-3.111v14.638h3.267c2.005,0,3.526-0.769,4.563-2.306
		C122.163,214.676,122.613,212.966,122.613,210.858z"/>
	<path fill="#FFFFFF" stroke="#000000" stroke-width="0.1" d="M130.205,202.876c0,0.399-0.14,0.737-0.416,1.015
		c-0.277,0.277-0.607,0.416-0.988,0.416c-0.398,0-0.732-0.139-1.001-0.416s-0.403-0.615-0.403-1.015c0-0.381,0.135-0.71,0.403-0.987
		s0.603-0.416,1.001-0.416c0.381,0,0.711,0.139,0.988,0.416C130.065,202.166,130.205,202.495,130.205,202.876z M129.971,219.28
		c0,0.816-0.386,1.224-1.157,1.224s-1.156-0.407-1.156-1.224v-11.852c0-0.816,0.385-1.225,1.156-1.225s1.157,0.408,1.157,1.225
		V219.28z"/>
	<path fill="#FFFFFF" stroke="#000000" stroke-width="0.1" d="M142.243,207.946c0,0.26-0.092,0.49-0.272,0.689
		c-0.182,0.199-0.401,0.299-0.661,0.299c-0.225,0-0.617-0.126-1.179-0.377s-1.093-0.377-1.594-0.377
		c-1.278,0-2.28,0.555-3.006,1.664c-0.622,0.971-0.933,2.132-0.933,3.483c0,1.353,0.311,2.514,0.933,3.484
		c0.726,1.109,1.728,1.664,3.006,1.664c0.553,0,1.109-0.13,1.671-0.391c0.562-0.26,0.92-0.39,1.075-0.39
		c0.588,0,0.882,0.324,0.882,0.971c0,0.647-0.478,1.138-1.431,1.47c-0.693,0.245-1.43,0.367-2.21,0.367
		c-1.959,0-3.51-0.721-4.653-2.162c-1.058-1.319-1.586-2.986-1.586-5.001c0-2.014,0.528-3.681,1.586-5.001
		c1.144-1.424,2.694-2.136,4.653-2.136c0.814,0,1.561,0.104,2.236,0.312C141.749,206.828,142.243,207.306,142.243,207.946z"/>
	<path fill="#FFFFFF" stroke="#000000" stroke-width="0.1" d="M154.775,219.28c0,0.816-0.382,1.224-1.145,1.224
		c-0.85,0-1.273-0.842-1.273-2.527c0-0.451,0.038-1.241,0.116-2.37s0.117-1.98,0.117-2.554c0-1.511-0.208-2.648-0.624-3.413
		c-0.52-0.973-1.413-1.459-2.678-1.459c-1.266,0-2.158,0.486-2.678,1.459c-0.416,0.765-0.624,1.902-0.624,3.413
		c0,0.573,0.039,1.425,0.116,2.554c0.078,1.129,0.117,1.919,0.117,2.37c0,1.686-0.425,2.527-1.273,2.527
		c-0.764,0-1.145-0.408-1.145-1.225v-18.012c0-0.834,0.386-1.251,1.157-1.251s1.157,0.417,1.157,1.252v6.756
		c0.956-1.213,2.233-1.82,3.833-1.82c1.513,0,2.694,0.504,3.547,1.511c0.852,1.008,1.278,2.275,1.278,3.803V219.28z"/>
	<path fill="#FFFFFF" stroke="#000000" stroke-width="0.1" d="M162.626,207.355c0,0.504-0.239,0.816-0.719,0.938
		c-0.154,0.035-0.599,0.052-1.335,0.052v10.936c0,0.816-0.386,1.224-1.157,1.224s-1.157-0.407-1.157-1.224v-10.936
		c-0.735,0-1.181-0.017-1.335-0.052c-0.479-0.121-0.719-0.434-0.719-0.938c0-0.503,0.24-0.815,0.719-0.938
		c0.154-0.034,0.6-0.052,1.335-0.052c0-0.104-0.021-0.395-0.064-0.872c-0.044-0.478-0.065-0.872-0.065-1.185
		c0-1.476,0.425-2.213,1.274-2.213c0.849,0,1.273,0.737,1.273,2.213c0,0.312-0.017,0.707-0.052,1.185s-0.052,0.769-0.052,0.872
		c0.736,0,1.181,0.018,1.335,0.052C162.387,206.54,162.626,206.853,162.626,207.355z"/>
	<path fill="#FFFFFF" stroke="#000000" stroke-width="0.1" d="M175.158,219.28c0,0.816-0.382,1.224-1.145,1.224
		c-0.85,0-1.273-0.842-1.273-2.527c0-0.451,0.038-1.241,0.116-2.37s0.117-1.98,0.117-2.554c0-1.511-0.208-2.648-0.624-3.413
		c-0.52-0.973-1.413-1.459-2.678-1.459c-1.266,0-2.158,0.486-2.678,1.459c-0.416,0.765-0.624,1.902-0.624,3.413
		c0,0.573,0.039,1.425,0.116,2.554c0.078,1.129,0.117,1.919,0.117,2.37c0,1.686-0.425,2.527-1.273,2.527
		c-0.764,0-1.145-0.408-1.145-1.225v-18.012c0-0.834,0.386-1.251,1.157-1.251s1.157,0.417,1.157,1.252v6.756
		c0.956-1.213,2.233-1.82,3.833-1.82c1.513,0,2.694,0.504,3.547,1.511c0.852,1.008,1.278,2.275,1.278,3.803V219.28z"/>
	<path fill="#FFFFFF" stroke="#000000" stroke-width="0.1" d="M188.729,212.99c0,0.832-0.424,1.248-1.271,1.248h-8.583
		c0,1.248,0.371,2.267,1.115,3.055c0.743,0.789,1.729,1.184,2.956,1.184c0.829,0,1.599-0.165,2.308-0.494
		c0.396-0.173,0.881-0.468,1.452-0.884c0.432-0.329,0.734-0.494,0.907-0.494c0.553,0,0.83,0.34,0.83,1.021
		c0,0.768-0.764,1.466-2.288,2.094c-1.266,0.523-2.35,0.785-3.25,0.785c-2.028,0-3.614-0.703-4.758-2.109
		c-1.058-1.303-1.587-2.986-1.587-5.054c0-1.944,0.547-3.594,1.639-4.948c1.161-1.459,2.687-2.188,4.576-2.188
		c1.768,0,3.224,0.702,4.367,2.106C188.2,209.628,188.729,211.188,188.729,212.99z M186.415,212.496c0-1.161-0.31-2.148-0.93-2.964
		c-0.688-0.901-1.593-1.352-2.711-1.352c-1.24,0-2.204,0.416-2.893,1.248c-0.62,0.763-0.955,1.785-1.007,3.067H186.415z"/>
	<path fill="#FFFFFF" stroke="#000000" stroke-width="0.1" d="M193.513,202.876c0,0.399-0.14,0.737-0.416,1.015
		c-0.277,0.277-0.607,0.416-0.988,0.416c-0.398,0-0.732-0.139-1.001-0.416s-0.403-0.615-0.403-1.015c0-0.381,0.135-0.71,0.403-0.987
		s0.603-0.416,1.001-0.416c0.381,0,0.711,0.139,0.988,0.416C193.373,202.166,193.513,202.495,193.513,202.876z M193.278,219.28
		c0,0.816-0.386,1.224-1.157,1.224s-1.156-0.407-1.156-1.224v-11.852c0-0.816,0.385-1.225,1.156-1.225s1.157,0.408,1.157,1.225
		V219.28z"/>
	<path fill="#FFFFFF" stroke="#000000" stroke-width="0.1" d="M208.332,219.279c0,0.816-0.386,1.225-1.156,1.225
		c-0.526,0-0.868-0.211-1.025-0.632c-0.088-0.229-0.132-0.668-0.132-1.317c-0.661,1.3-1.895,1.949-3.702,1.949
		c-1.825,0-3.294-0.755-4.406-2.266c-1.008-1.371-1.512-3.004-1.512-4.897c0-1.893,0.504-3.516,1.512-4.87
		c1.112-1.511,2.581-2.267,4.406-2.267c1.599,0,2.833,0.624,3.702,1.872c0-0.121-0.035-0.704-0.104-1.747s-0.104-1.913-0.104-2.609
		c0-2.469,0.459-3.703,1.378-3.703c0.763,0,1.144,0.417,1.144,1.251V219.279z M206.278,213.328c0-1.369-0.285-2.521-0.855-3.458
		c-0.673-1.126-1.649-1.689-2.928-1.689s-2.254,0.563-2.928,1.689c-0.57,0.937-0.855,2.089-0.855,3.458s0.285,2.522,0.855,3.458
		c0.674,1.127,1.649,1.69,2.928,1.69s2.255-0.563,2.928-1.69C205.993,215.851,206.278,214.697,206.278,213.328z"/>
</g>
<g opacity="0.8">
	<rect x="117.88" y="90.539" fill="#69BD45" stroke="#FFFFFF" stroke-width="0.8511" width="11.481" height="11.476"/>
	<rect x="117.88" y="105.297" fill="#69BD45" stroke="#FFFFFF" stroke-width="0.8511" width="11.481" height="11.477"/>
	<rect x="103.125" y="105.297" fill="#69BD45" stroke="#FFFFFF" stroke-width="0.8511" width="11.475" height="11.477"/>
	<rect x="103.125" y="90.539" fill="#69BD45" stroke="#FFFFFF" stroke-width="0.8511" width="11.475" height="11.476"/>
	<rect x="103.125" y="120.381" fill="#69BD45" stroke="#FFFFFF" stroke-width="0.8511" width="11.475" height="11.479"/>
	<rect x="117.888" y="120.381" fill="#69BD45" stroke="#FFFFFF" stroke-width="0.8511" width="11.474" height="11.479"/>
	<rect x="133.2" y="90.539" fill="#69BD45" stroke="#FFFFFF" stroke-width="0.8511" width="11.479" height="11.476"/>
	<rect x="133.2" y="105.297" fill="#69BD45" stroke="#FFFFFF" stroke-width="0.8511" width="11.479" height="11.477"/>
	<rect x="133.2" y="120.381" fill="#69BD45" stroke="#FFFFFF" stroke-width="0.8511" width="11.479" height="11.479"/>
	<rect x="117.605" y="135.481" fill="#69BD45" stroke="#FFFFFF" stroke-width="0.8511" width="11.479" height="11.478"/>
	<rect x="117.605" y="150.24" fill="#69BD45" stroke="#FFFFFF" stroke-width="0.8511" width="11.479" height="11.471"/>
	<rect x="102.85" y="150.24" fill="#69BD45" stroke="#FFFFFF" stroke-width="0.8511" width="11.475" height="11.471"/>
	<rect x="102.85" y="135.481" fill="#69BD45" stroke="#FFFFFF" stroke-width="0.8511" width="11.475" height="11.478"/>
	<rect x="132.922" y="135.481" fill="#69BD45" stroke="#FFFFFF" stroke-width="0.8511" width="11.482" height="11.478"/>
	<rect x="132.922" y="150.24" fill="#69BD45" stroke="#FFFFFF" stroke-width="0.8511" width="11.482" height="11.471"/>
	<rect x="147.548" y="90.539" fill="#69BD45" stroke="#FFFFFF" stroke-width="0.8511" width="11.486" height="11.476"/>
	<rect x="147.548" y="105.292" fill="#69BD45" stroke="#FFFFFF" stroke-width="0.8511" width="11.486" height="11.482"/>
	<rect x="147.556" y="120.381" fill="#69BD45" stroke="#FFFFFF" stroke-width="0.8511" width="11.479" height="11.479"/>
	<rect x="162.867" y="90.539" fill="#69BD45" stroke="#FFFFFF" stroke-width="0.8511" width="11.479" height="11.476"/>
	<rect x="162.867" y="105.292" fill="#69BD45" stroke="#FFFFFF" stroke-width="0.8511" width="11.479" height="11.482"/>
	<rect x="162.867" y="120.381" fill="#69BD45" stroke="#FFFFFF" stroke-width="0.8511" width="11.479" height="11.479"/>
	<rect x="147.271" y="135.478" fill="#69BD45" stroke="#FFFFFF" stroke-width="0.8511" width="11.485" height="11.481"/>
	<rect x="147.271" y="150.236" fill="#69BD45" stroke="#FFFFFF" stroke-width="0.8511" width="11.485" height="11.475"/>
	<rect x="162.59" y="135.478" fill="#69BD45" stroke="#FFFFFF" stroke-width="0.8511" width="11.481" height="11.481"/>
	<rect x="162.59" y="150.236" fill="#69BD45" stroke="#FFFFFF" stroke-width="0.8511" width="11.481" height="11.475"/>
</g>
<g opacity="0.8">
	<rect x="143.317" y="66.905" fill="#3953A4" stroke="#FFFFFF" stroke-width="0.8511" width="11.48" height="11.477"/>
	<rect x="143.317" y="81.664" fill="#3953A4" stroke="#FFFFFF" stroke-width="0.8511" width="11.48" height="11.475"/>
	<rect x="128.561" y="81.664" fill="#3953A4" stroke="#FFFFFF" stroke-width="0.8511" width="11.474" height="11.475"/>
	<rect x="128.561" y="66.905" fill="#3953A4" stroke="#FFFFFF" stroke-width="0.8511" width="11.474" height="11.477"/>
	<rect x="128.561" y="96.747" fill="#3953A4" stroke="#FFFFFF" stroke-width="0.8511" width="11.474" height="11.477"/>
	<rect x="143.325" y="96.747" fill="#3953A4" stroke="#FFFFFF" stroke-width="0.8511" width="11.473" height="11.477"/>
	<rect x="158.637" y="66.905" fill="#3953A4" stroke="#FFFFFF" stroke-width="0.8511" width="11.479" height="11.477"/>
	<rect x="158.637" y="81.664" fill="#3953A4" stroke="#FFFFFF" stroke-width="0.8511" width="11.479" height="11.475"/>
	<rect x="158.637" y="96.747" fill="#3953A4" stroke="#FFFFFF" stroke-width="0.8511" width="11.479" height="11.477"/>
	<rect x="143.043" y="111.848" fill="#3953A4" stroke="#FFFFFF" stroke-width="0.8511" width="11.478" height="11.478"/>
	<rect x="143.043" y="126.605" fill="#3953A4" stroke="#FFFFFF" stroke-width="0.8511" width="11.478" height="11.473"/>
	<rect x="128.286" y="126.605" fill="#3953A4" stroke="#FFFFFF" stroke-width="0.8511" width="11.474" height="11.473"/>
	<rect x="128.286" y="111.848" fill="#3953A4" stroke="#FFFFFF" stroke-width="0.8511" width="11.474" height="11.478"/>
	<rect x="158.358" y="111.848" fill="#3953A4" stroke="#FFFFFF" stroke-width="0.8511" width="11.482" height="11.478"/>
	<rect x="158.358" y="126.605" fill="#3953A4" stroke="#FFFFFF" stroke-width="0.8511" width="11.482" height="11.473"/>
	<rect x="172.984" y="66.905" fill="#3953A4" stroke="#FFFFFF" stroke-width="0.8511" width="11.486" height="11.477"/>
	<rect x="172.984" y="81.657" fill="#3953A4" stroke="#FFFFFF" stroke-width="0.8511" width="11.486" height="11.481"/>
	<rect x="172.992" y="96.747" fill="#3953A4" stroke="#FFFFFF" stroke-width="0.8511" width="11.479" height="11.477"/>
	<rect x="188.303" y="66.905" fill="#3953A4" stroke="#FFFFFF" stroke-width="0.8511" width="11.479" height="11.477"/>
	<rect x="188.303" y="81.657" fill="#3953A4" stroke="#FFFFFF" stroke-width="0.8511" width="11.479" height="11.481"/>
	<rect x="188.303" y="96.747" fill="#3953A4" stroke="#FFFFFF" stroke-width="0.8511" width="11.479" height="11.477"/>
	<rect x="172.709" y="111.843" fill="#3953A4" stroke="#FFFFFF" stroke-width="0.8511" width="11.484" height="11.482"/>
	<rect x="172.709" y="126.601" fill="#3953A4" stroke="#FFFFFF" stroke-width="0.8511" width="11.484" height="11.478"/>
	<rect x="188.025" y="111.843" fill="#3953A4" stroke="#FFFFFF" stroke-width="0.8511" width="11.48" height="11.482"/>
	<rect x="188.025" y="126.601" fill="#3953A4" stroke="#FFFFFF" stroke-width="0.8511" width="11.48" height="11.478"/>
</g>
<g opacity="0.8">
	<rect x="170.695" y="46.078" fill="#ED1F24" stroke="#FFFFFF" stroke-width="0.8511" width="11.481" height="11.476"/>
	<rect x="170.695" y="60.834" fill="#ED1F24" stroke="#FFFFFF" stroke-width="0.8511" width="11.481" height="11.477"/>
	<rect x="155.939" y="60.834" fill="#ED1F24" stroke="#FFFFFF" stroke-width="0.8511" width="11.474" height="11.477"/>
	<rect x="155.939" y="46.078" fill="#ED1F24" stroke="#FFFFFF" stroke-width="0.8511" width="11.474" height="11.476"/>
	<rect x="155.939" y="75.92" fill="#ED1F24" stroke="#FFFFFF" stroke-width="0.8511" width="11.474" height="11.477"/>
	<rect x="170.703" y="75.92" fill="#ED1F24" stroke="#FFFFFF" stroke-width="0.8511" width="11.474" height="11.477"/>
	<rect x="186.016" y="46.078" fill="#ED1F24" stroke="#FFFFFF" stroke-width="0.8511" width="11.478" height="11.476"/>
	<rect x="186.016" y="60.834" fill="#ED1F24" stroke="#FFFFFF" stroke-width="0.8511" width="11.478" height="11.477"/>
	<rect x="186.016" y="75.92" fill="#ED1F24" stroke="#FFFFFF" stroke-width="0.8511" width="11.478" height="11.477"/>
	<rect x="170.42" y="91.02" fill="#ED1F24" stroke="#FFFFFF" stroke-width="0.8511" width="11.479" height="11.476"/>
	<rect x="170.42" y="105.777" fill="#ED1F24" stroke="#FFFFFF" stroke-width="0.8511" width="11.479" height="11.471"/>
	<rect x="155.665" y="105.777" fill="#ED1F24" stroke="#FFFFFF" stroke-width="0.8511" width="11.474" height="11.471"/>
	<rect x="155.665" y="91.02" fill="#ED1F24" stroke="#FFFFFF" stroke-width="0.8511" width="11.474" height="11.476"/>
	<rect x="185.737" y="91.02" fill="#ED1F24" stroke="#FFFFFF" stroke-width="0.8511" width="11.481" height="11.476"/>
	<rect x="185.737" y="105.777" fill="#ED1F24" stroke="#FFFFFF" stroke-width="0.8511" width="11.481" height="11.471"/>
	<rect x="200.362" y="46.078" fill="#ED1F24" stroke="#FFFFFF" stroke-width="0.8511" width="11.487" height="11.476"/>
	<rect x="200.362" y="60.83" fill="#ED1F24" stroke="#FFFFFF" stroke-width="0.8511" width="11.487" height="11.481"/>
	<rect x="200.37" y="75.92" fill="#ED1F24" stroke="#FFFFFF" stroke-width="0.8511" width="11.479" height="11.477"/>
	<rect x="215.682" y="46.078" fill="#ED1F24" stroke="#FFFFFF" stroke-width="0.8511" width="11.479" height="11.476"/>
	<rect x="215.682" y="60.83" fill="#ED1F24" stroke="#FFFFFF" stroke-width="0.8511" width="11.479" height="11.481"/>
	<rect x="215.682" y="75.92" fill="#ED1F24" stroke="#FFFFFF" stroke-width="0.8511" width="11.479" height="11.477"/>
	<rect x="200.087" y="91.014" fill="#ED1F24" stroke="#FFFFFF" stroke-width="0.8511" width="11.483" height="11.481"/>
	<rect x="200.087" y="105.773" fill="#ED1F24" stroke="#FFFFFF" stroke-width="0.8511" width="11.483" height="11.475"/>
	<rect x="215.403" y="91.014" fill="#ED1F24" stroke="#FFFFFF" stroke-width="0.8511" width="11.481" height="11.481"/>
	<rect x="215.403" y="105.773" fill="#ED1F24" stroke="#FFFFFF" stroke-width="0.8511" width="11.481" height="11.475"/>
</g>
</svg>
