<?xml version="1.0" encoding="utf-8"?>
<!-- Generator: Adobe Illustrator 16.0.0, SVG Export Plug-In . SVG Version: 6.00 Build 0)  -->
<!DOCTYPE svg PUBLIC "-//W3C//DTD SVG 1.1//EN" "http://www.w3.org/Graphics/SVG/1.1/DTD/svg11.dtd">
<svg version="1.1" id="main" xmlns="http://www.w3.org/2000/svg" xmlns:xlink="http://www.w3.org/1999/xlink" x="0px" y="0px"
	 width="320px" height="240px" viewBox="0 0 320 240" enable-background="new 0 0 320 240" xml:space="preserve">
<g>
	<path fill="#FFFFFF" stroke="#000000" stroke-width="0.1" d="M133.521,200.909c0,0.66-0.858,3.368-2.574,8.123
		c-1.075,2.916-2.149,5.824-3.224,8.723c-0.295,0.833-0.737,1.249-1.326,1.249c-0.59,0-1.032-0.416-1.326-1.249
		c-1.075-2.898-2.149-5.807-3.224-8.723c-1.717-4.755-2.574-7.463-2.574-8.123c0-0.26,0.1-0.481,0.299-0.663
		c0.199-0.183,0.438-0.273,0.715-0.273c0.398,0,0.719,0.155,0.962,0.468c0.121,0.173,0.269,0.512,0.442,1.014l4.68,13.65h0.052
		l4.681-13.65c0.173-0.502,0.32-0.841,0.441-1.014c0.243-0.312,0.563-0.468,0.962-0.468c0.277,0,0.516,0.091,0.716,0.273
		C133.42,200.428,133.521,200.649,133.521,200.909z"/>
	<path fill="#FFFFFF" stroke="#000000" stroke-width="0.1" d="M138.122,201.376c0,0.399-0.14,0.737-0.416,1.015
		c-0.277,0.277-0.607,0.416-0.988,0.416c-0.398,0-0.732-0.139-1.001-0.416s-0.403-0.615-0.403-1.015c0-0.381,0.135-0.71,0.403-0.987
		s0.603-0.416,1.001-0.416c0.381,0,0.711,0.139,0.988,0.416C137.982,200.666,138.122,200.995,138.122,201.376z M137.888,217.78
		c0,0.816-0.386,1.224-1.157,1.224s-1.156-0.407-1.156-1.224v-11.852c0-0.816,0.385-1.225,1.156-1.225s1.157,0.408,1.157,1.225
		V217.78z"/>
	<path fill="#FFFFFF" stroke="#000000" stroke-width="0.1" d="M152.084,211.841c0,1.894-0.504,3.526-1.513,4.897
		c-1.112,1.511-2.58,2.266-4.405,2.266c-1.808,0-3.042-0.649-3.702-1.949c0,0.649-0.044,1.089-0.132,1.317
		c-0.157,0.421-0.5,0.632-1.025,0.632c-0.771,0-1.157-0.408-1.157-1.225v-18.012c0-0.834,0.382-1.251,1.145-1.251
		c0.918,0,1.378,1.234,1.378,3.703c0,0.696-0.035,1.566-0.104,2.609s-0.104,1.626-0.104,1.747c0.869-1.248,2.104-1.872,3.702-1.872
		c1.825,0,3.293,0.756,4.405,2.267C151.58,208.325,152.084,209.948,152.084,211.841z M149.77,211.828
		c0-1.369-0.285-2.521-0.854-3.458c-0.674-1.126-1.65-1.689-2.929-1.689s-2.254,0.563-2.928,1.689
		c-0.57,0.937-0.854,2.089-0.854,3.458s0.284,2.522,0.854,3.458c0.674,1.127,1.649,1.69,2.928,1.69s2.255-0.563,2.929-1.69
		C149.484,214.351,149.77,213.197,149.77,211.828z"/>
	<path fill="#FFFFFF" stroke="#000000" stroke-width="0.1" d="M160.117,205.876c0,0.504-0.379,0.895-1.137,1.172
		c-1.12,0.4-1.835,0.738-2.146,1.017c-0.758,0.643-1.138,1.658-1.138,3.048v6.668c0,0.816-0.386,1.224-1.156,1.224
		c-0.771,0-1.157-0.407-1.157-1.224v-11.852c0-0.816,0.381-1.225,1.144-1.225c0.59,0,0.953,0.286,1.093,0.858
		c0.034,0.156,0.052,0.676,0.052,1.56h0.052c0.295-0.624,0.711-1.17,1.248-1.638c0.624-0.521,1.248-0.78,1.872-0.78
		C159.692,204.704,160.117,205.095,160.117,205.876z"/>
	<path fill="#FFFFFF" stroke="#000000" stroke-width="0.1" d="M173.793,217.884c0,0.313-0.1,0.578-0.299,0.795
		s-0.455,0.325-0.767,0.325c-0.521,0-0.85-0.245-0.988-0.736c-0.052-0.193-0.078-0.658-0.078-1.396
		c-0.976,1.422-2.239,2.132-3.79,2.132c-1.882,0-3.397-0.737-4.548-2.214c-1.046-1.354-1.568-3.004-1.568-4.949
		c0-1.927,0.522-3.568,1.568-4.923c1.15-1.476,2.666-2.214,4.548-2.214c1.412,0,2.675,0.615,3.79,1.846
		c0-0.606,0.043-1.014,0.13-1.222c0.139-0.416,0.451-0.624,0.937-0.624c0.312,0,0.567,0.109,0.767,0.326s0.299,0.481,0.299,0.794
		V217.884z M171.636,211.828c0-1.369-0.277-2.521-0.829-3.458c-0.691-1.126-1.676-1.689-2.954-1.689s-2.255,0.563-2.928,1.689
		c-0.57,0.937-0.855,2.089-0.855,3.458s0.285,2.522,0.855,3.458c0.673,1.127,1.649,1.69,2.928,1.69s2.263-0.563,2.954-1.69
		C171.358,214.351,171.636,213.197,171.636,211.828z"/>
	<path fill="#FFFFFF" stroke="#000000" stroke-width="0.1" d="M181.723,205.855c0,0.504-0.239,0.816-0.719,0.938
		c-0.154,0.035-0.599,0.052-1.335,0.052v10.936c0,0.816-0.386,1.224-1.157,1.224s-1.157-0.407-1.157-1.224v-10.936
		c-0.735,0-1.181-0.017-1.335-0.052c-0.479-0.121-0.719-0.434-0.719-0.938c0-0.503,0.24-0.815,0.719-0.938
		c0.154-0.034,0.6-0.052,1.335-0.052c0-0.104-0.021-0.395-0.064-0.872c-0.044-0.478-0.065-0.872-0.065-1.185
		c0-1.476,0.425-2.213,1.274-2.213c0.849,0,1.273,0.737,1.273,2.213c0,0.312-0.017,0.707-0.052,1.185s-0.052,0.769-0.052,0.872
		c0.736,0,1.181,0.018,1.335,0.052C181.483,205.04,181.723,205.353,181.723,205.855z"/>
	<path fill="#FFFFFF" stroke="#000000" stroke-width="0.1" d="M186.637,201.376c0,0.399-0.14,0.737-0.416,1.015
		c-0.277,0.277-0.607,0.416-0.988,0.416c-0.398,0-0.732-0.139-1.001-0.416s-0.403-0.615-0.403-1.015c0-0.381,0.135-0.71,0.403-0.987
		s0.603-0.416,1.001-0.416c0.381,0,0.711,0.139,0.988,0.416C186.497,200.666,186.637,200.995,186.637,201.376z M186.402,217.78
		c0,0.816-0.386,1.224-1.157,1.224s-1.156-0.407-1.156-1.224v-11.852c0-0.816,0.385-1.225,1.156-1.225s1.157,0.408,1.157,1.225
		V217.78z"/>
	<path fill="#FFFFFF" stroke="#000000" stroke-width="0.1" d="M200.755,211.49c0,0.832-0.424,1.248-1.271,1.248H190.9
		c0,1.248,0.371,2.267,1.115,3.055c0.743,0.789,1.729,1.184,2.956,1.184c0.829,0,1.599-0.165,2.308-0.494
		c0.396-0.173,0.881-0.468,1.452-0.884c0.432-0.329,0.734-0.494,0.907-0.494c0.553,0,0.83,0.34,0.83,1.021
		c0,0.768-0.764,1.466-2.288,2.094c-1.266,0.523-2.35,0.785-3.25,0.785c-2.028,0-3.614-0.703-4.758-2.109
		c-1.058-1.303-1.587-2.986-1.587-5.054c0-1.944,0.547-3.594,1.639-4.948c1.161-1.459,2.687-2.188,4.576-2.188
		c1.768,0,3.224,0.702,4.367,2.106C200.226,208.128,200.755,209.688,200.755,211.49z M198.44,210.996c0-1.161-0.31-2.148-0.93-2.964
		c-0.688-0.901-1.593-1.352-2.711-1.352c-1.24,0-2.204,0.416-2.893,1.248c-0.62,0.763-0.955,1.785-1.007,3.067H198.44z"/>
</g>
<g opacity="0.8">
	<path fill="#69BD45" stroke="#FFFFFF" stroke-width="1.8" d="M131.187,63.134c-12.832,0-23.239,10.402-23.239,23.235
		c0,12.835,10.407,23.243,23.239,23.243c12.839,0,23.241-10.408,23.241-23.243C154.428,73.536,144.025,63.134,131.187,63.134z
		 M131.187,106.007c-10.843,0-19.636-8.796-19.636-19.638c0-10.843,8.793-19.633,19.636-19.633c10.844,0,19.64,8.79,19.64,19.633
		C150.826,97.211,142.03,106.007,131.187,106.007z"/>
	<rect x="120.756" y="84.632" fill="#69BD45" stroke="#FFFFFF" stroke-width="1.8" width="24.18" height="7.146"/>
</g>
<g opacity="0.8">
	<path fill="#ED1F24" stroke="#FFFFFF" stroke-width="1.8" d="M192.912,103.529l8.529-8.278H172.21l20.585-59.447l-78.806,78.348
		h29.22l-22.456,59.447l26.091-25.343c4.556,14.686,18.233,25.343,34.414,25.343c19.891,0,36.018-16.126,36.018-36.017
		C217.275,121.778,207.078,108.379,192.912,103.529z M181.258,167.479c-16.515,0-29.902-13.383-29.902-29.896
		c0-16.515,13.388-29.897,29.902-29.897c16.508,0,29.893,13.382,29.893,29.897C211.15,154.096,197.766,167.479,181.258,167.479z"/>
	<polygon fill="#ED1F24" stroke="#FFFFFF" stroke-width="1.8" points="201.556,129.952 186.332,129.952 186.332,117.046 
		175.625,117.046 175.625,129.952 160.405,129.952 160.405,140.658 175.625,140.658 175.625,158.195 186.332,158.195 
		186.332,140.658 201.556,140.658 	"/>
</g>
</svg>
