<?xml version="1.0" encoding="utf-8"?>
<!-- Generator: Adobe Illustrator 16.0.0, SVG Export Plug-In . SVG Version: 6.00 Build 0)  -->
<!DOCTYPE svg PUBLIC "-//W3C//DTD SVG 1.1//EN" "http://www.w3.org/Graphics/SVG/1.1/DTD/svg11.dtd">
<svg version="1.1" id="main" xmlns="http://www.w3.org/2000/svg" xmlns:xlink="http://www.w3.org/1999/xlink" x="0px" y="0px"
	 width="320px" height="240px" viewBox="0 0 320 240" enable-background="new 0 0 320 240" xml:space="preserve">
<g>
	<path fill="#FFFFFF" stroke="#000000" stroke-width="0.1" d="M126.539,218.526c0,0.299-0.108,0.535-0.325,0.711
		s-0.473,0.263-0.767,0.263c-0.624,0-1.153-0.602-1.586-1.805c-0.243-0.819-0.485-1.639-0.729-2.459h-8.58
		c-0.226,0.82-0.459,1.64-0.703,2.459c-0.449,1.203-0.986,1.805-1.61,1.805c-0.295,0-0.551-0.087-0.768-0.26
		c-0.217-0.174-0.325-0.408-0.325-0.703c0-0.226,0.104-0.616,0.312-1.172l5.746-15.493c0.347-0.936,0.893-1.403,1.639-1.403
		c0.745,0,1.289,0.468,1.638,1.403l5.746,15.471C126.434,217.903,126.539,218.299,126.539,218.526z M122.437,213.261l-3.563-10.116
		h-0.061l-3.562,10.116H122.437z"/>
	<path fill="#FFFFFF" stroke="#000000" stroke-width="0.1" d="M137.277,206.942c0,0.26-0.092,0.49-0.272,0.689
		c-0.182,0.199-0.401,0.299-0.661,0.299c-0.225,0-0.617-0.126-1.179-0.377s-1.093-0.377-1.594-0.377
		c-1.278,0-2.28,0.555-3.006,1.664c-0.622,0.971-0.933,2.132-0.933,3.483c0,1.353,0.311,2.514,0.933,3.484
		c0.726,1.109,1.728,1.664,3.006,1.664c0.553,0,1.109-0.13,1.671-0.391c0.562-0.26,0.92-0.39,1.075-0.39
		c0.588,0,0.882,0.324,0.882,0.971c0,0.647-0.478,1.138-1.431,1.47c-0.693,0.245-1.43,0.367-2.21,0.367
		c-1.959,0-3.51-0.721-4.653-2.162c-1.058-1.319-1.586-2.986-1.586-5.001c0-2.014,0.528-3.681,1.586-5.001
		c1.144-1.424,2.694-2.136,4.653-2.136c0.814,0,1.561,0.104,2.236,0.312C136.783,205.824,137.277,206.302,137.277,206.942z"/>
	<path fill="#FFFFFF" stroke="#000000" stroke-width="0.1" d="M144.921,206.352c0,0.504-0.239,0.816-0.72,0.938
		c-0.153,0.035-0.598,0.052-1.334,0.052v10.936c0,0.816-0.386,1.224-1.157,1.224s-1.157-0.407-1.157-1.224v-10.936
		c-0.735,0-1.181-0.017-1.336-0.052c-0.478-0.121-0.718-0.434-0.718-0.938c0-0.503,0.24-0.815,0.718-0.938
		c0.155-0.034,0.601-0.052,1.336-0.052c0-0.104-0.021-0.395-0.064-0.872c-0.044-0.478-0.065-0.872-0.065-1.185
		c0-1.476,0.425-2.213,1.274-2.213c0.849,0,1.273,0.737,1.273,2.213c0,0.312-0.017,0.707-0.053,1.185
		c-0.034,0.478-0.051,0.769-0.051,0.872c0.736,0,1.181,0.018,1.334,0.052C144.682,205.536,144.921,205.849,144.921,206.352z"/>
	<path fill="#FFFFFF" stroke="#000000" stroke-width="0.1" d="M149.835,201.872c0,0.399-0.14,0.737-0.417,1.015
		c-0.276,0.277-0.606,0.416-0.987,0.416c-0.399,0-0.732-0.139-1.001-0.416s-0.403-0.615-0.403-1.015c0-0.381,0.135-0.71,0.403-0.987
		s0.602-0.416,1.001-0.416c0.381,0,0.711,0.139,0.987,0.416C149.695,201.162,149.835,201.491,149.835,201.872z M149.601,218.276
		c0,0.816-0.386,1.224-1.157,1.224s-1.156-0.407-1.156-1.224v-11.852c0-0.816,0.385-1.225,1.156-1.225s1.157,0.408,1.157,1.225
		V218.276z"/>
	<path fill="#FFFFFF" stroke="#000000" stroke-width="0.1" d="M162.522,206.269c0,0.607-0.615,2.596-1.846,5.965
		c-0.798,2.084-1.586,4.176-2.366,6.277c-0.226,0.66-0.624,0.989-1.196,0.989c-0.571,0-0.971-0.329-1.196-0.989
		c-0.779-2.102-1.568-4.193-2.365-6.277c-1.231-3.369-1.846-5.357-1.846-5.965c0-0.295,0.1-0.547,0.299-0.756
		c0.199-0.208,0.445-0.312,0.741-0.312c0.606,0,1.005,0.295,1.195,0.884l3.146,9.673h0.052l3.146-9.673
		c0.19-0.589,0.589-0.884,1.195-0.884c0.295,0,0.542,0.104,0.741,0.312C162.423,205.722,162.522,205.974,162.522,206.269z"/>
	<path fill="#FFFFFF" stroke="#000000" stroke-width="0.1" d="M175.679,211.986c0,0.832-0.424,1.248-1.271,1.248h-8.583
		c0,1.248,0.371,2.267,1.115,3.055c0.742,0.789,1.729,1.184,2.956,1.184c0.829,0,1.599-0.165,2.308-0.494
		c0.396-0.173,0.881-0.468,1.452-0.884c0.432-0.329,0.734-0.494,0.907-0.494c0.553,0,0.83,0.34,0.83,1.021
		c0,0.768-0.764,1.466-2.288,2.094c-1.266,0.523-2.35,0.785-3.25,0.785c-2.028,0-3.614-0.703-4.758-2.109
		c-1.058-1.303-1.587-2.986-1.587-5.054c0-1.944,0.547-3.594,1.639-4.948c1.161-1.459,2.687-2.188,4.576-2.188
		c1.768,0,3.223,0.702,4.367,2.106C175.149,208.624,175.679,210.184,175.679,211.986z M173.364,211.492
		c0-1.161-0.31-2.148-0.931-2.964c-0.688-0.901-1.592-1.352-2.71-1.352c-1.241,0-2.204,0.416-2.893,1.248
		c-0.62,0.763-0.955,1.785-1.007,3.067H173.364z"/>
	<path fill="#FFFFFF" stroke="#000000" stroke-width="0.1" d="M183.659,206.372c0,0.504-0.379,0.895-1.137,1.172
		c-1.12,0.4-1.835,0.738-2.146,1.017c-0.758,0.643-1.138,1.658-1.138,3.048v6.668c0,0.816-0.386,1.224-1.156,1.224
		c-0.771,0-1.157-0.407-1.157-1.224v-11.852c0-0.816,0.381-1.225,1.144-1.225c0.59,0,0.953,0.286,1.093,0.858
		c0.034,0.156,0.052,0.676,0.052,1.56h0.052c0.295-0.624,0.711-1.17,1.248-1.638c0.624-0.521,1.248-0.78,1.871-0.78
		C183.234,205.2,183.659,205.591,183.659,206.372z"/>
	<path fill="#FFFFFF" stroke="#000000" stroke-width="0.1" d="M195.984,211.986c0,0.832-0.424,1.248-1.271,1.248h-8.583
		c0,1.248,0.371,2.267,1.115,3.055c0.743,0.789,1.729,1.184,2.956,1.184c0.829,0,1.599-0.165,2.308-0.494
		c0.396-0.173,0.881-0.468,1.452-0.884c0.432-0.329,0.734-0.494,0.906-0.494c0.554,0,0.831,0.34,0.831,1.021
		c0,0.768-0.765,1.466-2.288,2.094c-1.266,0.523-2.35,0.785-3.25,0.785c-2.028,0-3.614-0.703-4.758-2.109
		c-1.058-1.303-1.588-2.986-1.588-5.054c0-1.944,0.548-3.594,1.64-4.948c1.161-1.459,2.687-2.188,4.576-2.188
		c1.768,0,3.224,0.702,4.367,2.106C195.455,208.624,195.984,210.184,195.984,211.986z M193.67,211.492
		c0-1.161-0.31-2.148-0.93-2.964c-0.688-0.901-1.593-1.352-2.711-1.352c-1.24,0-2.204,0.416-2.893,1.248
		c-0.62,0.763-0.955,1.785-1.007,3.067H193.67z"/>
	<path fill="#FFFFFF" stroke="#000000" stroke-width="0.1" d="M208.229,218.276c0,0.816-0.382,1.224-1.145,1.224
		c-0.851,0-1.273-0.842-1.273-2.527c0-0.451,0.038-1.241,0.117-2.37c0.077-1.129,0.116-1.98,0.116-2.554
		c0-1.511-0.208-2.648-0.624-3.413c-0.52-0.973-1.412-1.459-2.678-1.459s-2.158,0.486-2.678,1.459
		c-0.416,0.765-0.624,1.902-0.624,3.413c0,0.573,0.039,1.425,0.117,2.554s0.117,1.919,0.117,2.37c0,1.686-0.426,2.527-1.274,2.527
		c-0.763,0-1.145-0.407-1.145-1.224v-11.852c0-0.816,0.382-1.225,1.145-1.225c0.503,0,0.832,0.191,0.988,0.572
		c0.104,0.226,0.155,0.624,0.155,1.196l0.053,0.052c0.953-1.213,2.227-1.82,3.82-1.82c1.51,0,2.688,0.499,3.537,1.498
		c0.85,0.998,1.274,2.271,1.274,3.815V218.276z"/>
</g>
<path opacity="0.8" fill="#69BD45" stroke="#FFFFFF" d="M217.62,147.978l-31.398-31.407c-5.248-5.26-12.812-6.726-19.432-4.554
	l-11.916-11.908c1.327-6.125-0.352-12.769-5.108-17.531L118.36,51.168c-7.459-7.45-19.537-7.45-26.982,0
	c-7.453,7.452-7.453,19.529,0,26.981l31.398,31.402c5.458,5.442,13.342,6.863,20.121,4.354l11.434,11.433
	c-1.617,6.312-0.023,13.271,4.918,18.209l31.398,31.405c7.454,7.454,19.531,7.454,26.973,0.004
	C225.079,167.507,225.079,155.427,217.62,147.978z M125.778,103.251L97.682,75.158c-5.202-5.196-5.454-13.372-0.571-18.252
	c4.889-4.883,13.061-4.634,18.254,0.566l28.1,28.098c1.986,1.98,3.242,4.403,3.764,6.909c-3.56-3.442-9.245-3.424-12.776,0.098
	c-3.562,3.561-3.554,9.332,0,12.893l1.778,1.774C132.534,107.472,128.696,106.17,125.778,103.251z M211.892,169.227
	c-4.887,4.88-13.049,4.627-18.242-0.573l-28.096-28.089c-2.244-2.248-3.514-5.05-3.903-7.9l5.044,5.038
	c3.549,3.561,9.336,3.563,12.891,0c3.565-3.561,3.553-9.334,0-12.892l-5.975-5.978c3.426,0.008,6.924,1.341,9.624,4.043
	l28.095,28.091C216.524,156.165,216.788,164.341,211.892,169.227z"/>
</svg>
