<?xml version="1.0" encoding="utf-8"?>
<!-- Generator: Adobe Illustrator 16.0.0, SVG Export Plug-In . SVG Version: 6.00 Build 0)  -->
<!DOCTYPE svg PUBLIC "-//W3C//DTD SVG 1.1//EN" "http://www.w3.org/Graphics/SVG/1.1/DTD/svg11.dtd">
<svg version="1.1" id="main" xmlns="http://www.w3.org/2000/svg" xmlns:xlink="http://www.w3.org/1999/xlink" x="0px" y="0px"
	 width="320px" height="240px" viewBox="0 0 320 240" enable-background="new 0 0 320 240" xml:space="preserve">
<g id="_x3C_Group_x3E__5_" opacity="0.8">
	<path fill="#3953A4" stroke="#FFFFFF" stroke-width="1.0874" d="M137.298,114.289l-29.546,4.788v35.53
		c-1.55-0.544-3.395-0.631-5.282-0.16c-4.19,1.04-6.934,4.501-6.129,7.711c0.471,2.978,4.855,4.973,9.036,3.922
		c3.686-0.919,6.251-3.704,6.272-6.543h0.003l0.097-30.021l21.651-3.957v24.13c-1.573-0.555-3.46-0.652-5.369-0.18
		c-4.235,1.058-7.007,4.544-6.194,7.799c0.81,3.241,4.897,5.017,9.133,3.966c3.857-0.978,6.329-3.623,6.329-6.933V114.289z"/>
</g>
<g id="_x3C_Group_x3E__4_" opacity="0.8">
	<path fill="#69BD45" stroke="#FFFFFF" d="M171.719,80.557l-44.319,7.183v53.297c-2.326-0.818-5.093-0.95-7.922-0.243
		c-6.285,1.561-10.402,6.75-9.195,11.569c0.705,4.463,7.281,7.457,13.554,5.88c5.53-1.377,9.377-5.554,9.407-9.814h0.006
		l0.146-45.03l32.476-5.934v36.192c-2.36-0.831-5.19-0.98-8.055-0.269c-6.354,1.588-10.509,6.818-9.289,11.697
		c1.213,4.865,7.344,7.527,13.699,5.95c5.784-1.467,9.493-5.433,9.493-10.398V80.557z"/>
</g>
<g id="_x3C_Group_x3E__3_" opacity="0.8">
	<path fill="#ED1F24" stroke="#FFFFFF" d="M213.711,43.709l-59.092,9.576v71.062c-3.101-1.088-6.79-1.263-10.563-0.325
		c-8.379,2.085-13.869,9.003-12.26,15.429c0.941,5.951,9.709,9.94,18.073,7.839c7.371-1.833,12.501-7.406,12.542-13.088h0.007
		l0.195-60.038l43.301-7.913v48.256c-3.147-1.108-6.921-1.305-10.74-0.358c-8.47,2.118-14.013,9.09-12.385,15.597
		c1.618,6.485,9.792,10.036,18.265,7.935c7.712-1.954,12.657-7.247,12.657-13.866V43.709z"/>
</g>
<g>
	<path fill="#FFFFFF" stroke="#000000" stroke-width="0.1" d="M118.305,221.754c-1.17,0.45-3.51,1.11-6.239,1.11
		c-3.061,0-5.58-0.78-7.561-2.67c-1.739-1.68-2.819-4.38-2.819-7.529c0-6.03,4.17-10.439,10.949-10.439c2.34,0,4.2,0.51,5.07,0.93
		l-0.66,2.13c-1.08-0.51-2.43-0.87-4.47-0.87c-4.92,0-8.13,3.06-8.13,8.13c0,5.13,3.06,8.159,7.8,8.159
		c1.71,0,2.88-0.239,3.479-0.54v-6.029h-4.08v-2.1h6.66V221.754z"/>
	<path fill="#FFFFFF" stroke="#000000" stroke-width="0.1" d="M123.795,215.875c0.06,3.569,2.31,5.039,4.979,5.039
		c1.89,0,3.06-0.33,4.02-0.75l0.48,1.891c-0.93,0.42-2.55,0.93-4.86,0.93c-4.47,0-7.14-2.97-7.14-7.35s2.58-7.8,6.81-7.8
		c4.771,0,6,4.14,6,6.81c0,0.54-0.029,0.93-0.09,1.23H123.795z M131.534,213.984c0.03-1.649-0.689-4.26-3.66-4.26
		c-2.699,0-3.84,2.43-4.05,4.26H131.534z"/>
	<path fill="#FFFFFF" stroke="#000000" stroke-width="0.1" d="M137.354,201.355h2.641v21.299h-2.641V201.355z"/>
	<path fill="#FFFFFF" stroke="#000000" stroke-width="0.1" d="M156.584,218.664c0,1.53,0.029,2.851,0.119,3.99h-2.34l-0.149-2.37
		h-0.061c-0.659,1.17-2.22,2.7-4.8,2.7c-2.279,0-5.01-1.29-5.01-6.359v-8.49h2.641v8.01c0,2.76,0.869,4.649,3.239,4.649
		c1.771,0,3-1.229,3.48-2.43c0.149-0.359,0.239-0.84,0.239-1.35v-8.88h2.641V218.664z"/>
	<path fill="#FFFFFF" stroke="#000000" stroke-width="0.1" d="M163.904,204.055c0,0.9-0.63,1.62-1.68,1.62
		c-0.96,0-1.59-0.72-1.59-1.62c0-0.899,0.659-1.649,1.649-1.649C163.244,202.405,163.904,203.125,163.904,204.055z M160.964,222.654
		v-14.52h2.641v14.52H160.964z"/>
	<path fill="#FFFFFF" stroke="#000000" stroke-width="0.1" d="M180.493,201.355v17.549c0,1.29,0.061,2.76,0.12,3.75h-2.34
		l-0.12-2.52h-0.09c-0.78,1.619-2.52,2.85-4.89,2.85c-3.51,0-6.24-2.97-6.24-7.38c-0.029-4.83,3-7.77,6.51-7.77
		c2.25,0,3.72,1.05,4.38,2.189h0.061v-8.669H180.493z M177.884,214.045c0-0.33-0.03-0.78-0.12-1.11
		c-0.391-1.649-1.83-3.029-3.811-3.029c-2.729,0-4.35,2.399-4.35,5.579c0,2.94,1.471,5.37,4.29,5.37c1.77,0,3.39-1.2,3.87-3.15
		c0.09-0.359,0.12-0.72,0.12-1.14V214.045z"/>
	<path fill="#FFFFFF" stroke="#000000" stroke-width="0.1" d="M186.374,215.875c0.06,3.569,2.31,5.039,4.979,5.039
		c1.89,0,3.06-0.33,4.02-0.75l0.48,1.891c-0.93,0.42-2.55,0.93-4.86,0.93c-4.47,0-7.14-2.97-7.14-7.35s2.58-7.8,6.81-7.8
		c4.771,0,6,4.14,6,6.81c0,0.54-0.03,0.93-0.09,1.23H186.374z M194.113,213.984c0.03-1.649-0.689-4.26-3.66-4.26
		c-2.699,0-3.84,2.43-4.05,4.26H194.113z"/>
	<path fill="#FFFFFF" stroke="#000000" stroke-width="0.1" d="M199.933,212.064c0-1.529-0.029-2.729-0.119-3.93h2.34l0.149,2.4
		h0.061c0.72-1.351,2.399-2.7,4.8-2.7c2.01,0,5.13,1.2,5.13,6.18v8.64h-2.641v-8.37c0-2.34-0.869-4.289-3.359-4.289
		c-1.71,0-3.06,1.229-3.54,2.699c-0.12,0.33-0.18,0.78-0.18,1.23v8.729h-2.641V212.064z"/>
</g>
</svg>
