<?xml version="1.0" encoding="utf-8"?>
<!-- Generator: Adobe Illustrator 16.0.0, SVG Export Plug-In . SVG Version: 6.00 Build 0)  -->
<!DOCTYPE svg PUBLIC "-//W3C//DTD SVG 1.1//EN" "http://www.w3.org/Graphics/SVG/1.1/DTD/svg11.dtd">
<svg version="1.1" id="main" xmlns="http://www.w3.org/2000/svg" xmlns:xlink="http://www.w3.org/1999/xlink" x="0px" y="0px"
	 width="320px" height="240px" viewBox="0 0 320 240" enable-background="new 0 0 320 240" xml:space="preserve">
<path opacity="0.8" fill="#ED1F24" stroke="#FFFFFF" stroke-width="1.4319" d="M166.48,46.717l-71.963,63.386
	c0,0,4.436,8.177,14.119,0l5.131-4.342v52.769c0,0-0.127,3.166,2.971,3.166c3.848,0,35.691-0.044,35.691-0.044l0.051-29.245
	c0,0-0.507-4.818,4.178-4.818h14.807c5.531,0,5.195,4.818,5.195,4.818l-0.061,29.159c0,0,30.193,0,34.938,0
	c3.927,0,3.75-3.94,3.75-3.94v-52.699l5.429,4.866c11.2,8.086,15.403,0,15.403,0L166.48,46.717z M164.885,116.598
	c-8.379,0-15.174-6.792-15.174-15.179c0-8.38,6.795-15.175,15.174-15.175c8.389,0,15.178,6.795,15.178,15.175
	C180.062,109.806,173.273,116.598,164.885,116.598z"/>
<polygon opacity="0.8" fill="#3953A4" stroke="#FFFFFF" stroke-width="1.2284" points="219.4,89.75 219.4,61.047 205.446,61.047 
	205.504,77.966 "/>
<path opacity="0.8" fill="#69BD45" stroke="#FFFFFF" stroke-width="1.071" d="M164.836,93.899c-4.252,0-7.699,3.449-7.699,7.7
	s3.447,7.693,7.699,7.693s7.697-3.442,7.697-7.693S169.088,93.899,164.836,93.899z"/>
<g>
	<path fill="#FFFFFF" stroke="#000000" stroke-width="0.1" d="M137.366,222.782c1.014,0.649,2.47,1.144,4.03,1.144
		c2.313,0,3.666-1.222,3.666-2.99c0-1.611-0.936-2.574-3.303-3.458c-2.859-1.04-4.628-2.548-4.628-4.992
		c0-2.729,2.262-4.758,5.668-4.758c1.769,0,3.095,0.416,3.849,0.858l-0.625,1.846c-0.545-0.338-1.715-0.832-3.303-0.832
		c-2.391,0-3.301,1.43-3.301,2.626c0,1.638,1.066,2.444,3.484,3.38c2.963,1.145,4.445,2.574,4.445,5.148
		c0,2.704-1.975,5.07-6.109,5.07c-1.691,0-3.537-0.521-4.473-1.145L137.366,222.782z"/>
	<path fill="#FFFFFF" stroke="#000000" stroke-width="0.1" d="M153.07,209.938v3.016h3.275v1.742h-3.275v6.787
		c0,1.56,0.441,2.443,1.716,2.443c0.624,0,0.988-0.052,1.325-0.156l0.105,1.742c-0.442,0.156-1.145,0.312-2.028,0.312
		c-1.066,0-1.925-0.364-2.472-0.962c-0.623-0.702-0.883-1.82-0.883-3.303v-6.864h-1.95v-1.742h1.95v-2.34L153.07,209.938z"/>
	<path fill="#FFFFFF" stroke="#000000" stroke-width="0.1" d="M167.76,222.521c0,1.093,0.051,2.158,0.182,3.017h-2.054l-0.182-1.586
		h-0.078c-0.702,0.988-2.054,1.872-3.849,1.872c-2.549,0-3.848-1.794-3.848-3.614c0-3.042,2.704-4.706,7.566-4.681v-0.26
		c0-1.014-0.286-2.912-2.861-2.886c-1.195,0-2.417,0.338-3.301,0.936l-0.521-1.534c1.041-0.649,2.575-1.092,4.161-1.092
		c3.849,0,4.784,2.626,4.784,5.122V222.521z M165.549,219.116c-2.496-0.053-5.329,0.39-5.329,2.834c0,1.508,0.989,2.184,2.132,2.184
		c1.664,0,2.73-1.04,3.094-2.105c0.078-0.261,0.104-0.521,0.104-0.729V219.116z"/>
	<path fill="#FFFFFF" stroke="#000000" stroke-width="0.1" d="M171.451,216.88c0-1.482-0.025-2.756-0.104-3.927h2.002l0.104,2.496
		h0.077c0.572-1.689,1.977-2.756,3.512-2.756c0.234,0,0.416,0.026,0.623,0.053v2.157c-0.234-0.052-0.468-0.052-0.781-0.052
		c-1.611,0-2.756,1.196-3.066,2.912c-0.053,0.312-0.078,0.702-0.078,1.066v6.708h-2.289V216.88z"/>
	<path fill="#FFFFFF" stroke="#000000" stroke-width="0.1" d="M183.334,209.938v3.016h3.276v1.742h-3.276v6.787
		c0,1.56,0.441,2.443,1.715,2.443c0.625,0,0.989-0.052,1.328-0.156l0.104,1.742c-0.442,0.156-1.145,0.312-2.029,0.312
		c-1.066,0-1.924-0.364-2.47-0.962c-0.624-0.702-0.884-1.82-0.884-3.303v-6.864h-1.951v-1.742h1.951v-2.34L183.334,209.938z"/>
</g>
</svg>
