<?xml version="1.0" encoding="utf-8"?>
<!-- Generator: Adobe Illustrator 16.0.0, SVG Export Plug-In . SVG Version: 6.00 Build 0)  -->
<!DOCTYPE svg PUBLIC "-//W3C//DTD SVG 1.1//EN" "http://www.w3.org/Graphics/SVG/1.1/DTD/svg11.dtd">
<svg version="1.1" id="main" xmlns="http://www.w3.org/2000/svg" xmlns:xlink="http://www.w3.org/1999/xlink" x="0px" y="0px"
	 width="320px" height="240px" viewBox="0 0 320 240" enable-background="new 0 0 320 240" xml:space="preserve">
<g>
	<path fill="#FFFFFF" stroke="#000000" stroke-width="0.1" d="M115.977,223.758c-1.015,0.391-3.043,0.962-5.408,0.962
		c-2.652,0-4.836-0.676-6.553-2.313c-1.508-1.456-2.443-3.797-2.443-6.526c0-5.227,3.613-9.049,9.49-9.049
		c2.027,0,3.639,0.442,4.394,0.807l-0.571,1.846c-0.938-0.442-2.106-0.754-3.875-0.754c-4.264,0-7.046,2.652-7.046,7.046
		c0,4.446,2.651,7.072,6.761,7.072c1.481,0,2.496-0.208,3.016-0.468v-5.226h-3.536v-1.82h5.772V223.758z"/>
	<path fill="#FFFFFF" stroke="#000000" stroke-width="0.1" d="M120.733,218.662c0.052,3.094,2.001,4.368,4.315,4.368
		c1.639,0,2.652-0.286,3.485-0.65l0.416,1.638c-0.807,0.364-2.21,0.807-4.212,0.807c-3.875,0-6.189-2.574-6.189-6.37
		s2.236-6.761,5.902-6.761c4.135,0,5.201,3.588,5.201,5.902c0,0.468-0.025,0.807-0.078,1.066H120.733z M127.441,217.023
		c0.026-1.43-0.598-3.691-3.172-3.691c-2.34,0-3.328,2.105-3.51,3.691H127.441z"/>
	<path fill="#FFFFFF" stroke="#000000" stroke-width="0.1" d="M133.759,218.662c0.052,3.094,2.002,4.368,4.316,4.368
		c1.638,0,2.652-0.286,3.484-0.65l0.416,1.638c-0.808,0.364-2.21,0.807-4.212,0.807c-3.875,0-6.188-2.574-6.188-6.37
		s2.235-6.761,5.902-6.761c4.134,0,5.2,3.588,5.2,5.902c0,0.468-0.027,0.807-0.078,1.066H133.759z M140.467,217.023
		c0.026-1.43-0.598-3.691-3.172-3.691c-2.34,0-3.328,2.105-3.51,3.691H140.467z"/>
	<path fill="#FFFFFF" stroke="#000000" stroke-width="0.1" d="M145.511,215.359c0-1.326-0.026-2.365-0.104-3.406h2.027l0.131,2.08
		h0.051c0.625-1.17,2.081-2.34,4.161-2.34c1.741,0,4.446,1.04,4.446,5.356v7.488h-2.289v-7.254c0-2.028-0.753-3.719-2.911-3.719
		c-1.481,0-2.652,1.066-3.068,2.341c-0.104,0.285-0.155,0.676-0.155,1.065v7.566h-2.288V215.359z"/>
	<path fill="#FFFFFF" stroke="#000000" stroke-width="0.1" d="M166.336,211.953l2.47,7.047c0.416,1.17,0.754,2.21,1.015,3.25h0.078
		c0.285-1.04,0.649-2.08,1.065-3.25l2.444-7.047h2.392l-4.939,12.585h-2.185l-4.784-12.585H166.336z"/>
	<path fill="#FFFFFF" stroke="#000000" stroke-width="0.1" d="M189.086,218.142c0,4.654-3.25,6.683-6.266,6.683
		c-3.381,0-6.032-2.496-6.032-6.475c0-4.186,2.782-6.656,6.24-6.656C186.643,211.693,189.086,214.319,189.086,218.142z
		 M179.128,218.271c0,2.757,1.56,4.837,3.796,4.837c2.185,0,3.822-2.055,3.822-4.889c0-2.132-1.066-4.81-3.77-4.81
		C180.298,213.41,179.128,215.906,179.128,218.271z"/>
	<path fill="#FFFFFF" stroke="#000000" stroke-width="0.1" d="M191.972,215.88c0-1.482-0.026-2.756-0.104-3.927h2.002l0.104,2.496
		h0.078c0.571-1.689,1.976-2.756,3.51-2.756c0.234,0,0.416,0.026,0.624,0.053v2.157c-0.234-0.052-0.469-0.052-0.78-0.052
		c-1.612,0-2.756,1.196-3.067,2.912c-0.053,0.312-0.078,0.702-0.078,1.066v6.708h-2.288V215.88z"/>
	<path fill="#FFFFFF" stroke="#000000" stroke-width="0.1" d="M200.577,215.359c0-1.326-0.053-2.365-0.104-3.406h2.002l0.104,2.055
		h0.078c0.702-1.196,1.872-2.314,3.978-2.314c1.69,0,2.99,1.04,3.536,2.522h0.052c0.391-0.729,0.91-1.248,1.43-1.638
		c0.755-0.572,1.561-0.885,2.757-0.885c1.69,0,4.159,1.092,4.159,5.461v7.384h-2.235v-7.099c0-2.443-0.909-3.874-2.729-3.874
		c-1.326,0-2.314,0.962-2.73,2.055c-0.104,0.338-0.182,0.728-0.182,1.144v7.774h-2.236v-7.54c0-2.002-0.884-3.433-2.626-3.433
		c-1.404,0-2.47,1.145-2.834,2.288c-0.13,0.312-0.183,0.729-0.183,1.118v7.566h-2.235V215.359z"/>
</g>
<g>
	<path fill="#ED1F24" stroke="#FFFFFF" d="M222.166,135.46l-30.936-30.938c-5.177-5.184-12.62-6.628-19.144-4.49l-3.707-3.703
		l-3.239,4.733l-5.158,1.427l-2.043,4.732l-2.371,1.692l4.239,4.238c-1.589,6.223-0.014,13.075,4.847,17.944l30.935,30.933
		c7.342,7.339,19.238,7.339,26.577,0.005C229.505,154.692,229.505,142.794,222.166,135.46z M216.524,156.387
		c-4.814,4.812-12.865,4.562-17.979-0.562l-27.673-27.672c-2.22-2.214-3.466-4.977-3.852-7.779l4.968,4.962
		c3.499,3.501,9.196,3.511,12.701,0c3.51-3.509,3.505-9.197,0-12.697l-5.89-5.886c3.385,0.005,6.822,1.313,9.485,3.978l27.68,27.672
		C221.077,143.523,221.339,151.577,216.524,156.387z"/>
	<path fill="#ED1F24" stroke="#FFFFFF" d="M148.555,101.894l2.735,2.741l6.197-2.367l2.495-4.055h2.907l2.447-4.922l-4.988-4.986
		c1.309-6.037-0.347-12.584-5.036-17.269l-30.939-30.938c-7.338-7.344-19.233-7.344-26.573,0c-7.335,7.334-7.335,19.23,0,26.574
		l30.938,30.934C134.101,102.965,141.878,104.369,148.555,101.894z M104.009,63.72c-5.12-5.116-5.374-13.165-0.562-17.979
		c4.814-4.807,12.863-4.563,17.983,0.562l27.674,27.676c1.955,1.953,3.193,4.338,3.717,6.812c-3.511-3.402-9.111-3.384-12.591,0.09
		c-3.505,3.51-3.501,9.197,0,12.703l1.755,1.75c-3.636,0.225-7.424-1.059-10.3-3.934L104.009,63.72z"/>
	<rect x="167.956" y="76.152" fill="#ED1F24" stroke="#FFFFFF" width="3.037" height="13.17"/>
	<rect x="172.733" y="90.163" fill="#ED1F24" stroke="#FFFFFF" width="13.176" height="3.038"/>
	<rect x="150.562" y="111.892" fill="#ED1F24" stroke="#FFFFFF" width="3.04" height="13.174"/>
	<rect x="135.649" y="108.014" fill="#ED1F24" stroke="#FFFFFF" width="13.175" height="3.041"/>
</g>
</svg>
