<?xml version="1.0" encoding="utf-8"?>
<!-- Generator: Adobe Illustrator 16.0.0, SVG Export Plug-In . SVG Version: 6.00 Build 0)  -->
<!DOCTYPE svg PUBLIC "-//W3C//DTD SVG 1.1//EN" "http://www.w3.org/Graphics/SVG/1.1/DTD/svg11.dtd">
<svg version="1.1" id="main" xmlns="http://www.w3.org/2000/svg" xmlns:xlink="http://www.w3.org/1999/xlink" x="0px" y="0px"
	 width="320px" height="240px" viewBox="0 0 320 240" enable-background="new 0 0 320 240" xml:space="preserve">
<g>
	<g>
		<path fill="#FFFFFF" stroke="#000000" stroke-width="0.075" d="M120.441,207.208c0,2.668-1.077,4.435-3.231,5.299
			c-1.274,0.506-3.464,0.758-6.569,0.758c0,0.127,0.031,0.662,0.095,1.609c0.062,0.945,0.094,1.726,0.094,2.338
			c0,2.326-0.468,3.488-1.404,3.488c-0.792,0-1.188-0.424-1.188-1.271v-17.033c0-0.865,0.423-1.297,1.27-1.297h4.697
			c1.8,0,3.289,0.566,4.469,1.703C119.852,203.937,120.441,205.405,120.441,207.208z M118.038,207.213
			c0-1.22-0.361-2.192-1.085-2.919c-0.725-0.727-1.702-1.09-2.935-1.09h-3.378v7.992h3.484c1.126,0,2.06-0.381,2.801-1.145
			C117.668,209.29,118.038,208.344,118.038,207.213z"/>
		<path fill="#FFFFFF" stroke="#000000" stroke-width="0.075" d="M133.563,219.536c0,0.326-0.104,0.6-0.311,0.826
			c-0.207,0.225-0.473,0.338-0.796,0.338c-0.54,0-0.883-0.256-1.026-0.766c-0.054-0.2-0.081-0.684-0.081-1.449
			c-1.013,1.477-2.325,2.215-3.936,2.215c-1.954,0-3.528-0.767-4.724-2.299c-1.085-1.408-1.628-3.12-1.628-5.141
			c0-2.002,0.543-3.705,1.628-5.111c1.195-1.533,2.77-2.299,4.724-2.299c1.466,0,2.777,0.639,3.936,1.916
			c0-0.63,0.045-1.053,0.136-1.269c0.144-0.433,0.467-0.647,0.972-0.647c0.323,0,0.589,0.111,0.796,0.338
			c0.207,0.225,0.311,0.5,0.311,0.824V219.536z M131.322,213.248c0-1.423-0.287-2.619-0.86-3.591
			c-0.718-1.17-1.74-1.756-3.067-1.756c-1.328,0-2.342,0.586-3.041,1.756c-0.592,0.972-0.888,2.168-0.888,3.591
			c0,1.421,0.296,2.618,0.888,3.591c0.699,1.17,1.713,1.756,3.041,1.756c1.327,0,2.35-0.586,3.067-1.756
			C131.035,215.866,131.322,214.669,131.322,213.248z"/>
		<path fill="#FFFFFF" stroke="#000000" stroke-width="0.075" d="M141.799,207.046c0,0.521-0.249,0.847-0.747,0.973
			c-0.159,0.037-0.621,0.055-1.387,0.055v11.355c0,0.848-0.4,1.271-1.201,1.271s-1.201-0.424-1.201-1.271v-11.355
			c-0.764,0-1.227-0.018-1.386-0.055c-0.498-0.126-0.747-0.451-0.747-0.973c0-0.523,0.249-0.848,0.747-0.975
			c0.159-0.035,0.622-0.053,1.386-0.053c0-0.109-0.023-0.41-0.067-0.906c-0.045-0.496-0.067-0.906-0.067-1.23
			c0-1.532,0.44-2.299,1.322-2.299s1.324,0.767,1.324,2.299c0,0.324-0.019,0.734-0.055,1.23c-0.037,0.496-0.055,0.797-0.055,0.906
			c0.766,0,1.228,0.018,1.387,0.053C141.55,206.198,141.799,206.522,141.799,207.046z"/>
		<path fill="#FFFFFF" stroke="#000000" stroke-width="0.075" d="M150.223,207.067c0,0.523-0.394,0.928-1.182,1.217
			c-1.163,0.414-1.905,0.766-2.228,1.055c-0.787,0.668-1.181,1.723-1.181,3.165v6.925c0,0.848-0.401,1.271-1.201,1.271
			c-0.802,0-1.202-0.424-1.202-1.271V207.12c0-0.846,0.396-1.27,1.188-1.27c0.613,0,0.99,0.296,1.135,0.891
			c0.036,0.162,0.054,0.701,0.054,1.619h0.054c0.307-0.648,0.738-1.215,1.297-1.701c0.647-0.539,1.296-0.809,1.943-0.809
			C149.782,205.851,150.223,206.255,150.223,207.067z"/>
		<path fill="#FFFFFF" stroke="#000000" stroke-width="0.075" d="M164.101,213.261c0,2.021-0.541,3.732-1.62,5.141
			c-1.171,1.532-2.736,2.299-4.698,2.299s-3.527-0.767-4.698-2.299c-1.079-1.408-1.62-3.12-1.62-5.141
			c0-2.002,0.541-3.705,1.62-5.111c1.188-1.533,2.754-2.299,4.698-2.299s3.51,0.766,4.698,2.299
			C163.56,209.556,164.101,211.259,164.101,213.261z M161.697,213.248c0-1.423-0.295-2.619-0.886-3.591
			c-0.696-1.17-1.706-1.756-3.029-1.756s-2.333,0.586-3.029,1.756c-0.591,0.972-0.886,2.168-0.886,3.591
			c0,1.421,0.295,2.618,0.886,3.591c0.696,1.17,1.706,1.756,3.029,1.756s2.333-0.586,3.029-1.756
			C161.402,215.866,161.697,214.669,161.697,213.248z"/>
		<path fill="#FFFFFF" stroke="#000000" stroke-width="0.075" d="M176.764,219.429c0,0.848-0.396,1.271-1.188,1.271
			c-0.883,0-1.323-0.875-1.323-2.625c0-0.469,0.041-1.289,0.122-2.463c0.081-1.172,0.121-2.055,0.121-2.651
			c0-1.569-0.216-2.749-0.648-3.544c-0.539-1.01-1.467-1.516-2.781-1.516c-1.313,0-2.24,0.506-2.779,1.516
			c-0.433,0.795-0.648,1.975-0.648,3.544c0,0.597,0.04,1.479,0.121,2.651c0.081,1.174,0.122,1.994,0.122,2.463
			c0,1.75-0.442,2.625-1.323,2.625c-0.793,0-1.188-0.424-1.188-1.271V207.12c0-0.846,0.396-1.27,1.188-1.27
			c0.521,0,0.863,0.197,1.025,0.594c0.107,0.234,0.162,0.648,0.162,1.242l0.055,0.053c0.989-1.26,2.312-1.889,3.969-1.889
			c1.565,0,2.789,0.518,3.672,1.555c0.881,1.037,1.323,2.357,1.323,3.963V219.429z"/>
		<path fill="#FFFFFF" stroke="#000000" stroke-width="0.075" d="M190.695,212.896c0,0.864-0.44,1.296-1.319,1.296h-8.914
			c0,1.297,0.387,2.354,1.158,3.172c0.771,0.82,1.795,1.23,3.069,1.23c0.861,0,1.661-0.172,2.396-0.514
			c0.413-0.18,0.916-0.486,1.509-0.918c0.447-0.342,0.763-0.514,0.942-0.514c0.574,0,0.861,0.354,0.861,1.061
			c0,0.797-0.793,1.521-2.376,2.174c-1.314,0.545-2.439,0.816-3.375,0.816c-2.105,0-3.753-0.73-4.941-2.191
			c-1.098-1.353-1.646-3.102-1.646-5.248c0-2.02,0.566-3.732,1.701-5.139c1.205-1.516,2.789-2.271,4.752-2.271
			c1.836,0,3.348,0.729,4.535,2.186C190.146,209.405,190.695,211.024,190.695,212.896z M188.292,212.384
			c0-1.205-0.322-2.232-0.965-3.078c-0.716-0.936-1.654-1.404-2.815-1.404c-1.288,0-2.289,0.432-3.004,1.297
			c-0.644,0.792-0.992,1.854-1.046,3.186H188.292z"/>
		<path fill="#FFFFFF" stroke="#000000" stroke-width="0.075" d="M203.412,219.429c0,0.848-0.396,1.271-1.188,1.271
			c-0.883,0-1.323-0.875-1.323-2.625c0-0.469,0.041-1.289,0.122-2.463c0.081-1.172,0.121-2.055,0.121-2.651
			c0-1.569-0.216-2.749-0.648-3.544c-0.539-1.01-1.467-1.516-2.781-1.516c-1.313,0-2.24,0.506-2.779,1.516
			c-0.433,0.795-0.648,1.975-0.648,3.544c0,0.597,0.04,1.479,0.121,2.651c0.081,1.174,0.122,1.994,0.122,2.463
			c0,1.75-0.442,2.625-1.323,2.625c-0.793,0-1.188-0.424-1.188-1.271V207.12c0-0.846,0.396-1.27,1.188-1.27
			c0.521,0,0.863,0.197,1.025,0.594c0.107,0.234,0.162,0.648,0.162,1.242l0.055,0.053c0.989-1.26,2.312-1.889,3.969-1.889
			c1.565,0,2.789,0.518,3.672,1.555c0.881,1.037,1.323,2.357,1.323,3.963V219.429z"/>
	</g>
</g>
<rect x="91.254" y="76.196" opacity="0.8" fill="#3953A4" stroke="#FFFFFF" stroke-width="0.9382" width="67.55" height="67.55"/>
<circle opacity="0.8" fill="#A24E9E" stroke="#FFFFFF" stroke-width="1.0778" cx="157.883" cy="125.074" r="38.801"/>
<polygon opacity="0.8" fill="#ED1F24" stroke="#FFFFFF" stroke-width="1.0778" points="180.615,141.761 162.261,109.971 
	180.615,78.18 217.323,78.18 235.678,109.971 217.323,141.761 "/>
<polygon opacity="0.8" fill="#69BD45" stroke="#FFFFFF" stroke-width="1.3458" points="159.976,29.421 175.173,60.216 
	209.158,65.154 184.566,89.125 190.37,122.971 159.976,106.991 129.578,122.971 135.384,89.125 110.793,65.154 144.777,60.216 "/>
</svg>
