<?xml version="1.0" encoding="utf-8"?>
<!-- Generator: Adobe Illustrator 16.0.0, SVG Export Plug-In . SVG Version: 6.00 Build 0)  -->
<!DOCTYPE svg PUBLIC "-//W3C//DTD SVG 1.1//EN" "http://www.w3.org/Graphics/SVG/1.1/DTD/svg11.dtd">
<svg version="1.1" id="main" xmlns="http://www.w3.org/2000/svg" xmlns:xlink="http://www.w3.org/1999/xlink" x="0px" y="0px"
	 width="320px" height="240px" viewBox="0 0 320 240" enable-background="new 0 0 320 240" xml:space="preserve">
<g>
	<path fill="#FFFFFF" stroke="#000000" stroke-width="0.1" d="M112.018,209.854c0,2.669-0.633,4.862-1.897,6.578
		c-1.422,1.924-3.424,2.886-6.006,2.886h-4.811c-0.814,0-1.222-0.416-1.222-1.248v-16.198c0-0.832,0.407-1.248,1.222-1.248h4.498
		c2.583,0,4.619,0.91,6.11,2.73C111.315,205.054,112.018,207.22,112.018,209.854z M109.574,209.854c0-2.09-0.476-3.773-1.427-5.052
		c-1.071-1.434-2.618-2.15-4.641-2.15h-3.111v14.638h3.267c2.005,0,3.526-0.769,4.563-2.306
		C109.124,213.672,109.574,211.962,109.574,209.854z"/>
	<path fill="#FFFFFF" stroke="#000000" stroke-width="0.1" d="M125.616,211.986c0,0.832-0.424,1.248-1.271,1.248h-8.583
		c0,1.248,0.371,2.267,1.115,3.055c0.743,0.789,1.729,1.184,2.956,1.184c0.829,0,1.599-0.165,2.308-0.494
		c0.396-0.173,0.881-0.468,1.452-0.884c0.432-0.329,0.734-0.494,0.907-0.494c0.553,0,0.83,0.34,0.83,1.021
		c0,0.768-0.764,1.466-2.288,2.094c-1.266,0.523-2.35,0.785-3.25,0.785c-2.028,0-3.614-0.703-4.758-2.109
		c-1.058-1.303-1.587-2.986-1.587-5.054c0-1.944,0.547-3.594,1.639-4.948c1.161-1.459,2.687-2.188,4.576-2.188
		c1.768,0,3.224,0.702,4.367,2.106C125.087,208.624,125.616,210.184,125.616,211.986z M123.302,211.492
		c0-1.161-0.31-2.148-0.93-2.964c-0.688-0.901-1.593-1.352-2.711-1.352c-1.24,0-2.204,0.416-2.893,1.248
		c-0.62,0.763-0.955,1.785-1.007,3.067H123.302z"/>
	<path fill="#FFFFFF" stroke="#000000" stroke-width="0.1" d="M139.135,218.38c0,0.313-0.1,0.578-0.299,0.795
		s-0.455,0.325-0.767,0.325c-0.521,0-0.85-0.245-0.988-0.736c-0.052-0.193-0.078-0.658-0.078-1.396
		c-0.976,1.422-2.239,2.132-3.79,2.132c-1.882,0-3.397-0.737-4.548-2.214c-1.046-1.354-1.568-3.004-1.568-4.949
		c0-1.927,0.522-3.568,1.568-4.923c1.15-1.476,2.666-2.214,4.548-2.214c1.412,0,2.675,0.615,3.79,1.846
		c0-0.606,0.043-1.014,0.13-1.222c0.139-0.416,0.451-0.624,0.937-0.624c0.312,0,0.567,0.109,0.767,0.326s0.299,0.481,0.299,0.794
		V218.38z M136.978,212.324c0-1.369-0.277-2.521-0.829-3.458c-0.691-1.126-1.676-1.689-2.954-1.689s-2.255,0.563-2.928,1.689
		c-0.57,0.937-0.855,2.089-0.855,3.458s0.285,2.522,0.855,3.458c0.673,1.127,1.649,1.69,2.928,1.69s2.263-0.563,2.954-1.69
		C136.7,214.847,136.978,213.693,136.978,212.324z"/>
	<path fill="#FFFFFF" stroke="#000000" stroke-width="0.1" d="M151.354,206.269c0,0.607-0.615,2.596-1.846,5.965
		c-0.798,2.084-1.586,4.176-2.366,6.277c-0.226,0.66-0.624,0.989-1.196,0.989c-0.571,0-0.971-0.329-1.195-0.989
		c-0.78-2.102-1.569-4.193-2.366-6.277c-1.231-3.369-1.846-5.357-1.846-5.965c0-0.295,0.1-0.547,0.299-0.756
		c0.199-0.208,0.446-0.312,0.741-0.312c0.606,0,1.005,0.295,1.195,0.884l3.146,9.673h0.052l3.146-9.673
		c0.19-0.589,0.589-0.884,1.195-0.884c0.295,0,0.542,0.104,0.741,0.312C151.255,205.722,151.354,205.974,151.354,206.269z"/>
	<path fill="#FFFFFF" stroke="#000000" stroke-width="0.1" d="M158.79,206.352c0,0.504-0.239,0.816-0.719,0.938
		c-0.154,0.035-0.599,0.052-1.335,0.052v10.936c0,0.816-0.386,1.224-1.157,1.224s-1.157-0.407-1.157-1.224v-10.936
		c-0.735,0-1.181-0.017-1.335-0.052c-0.479-0.121-0.719-0.434-0.719-0.938c0-0.503,0.24-0.815,0.719-0.938
		c0.154-0.034,0.6-0.052,1.335-0.052c0-0.104-0.021-0.395-0.064-0.872c-0.044-0.478-0.065-0.872-0.065-1.185
		c0-1.476,0.425-2.213,1.274-2.213c0.849,0,1.273,0.737,1.273,2.213c0,0.312-0.017,0.707-0.052,1.185s-0.052,0.769-0.052,0.872
		c0.736,0,1.181,0.018,1.335,0.052C158.551,205.536,158.79,205.849,158.79,206.352z"/>
	<path fill="#FFFFFF" stroke="#000000" stroke-width="0.1" d="M163.704,201.872c0,0.399-0.14,0.737-0.416,1.015
		c-0.277,0.277-0.607,0.416-0.988,0.416c-0.398,0-0.732-0.139-1.001-0.416s-0.403-0.615-0.403-1.015c0-0.381,0.135-0.71,0.403-0.987
		s0.603-0.416,1.001-0.416c0.381,0,0.711,0.139,0.988,0.416C163.564,201.162,163.704,201.491,163.704,201.872z M163.47,218.276
		c0,0.816-0.386,1.224-1.157,1.224s-1.156-0.407-1.156-1.224v-11.852c0-0.816,0.385-1.225,1.156-1.225s1.157,0.408,1.157,1.225
		V218.276z"/>
	<path fill="#FFFFFF" stroke="#000000" stroke-width="0.1" d="M176.392,206.269c0,0.607-0.615,2.596-1.846,5.965
		c-0.798,2.084-1.586,4.176-2.366,6.277c-0.226,0.66-0.624,0.989-1.196,0.989c-0.571,0-0.971-0.329-1.195-0.989
		c-0.78-2.102-1.569-4.193-2.366-6.277c-1.231-3.369-1.846-5.357-1.846-5.965c0-0.295,0.1-0.547,0.299-0.756
		c0.199-0.208,0.446-0.312,0.741-0.312c0.606,0,1.005,0.295,1.195,0.884l3.146,9.673h0.052l3.146-9.673
		c0.19-0.589,0.589-0.884,1.195-0.884c0.295,0,0.542,0.104,0.741,0.312C176.292,205.722,176.392,205.974,176.392,206.269z"/>
	<path fill="#FFFFFF" stroke="#000000" stroke-width="0.1" d="M189.548,211.986c0,0.832-0.424,1.248-1.271,1.248h-8.583
		c0,1.248,0.371,2.267,1.115,3.055c0.743,0.789,1.729,1.184,2.956,1.184c0.829,0,1.599-0.165,2.308-0.494
		c0.396-0.173,0.881-0.468,1.452-0.884c0.432-0.329,0.734-0.494,0.907-0.494c0.553,0,0.83,0.34,0.83,1.021
		c0,0.768-0.764,1.466-2.288,2.094c-1.266,0.523-2.35,0.785-3.25,0.785c-2.028,0-3.614-0.703-4.758-2.109
		c-1.058-1.303-1.587-2.986-1.587-5.054c0-1.944,0.547-3.594,1.639-4.948c1.161-1.459,2.687-2.188,4.576-2.188
		c1.768,0,3.224,0.702,4.367,2.106C189.019,208.624,189.548,210.184,189.548,211.986z M187.233,211.492
		c0-1.161-0.31-2.148-0.93-2.964c-0.688-0.901-1.593-1.352-2.711-1.352c-1.24,0-2.204,0.416-2.893,1.248
		c-0.62,0.763-0.955,1.785-1.007,3.067H187.233z"/>
	<path fill="#FFFFFF" stroke="#000000" stroke-width="0.1" d="M197.528,206.372c0,0.504-0.379,0.895-1.137,1.172
		c-1.12,0.4-1.835,0.738-2.146,1.017c-0.758,0.643-1.138,1.658-1.138,3.048v6.668c0,0.816-0.386,1.224-1.156,1.224
		c-0.771,0-1.157-0.407-1.157-1.224v-11.852c0-0.816,0.381-1.225,1.144-1.225c0.59,0,0.953,0.286,1.093,0.858
		c0.034,0.156,0.052,0.676,0.052,1.56h0.052c0.295-0.624,0.711-1.17,1.248-1.638c0.624-0.521,1.248-0.78,1.872-0.78
		C197.104,205.2,197.528,205.591,197.528,206.372z"/>
	<path fill="#FFFFFF" stroke="#000000" stroke-width="0.1" d="M209.854,211.986c0,0.832-0.424,1.248-1.271,1.248h-8.583
		c0,1.248,0.371,2.267,1.115,3.055c0.743,0.789,1.729,1.184,2.956,1.184c0.829,0,1.599-0.165,2.308-0.494
		c0.396-0.173,0.881-0.468,1.452-0.884c0.432-0.329,0.734-0.494,0.907-0.494c0.553,0,0.83,0.34,0.83,1.021
		c0,0.768-0.764,1.466-2.288,2.094c-1.266,0.523-2.35,0.785-3.25,0.785c-2.028,0-3.614-0.703-4.758-2.109
		c-1.058-1.303-1.587-2.986-1.587-5.054c0-1.944,0.547-3.594,1.639-4.948c1.161-1.459,2.687-2.188,4.576-2.188
		c1.768,0,3.224,0.702,4.367,2.106C209.324,208.624,209.854,210.184,209.854,211.986z M207.539,211.492
		c0-1.161-0.31-2.148-0.93-2.964c-0.688-0.901-1.593-1.352-2.711-1.352c-1.24,0-2.204,0.416-2.893,1.248
		c-0.62,0.763-0.955,1.785-1.007,3.067H207.539z"/>
	<path fill="#FFFFFF" stroke="#000000" stroke-width="0.1" d="M222.099,218.276c0,0.816-0.382,1.224-1.145,1.224
		c-0.85,0-1.273-0.842-1.273-2.527c0-0.451,0.039-1.241,0.117-2.37c0.077-1.129,0.116-1.98,0.116-2.554
		c0-1.511-0.208-2.648-0.624-3.413c-0.52-0.973-1.412-1.459-2.678-1.459s-2.158,0.486-2.678,1.459
		c-0.416,0.765-0.624,1.902-0.624,3.413c0,0.573,0.039,1.425,0.117,2.554s0.117,1.919,0.117,2.37c0,1.686-0.426,2.527-1.274,2.527
		c-0.763,0-1.145-0.407-1.145-1.224v-11.852c0-0.816,0.382-1.225,1.145-1.225c0.503,0,0.832,0.191,0.988,0.572
		c0.104,0.226,0.155,0.624,0.155,1.196l0.053,0.052c0.953-1.213,2.227-1.82,3.821-1.82c1.509,0,2.687,0.499,3.536,1.498
		c0.85,0.998,1.274,2.271,1.274,3.815V218.276z"/>
</g>
<g>
	<path fill="#ED1F24" stroke="#FFFFFF" d="M229.166,147.46l-30.935-30.938c-5.178-5.184-12.621-6.628-19.145-4.491l-3.707-3.703
		l-3.239,4.734l-5.157,1.426l-2.044,4.733l-2.37,1.692l4.238,4.238c-1.588,6.223-0.014,13.075,4.847,17.944l30.935,30.933
		c7.342,7.339,19.238,7.339,26.577,0.005C236.505,166.692,236.505,154.794,229.166,147.46z M223.524,168.387
		c-4.814,4.812-12.865,4.562-17.979-0.562l-27.673-27.672c-2.219-2.214-3.466-4.977-3.852-7.779l4.968,4.962
		c3.499,3.501,9.196,3.511,12.701,0c3.511-3.509,3.505-9.197,0-12.697l-5.89-5.886c3.385,0.004,6.822,1.314,9.486,3.978
		l27.68,27.672C228.077,155.523,228.339,163.577,223.524,168.387z"/>
	<path fill="#ED1F24" stroke="#FFFFFF" d="M155.555,113.894l2.735,2.741l6.197-2.367l2.496-4.054h2.906l2.447-4.923l-4.988-4.985
		c1.309-6.038-0.348-12.585-5.036-17.269l-30.939-30.939c-7.338-7.343-19.233-7.343-26.573,0c-7.334,7.334-7.334,19.231,0,26.574
		l30.938,30.934C141.101,114.964,148.878,116.369,155.555,113.894z M111.009,75.72c-5.12-5.116-5.373-13.166-0.562-17.98
		c4.814-4.806,12.863-4.563,17.983,0.562l27.674,27.676c1.955,1.954,3.193,4.338,3.717,6.813c-3.511-3.402-9.111-3.384-12.59,0.09
		c-3.506,3.509-3.502,9.197,0,12.703l1.754,1.75c-3.636,0.225-7.424-1.058-10.299-3.933L111.009,75.72z"/>
	<rect x="174.956" y="88.152" fill="#ED1F24" stroke="#FFFFFF" width="3.037" height="13.17"/>
	<rect x="179.733" y="102.163" fill="#ED1F24" stroke="#FFFFFF" width="13.176" height="3.038"/>
	<rect x="157.562" y="123.892" fill="#ED1F24" stroke="#FFFFFF" width="3.04" height="13.174"/>
	<rect x="142.649" y="120.013" fill="#ED1F24" stroke="#FFFFFF" width="13.175" height="3.042"/>
</g>
</svg>
