<?xml version="1.0" encoding="utf-8"?>
<!-- Generator: Adobe Illustrator 16.0.0, SVG Export Plug-In . SVG Version: 6.00 Build 0)  -->
<!DOCTYPE svg PUBLIC "-//W3C//DTD SVG 1.1//EN" "http://www.w3.org/Graphics/SVG/1.1/DTD/svg11.dtd">
<svg version="1.1" id="main" xmlns="http://www.w3.org/2000/svg" xmlns:xlink="http://www.w3.org/1999/xlink" x="0px" y="0px"
	 width="320px" height="240px" viewBox="0 0 320 240" enable-background="new 0 0 320 240" xml:space="preserve">
<g>
	<path fill="#FFFFFF" stroke="#000000" stroke-width="0.1" d="M146.676,217.989c0,0.295-0.112,0.538-0.337,0.729
		c-0.226,0.191-0.484,0.286-0.778,0.286c-0.674,0-2.325-1.338-4.954-4.015c-1.591-1.687-3.182-3.373-4.772-5.059v7.848
		c0,0.817-0.386,1.226-1.157,1.226s-1.157-0.407-1.157-1.224v-16.584c0-0.816,0.386-1.224,1.157-1.224s1.157,0.407,1.157,1.222
		v6.838c1.47-1.438,2.947-2.877,4.435-4.316c2.646-2.495,4.219-3.743,4.72-3.743c0.657,0,0.985,0.329,0.985,0.989
		c0,0.694-1.17,2.074-3.51,4.14c-1.525,1.268-3.042,2.543-4.55,3.827c1.612,1.493,3.224,2.985,4.836,4.478
		C145.367,215.906,146.676,217.434,146.676,217.989z"/>
	<path fill="#FFFFFF" stroke="#000000" stroke-width="0.1" d="M151.486,217.779c0,0.816-0.386,1.225-1.157,1.225
		s-1.157-0.408-1.157-1.225v-18.012c0-0.834,0.386-1.251,1.157-1.251s1.157,0.417,1.157,1.251V217.779z"/>
	<path fill="#FFFFFF" stroke="#000000" stroke-width="0.1" d="M165.864,211.49c0,0.832-0.424,1.248-1.271,1.248h-8.583
		c0,1.248,0.371,2.267,1.115,3.055c0.743,0.789,1.729,1.184,2.956,1.184c0.829,0,1.599-0.165,2.308-0.494
		c0.396-0.173,0.881-0.468,1.452-0.884c0.432-0.329,0.734-0.494,0.907-0.494c0.553,0,0.83,0.34,0.83,1.021
		c0,0.768-0.764,1.466-2.288,2.094c-1.266,0.523-2.35,0.785-3.25,0.785c-2.028,0-3.614-0.703-4.758-2.109
		c-1.058-1.303-1.587-2.986-1.587-5.054c0-1.944,0.547-3.594,1.639-4.948c1.161-1.459,2.687-2.188,4.576-2.188
		c1.768,0,3.224,0.702,4.367,2.106C165.335,208.128,165.864,209.688,165.864,211.49z M163.55,210.996c0-1.161-0.31-2.148-0.93-2.964
		c-0.688-0.901-1.593-1.352-2.711-1.352c-1.24,0-2.204,0.416-2.893,1.248c-0.62,0.763-0.955,1.785-1.007,3.067H163.55z"/>
	<path fill="#FFFFFF" stroke="#000000" stroke-width="0.1" d="M178.551,213.43c0,1.737-0.485,3.101-1.456,4.09
		c-0.971,0.99-2.313,1.484-4.029,1.484c-1.733,0-3.081-0.494-4.043-1.484c-0.962-0.989-1.443-2.353-1.443-4.09v-7.501
		c0-0.816,0.381-1.225,1.145-1.225c0.849,0,1.273,0.815,1.273,2.444c0,0.468-0.043,1.287-0.13,2.457s-0.13,2.059-0.13,2.665
		c0,3.138,1.109,4.706,3.328,4.706c2.201,0,3.302-1.568,3.302-4.706c0-0.606-0.044-1.495-0.13-2.665
		c-0.087-1.17-0.13-1.989-0.13-2.457c0-1.629,0.433-2.444,1.3-2.444c0.763,0,1.144,0.408,1.144,1.225V213.43z"/>
	<path fill="#FFFFFF" stroke="#000000" stroke-width="0.1" d="M187.131,205.876c0,0.504-0.379,0.895-1.137,1.172
		c-1.12,0.4-1.835,0.738-2.146,1.017c-0.758,0.643-1.138,1.658-1.138,3.048v6.668c0,0.816-0.386,1.224-1.156,1.224
		c-0.771,0-1.157-0.407-1.157-1.224v-11.852c0-0.816,0.381-1.225,1.144-1.225c0.59,0,0.953,0.286,1.093,0.858
		c0.034,0.156,0.052,0.676,0.052,1.56h0.052c0.295-0.624,0.711-1.17,1.248-1.638c0.624-0.521,1.248-0.78,1.872-0.78
		C186.706,204.704,187.131,205.095,187.131,205.876z"/>
</g>
<g>
	<path opacity="0.8" fill="#3953A4" stroke="#FFFFFF" stroke-width="0.75" d="M198.646,75.283c0,21.816-17.685,39.509-39.505,39.509
		c-21.816,0-39.506-17.692-39.506-39.509c0-21.821,17.689-39.508,39.506-39.508C180.962,35.775,198.646,53.462,198.646,75.283z"/>
	<path opacity="0.8" fill="#ED1F24" stroke="#FFFFFF" stroke-width="0.75" d="M172.265,118.362
		c0,21.823-17.693,39.509-39.512,39.509c-21.822,0-39.505-17.686-39.505-39.509c0-21.821,17.683-39.508,39.505-39.508
		C154.571,78.854,172.265,96.541,172.265,118.362z"/>
	<path opacity="0.8" fill="#69BD45" stroke="#FFFFFF" stroke-width="0.75" d="M226.751,118.362
		c0,21.823-17.684,39.509-39.506,39.509c-21.818,0-39.508-17.686-39.508-39.509c0-21.821,17.689-39.508,39.508-39.508
		C209.067,78.854,226.751,96.541,226.751,118.362z"/>
</g>
</svg>
