<?xml version="1.0" encoding="utf-8"?>
<!-- Generator: Adobe Illustrator 16.0.0, SVG Export Plug-In . SVG Version: 6.00 Build 0)  -->
<!DOCTYPE svg PUBLIC "-//W3C//DTD SVG 1.1//EN" "http://www.w3.org/Graphics/SVG/1.1/DTD/svg11.dtd">
<svg version="1.1" id="main" xmlns="http://www.w3.org/2000/svg" xmlns:xlink="http://www.w3.org/1999/xlink" x="0px" y="0px"
	 width="320px" height="240px" viewBox="0 0 320 240" enable-background="new 0 0 320 240" xml:space="preserve">
<polygon opacity="0.8" fill="#3953A4" stroke="#FFFFFF" stroke-width="1.2284" points="235.898,71.574 205.736,71.574 
	205.736,41.41 183.209,41.41 183.209,71.574 153.045,71.574 153.045,94.1 183.209,94.1 183.209,124.263 205.736,124.263 
	205.736,94.1 235.898,94.1 "/>
<polygon opacity="0.8" fill="#69BD45" stroke="#FFFFFF" stroke-width="1.071" points="142.078,147.835 122.42,147.835 
	122.42,128.175 107.736,128.175 107.736,147.835 88.078,147.835 88.078,162.517 107.736,162.517 107.736,182.176 122.42,182.176 
	122.42,162.517 142.078,162.517 "/>
<polygon opacity="0.8" fill="#ED1F24" stroke="#FFFFFF" points="200.623,104.134 160.392,104.134 160.392,63.902 130.346,63.902 
	130.346,104.134 90.115,104.134 90.115,134.18 130.346,134.18 130.346,174.41 160.392,174.41 160.392,134.18 200.623,134.18 "/>
<g>
	<path fill="#FFFFFF" stroke="#000000" stroke-width="0.1" d="M134.457,208.014h2.262v8.45h0.078c0.468-0.676,0.936-1.3,1.378-1.872
		l5.356-6.578h2.808l-6.344,7.436l6.838,10.089h-2.678l-5.747-8.606l-1.689,1.924v6.683h-2.262V208.014z"/>
	<path fill="#FFFFFF" stroke="#000000" stroke-width="0.1" d="M148.73,216.88c0-1.482-0.026-2.756-0.104-3.927h2.002l0.104,2.496
		h0.078c0.571-1.689,1.976-2.756,3.51-2.756c0.234,0,0.416,0.026,0.624,0.053v2.157c-0.234-0.052-0.468-0.052-0.78-0.052
		c-1.611,0-2.756,1.196-3.068,2.912c-0.052,0.312-0.077,0.702-0.077,1.066v6.708h-2.288V216.88z"/>
	<path fill="#FFFFFF" stroke="#000000" stroke-width="0.1" d="M167.763,222.08c0,1.326,0.025,2.47,0.104,3.458h-2.028l-0.13-2.054
		h-0.052c-0.572,1.014-1.924,2.34-4.16,2.34c-1.976,0-4.342-1.118-4.342-5.513v-7.358h2.288v6.942c0,2.393,0.754,4.03,2.808,4.03
		c1.534,0,2.601-1.065,3.017-2.105c0.13-0.312,0.208-0.729,0.208-1.17v-7.697h2.288V222.08z"/>
	<path fill="#FFFFFF" stroke="#000000" stroke-width="0.1" d="M174.106,209.418c0,0.779-0.546,1.403-1.456,1.403
		c-0.832,0-1.378-0.624-1.378-1.403c0-0.78,0.571-1.431,1.43-1.431C173.534,207.987,174.106,208.611,174.106,209.418z
		 M171.559,225.538v-12.585h2.288v12.585H171.559z"/>
	<path fill="#FFFFFF" stroke="#000000" stroke-width="0.1" d="M177.33,223.224c0.702,0.416,1.898,0.885,3.042,0.885
		c1.639,0,2.418-0.807,2.418-1.872c0-1.093-0.649-1.664-2.313-2.288c-2.288-0.832-3.354-2.055-3.354-3.562
		c0-2.028,1.664-3.692,4.343-3.692c1.273,0,2.392,0.338,3.067,0.78l-0.546,1.664c-0.494-0.312-1.404-0.754-2.574-0.754
		c-1.352,0-2.08,0.78-2.08,1.716c0,1.04,0.729,1.508,2.366,2.158c2.158,0.806,3.302,1.898,3.302,3.771
		c0,2.235-1.741,3.796-4.68,3.796c-1.378,0-2.652-0.364-3.536-0.884L177.33,223.224z"/>
</g>
</svg>
