<?xml version="1.0" encoding="utf-8"?>
<!-- Generator: Adobe Illustrator 16.0.0, SVG Export Plug-In . SVG Version: 6.00 Build 0)  -->
<!DOCTYPE svg PUBLIC "-//W3C//DTD SVG 1.1//EN" "http://www.w3.org/Graphics/SVG/1.1/DTD/svg11.dtd">
<svg version="1.1" id="main" xmlns="http://www.w3.org/2000/svg" xmlns:xlink="http://www.w3.org/1999/xlink" x="0px" y="0px"
	 width="320px" height="240px" viewBox="0 0 320 240" enable-background="new 0 0 320 240" xml:space="preserve">
<g>
	<path fill="#FFFFFF" stroke="#000000" stroke-width="0.1" d="M140.631,205.154v7.332h8.477v-7.332h2.288v17.524h-2.288v-8.217
		h-8.477v8.217h-2.288v-17.524H140.631z"/>
	<path fill="#FFFFFF" stroke="#000000" stroke-width="0.1" d="M164.083,219.662c0,1.093,0.052,2.158,0.183,3.017h-2.055
		l-0.182-1.586h-0.078c-0.702,0.987-2.055,1.872-3.849,1.872c-2.548,0-3.848-1.794-3.848-3.614c0-3.042,2.704-4.706,7.566-4.681
		v-0.26c0-1.014-0.286-2.912-2.86-2.886c-1.196,0-2.418,0.338-3.302,0.936l-0.521-1.534c1.04-0.649,2.574-1.092,4.16-1.092
		c3.849,0,4.784,2.626,4.784,5.122V219.662z M161.873,216.256c-2.496-0.052-5.33,0.391-5.33,2.835c0,1.508,0.988,2.184,2.132,2.184
		c1.664,0,2.73-1.04,3.095-2.106c0.077-0.26,0.104-0.52,0.104-0.728V216.256z"/>
	<path fill="#FFFFFF" stroke="#000000" stroke-width="0.1" d="M167.775,214.021c0-1.482-0.026-2.757-0.104-3.927h2.002l0.104,2.496
		h0.078c0.571-1.689,1.976-2.756,3.51-2.756c0.234,0,0.416,0.026,0.624,0.052v2.158c-0.234-0.052-0.468-0.052-0.78-0.052
		c-1.611,0-2.756,1.196-3.068,2.912c-0.052,0.312-0.077,0.702-0.077,1.066v6.708h-2.288V214.021z"/>
	<path fill="#FFFFFF" stroke="#000000" stroke-width="0.1" d="M179.657,207.078v3.016h3.276v1.742h-3.276v6.786
		c0,1.561,0.442,2.444,1.716,2.444c0.624,0,0.988-0.052,1.326-0.156l0.104,1.742c-0.441,0.156-1.144,0.312-2.027,0.312
		c-1.066,0-1.924-0.364-2.471-0.962c-0.624-0.702-0.884-1.82-0.884-3.303v-6.864h-1.95v-1.742h1.95v-2.34L179.657,207.078z"/>
</g>
<path opacity="0.8" fill="#69BD45" stroke="#FFFFFF" stroke-width="1.0711" d="M138.189,85.681
	c-8.752-0.931-23.246,4.436-25.758,18.472C109.908,90.117,95.43,84.75,86.686,85.681c-10.704,1.14-24.832,5.862-21.253,27.793
	c3.591,21.926,47.188,59.484,47.188,59.484s43.229-37.559,46.809-59.484C163.021,91.543,148.889,86.821,138.189,85.681z"/>
<path opacity="0.8" fill="#3953A4" stroke="#FFFFFF" stroke-width="1.2284" d="M216.896,39.572
	c-6.791-0.723-18.039,3.442-19.988,14.333c-1.957-10.891-13.193-15.056-19.979-14.333c-8.306,0.885-19.269,4.549-16.491,21.567
	c2.786,17.014,36.617,46.159,36.617,46.159s33.546-29.145,36.323-46.159C236.166,44.121,225.199,40.457,216.896,39.572z"/>
<path opacity="0.8" fill="#ED1F24" stroke="#FFFFFF" stroke-width="1.4319" d="M194.149,55.403
	c-11.604-1.234-30.82,5.882-34.15,24.491c-3.346-18.609-22.543-25.726-34.137-24.491c-14.191,1.512-32.924,7.772-28.178,36.85
	c4.762,29.07,62.564,78.868,62.564,78.868s57.316-49.798,62.062-78.868C227.073,63.176,208.335,56.915,194.149,55.403z"/>
</svg>
