<?xml version="1.0" encoding="utf-8"?>
<!-- Generator: Adobe Illustrator 16.0.0, SVG Export Plug-In . SVG Version: 6.00 Build 0)  -->
<!DOCTYPE svg PUBLIC "-//W3C//DTD SVG 1.1//EN" "http://www.w3.org/Graphics/SVG/1.1/DTD/svg11.dtd">
<svg version="1.1" id="main" xmlns="http://www.w3.org/2000/svg" xmlns:xlink="http://www.w3.org/1999/xlink" x="0px" y="0px"
	 width="320px" height="240px" viewBox="0 0 320 240" enable-background="new 0 0 320 240" xml:space="preserve">
<path opacity="0.8" fill="#ED1F24" stroke="#FFFFFF" stroke-width="1.4319" d="M158.727,31.317
	c-30.306,0-54.871,24.567-54.871,54.871c0,30.305,24.565,54.864,54.871,54.864c30.301,0,54.87-24.56,54.87-54.864
	C213.597,55.885,189.027,31.317,158.727,31.317z M158.727,133.092c-25.867,0-46.906-21.039-46.906-46.903
	c0-25.87,21.039-46.903,46.906-46.903c25.862,0,46.905,21.033,46.905,46.903C205.632,112.053,184.589,133.092,158.727,133.092z"/>
<path opacity="0.8" fill="#69BD45" stroke="#FFFFFF" stroke-width="1.071" d="M158.399,59.311c-0.023,0-0.033,0-0.041,0
	c-0.017,0-0.017,0-0.017,0s0,0-0.008,0c-0.006,0-0.014,0-0.014,0c-0.015,0-0.015,0-0.015,0s0,0-0.009,0
	c-0.053-0.014-0.075-0.007-0.116-0.007c-6.952,0-13.717,2.762-18.72,7.604l-5.505-5.575c-0.262-0.263-0.668-0.35-0.995-0.202
	c-0.34,0.142-0.577,0.471-0.577,0.847l0.918,19.045h17.902c0.008,0,0.031,0,0.031,0c0.519,0,0.929-0.409,0.929-0.92
	c0-0.336-0.181-0.632-0.46-0.8l-5.425-5.495c3.226-3.104,7.421-4.81,12.026-4.81c9.399,0.061,17.058,7.766,17.058,17.312
	c-0.071,9.358-7.7,16.963-17.2,17.03c-6.185-0.336-12.026-4.018-14.818-10.11l-8.814,4.063l0.058,0.114
	c6.036,11.656,15.528,16.58,25.735,15.532c13.731-1.095,24.647-12.603,24.742-26.758C185.065,71.477,173.11,59.432,158.399,59.311z"
	/>
<rect x="2.5" y="207.078" fill="none" width="315" height="32.922"/>
<text transform="matrix(1 0 0 1 117.0742 225.5371)" fill="#FFFFFF" stroke="#000000" stroke-width="0.1" font-family="'MyriadPro-Regular'" font-size="26">Roteren</text>
</svg>
