<?xml version="1.0" encoding="utf-8"?>
<!-- Generator: Adobe Illustrator 16.0.0, SVG Export Plug-In . SVG Version: 6.00 Build 0)  -->
<!DOCTYPE svg PUBLIC "-//W3C//DTD SVG 1.1//EN" "http://www.w3.org/Graphics/SVG/1.1/DTD/svg11.dtd">
<svg version="1.1" id="main" xmlns="http://www.w3.org/2000/svg" xmlns:xlink="http://www.w3.org/1999/xlink" x="0px" y="0px"
	 width="320px" height="240px" viewBox="0 0 320 240" enable-background="new 0 0 320 240" xml:space="preserve">
<g>
	<path fill="#FFFFFF" stroke="#000000" stroke-width="0.1" d="M139.461,214.777h-6.786v6.318h7.592v1.898h-9.88V205.47h9.49v1.897
		h-7.202v5.538h6.786V214.777z"/>
	<path fill="#FFFFFF" stroke="#000000" stroke-width="0.1" d="M143.127,204.533h2.288v18.461h-2.288V204.533z"/>
	<path fill="#FFFFFF" stroke="#000000" stroke-width="0.1" d="M151.811,206.873c0,0.78-0.546,1.404-1.456,1.404
		c-0.832,0-1.378-0.624-1.378-1.404c0-0.779,0.572-1.43,1.43-1.43C151.238,205.443,151.811,206.067,151.811,206.873z
		 M149.263,222.994v-12.585h2.288v12.585H149.263z"/>
	<path fill="#FFFFFF" stroke="#000000" stroke-width="0.1" d="M155.347,214.518c0-1.612-0.053-2.912-0.104-4.108h2.028l0.13,2.158
		h0.052c0.91-1.534,2.418-2.418,4.473-2.418c3.067,0,5.356,2.574,5.356,6.37c0,4.524-2.782,6.761-5.747,6.761
		c-1.664,0-3.12-0.729-3.874-1.977h-0.052v6.839h-2.262V214.518z M157.608,217.872c0,0.338,0.026,0.649,0.104,0.936
		c0.416,1.586,1.794,2.679,3.432,2.679c2.418,0,3.822-1.977,3.822-4.862c0-2.496-1.326-4.654-3.744-4.654
		c-1.561,0-3.042,1.092-3.458,2.808c-0.078,0.286-0.156,0.624-0.156,0.91V217.872z"/>
	<path fill="#FFFFFF" stroke="#000000" stroke-width="0.1" d="M169.828,220.68c0.702,0.416,1.898,0.884,3.042,0.884
		c1.639,0,2.418-0.806,2.418-1.872c0-1.092-0.649-1.664-2.313-2.288c-2.288-0.832-3.354-2.054-3.354-3.562
		c0-2.028,1.664-3.692,4.343-3.692c1.273,0,2.392,0.338,3.067,0.78l-0.546,1.664c-0.494-0.312-1.404-0.754-2.574-0.754
		c-1.352,0-2.08,0.779-2.08,1.716c0,1.04,0.729,1.508,2.366,2.158c2.158,0.806,3.302,1.897,3.302,3.77
		c0,2.236-1.741,3.797-4.68,3.797c-1.378,0-2.652-0.364-3.536-0.885L169.828,220.68z"/>
	<path fill="#FFFFFF" stroke="#000000" stroke-width="0.1" d="M181.71,217.118c0.052,3.094,2.002,4.368,4.316,4.368
		c1.638,0,2.652-0.286,3.484-0.65l0.416,1.638c-0.807,0.364-2.21,0.807-4.212,0.807c-3.875,0-6.188-2.574-6.188-6.37
		c0-3.797,2.235-6.761,5.902-6.761c4.134,0,5.2,3.588,5.2,5.902c0,0.468-0.026,0.806-0.078,1.066H181.71z M188.418,215.479
		c0.026-1.43-0.598-3.692-3.172-3.692c-2.34,0-3.328,2.106-3.51,3.692H188.418z"/>
</g>
<ellipse opacity="0.8" fill="#3953A4" stroke="#FFFFFF" stroke-width="1.1469" cx="130.5" cy="130" rx="44.5" ry="24"/>
<ellipse opacity="0.8" fill="#69BD45" stroke="#FFFFFF" cx="183" cy="131" rx="32" ry="52.292"/>
<circle opacity="0.8" fill="#ED1F24" stroke="#FFFFFF" stroke-width="1.337" cx="160.5" cy="88.5" r="61.5"/>
</svg>
