<?xml version="1.0" encoding="utf-8"?>
<!-- Generator: Adobe Illustrator 16.0.0, SVG Export Plug-In . SVG Version: 6.00 Build 0)  -->
<!DOCTYPE svg PUBLIC "-//W3C//DTD SVG 1.1//EN" "http://www.w3.org/Graphics/SVG/1.1/DTD/svg11.dtd">
<svg version="1.1" id="main" xmlns="http://www.w3.org/2000/svg" xmlns:xlink="http://www.w3.org/1999/xlink" x="0px" y="0px"
	 width="320px" height="240px" viewBox="0 0 320 240" enable-background="new 0 0 320 240" xml:space="preserve">
<g>
	<g>
		<path fill="#FFFFFF" stroke="#000000" stroke-width="0.075" d="M115.871,204.833c0,2.667-1.077,4.435-3.23,5.299
			c-1.275,0.505-3.465,0.758-6.57,0.758c0,0.126,0.031,0.662,0.095,1.608c0.062,0.946,0.095,1.727,0.095,2.338
			c0,2.326-0.469,3.488-1.404,3.488c-0.793,0-1.188-0.424-1.188-1.271v-17.033c0-0.865,0.423-1.298,1.27-1.298h4.698
			c1.799,0,3.289,0.567,4.468,1.703S115.871,203.03,115.871,204.833z M113.469,204.838c0-1.22-0.362-2.193-1.086-2.919
			c-0.725-0.727-1.702-1.091-2.935-1.091h-3.378v7.992h3.484c1.126,0,2.06-0.381,2.801-1.145
			C113.098,206.914,113.469,205.969,113.469,204.838z"/>
		<path fill="#FFFFFF" stroke="#000000" stroke-width="0.075" d="M129.425,210.886c0,2.021-0.54,3.732-1.62,5.14
			c-1.17,1.533-2.736,2.299-4.697,2.299c-1.963,0-3.528-0.766-4.699-2.299c-1.079-1.407-1.619-3.119-1.619-5.14
			c0-2.002,0.54-3.706,1.619-5.112c1.188-1.533,2.754-2.299,4.699-2.299c1.943,0,3.51,0.766,4.697,2.299
			C128.885,207.18,129.425,208.884,129.425,210.886z M127.021,210.873c0-1.423-0.295-2.619-0.885-3.592
			c-0.697-1.17-1.707-1.755-3.029-1.755c-1.324,0-2.334,0.585-3.03,1.755c-0.591,0.973-0.886,2.169-0.886,3.592
			c0,1.421,0.295,2.618,0.886,3.59c0.696,1.17,1.706,1.756,3.03,1.756c1.322,0,2.332-0.586,3.029-1.756
			C126.727,213.491,127.021,212.294,127.021,210.873z"/>
		<path fill="#FFFFFF" stroke="#000000" stroke-width="0.075" d="M134.339,200.018c0,0.415-0.145,0.766-0.433,1.054
			c-0.287,0.288-0.63,0.433-1.025,0.433c-0.414,0-0.761-0.145-1.039-0.433c-0.279-0.288-0.419-0.639-0.419-1.054
			c0-0.395,0.14-0.737,0.419-1.025c0.278-0.287,0.625-0.432,1.039-0.432c0.396,0,0.738,0.145,1.025,0.432
			C134.194,199.28,134.339,199.623,134.339,200.018z M134.096,217.054c0,0.847-0.4,1.271-1.201,1.271s-1.202-0.424-1.202-1.271
			v-12.309c0-0.847,0.401-1.271,1.202-1.271s1.201,0.424,1.201,1.271V217.054z"/>
		<path fill="#FFFFFF" stroke="#000000" stroke-width="0.075" d="M147.974,217.054c0,0.847-0.396,1.271-1.188,1.271
			c-0.882,0-1.323-0.875-1.323-2.624c0-0.47,0.041-1.29,0.122-2.463c0.081-1.172,0.121-2.056,0.121-2.651
			c0-1.569-0.216-2.75-0.648-3.544c-0.539-1.01-1.467-1.516-2.78-1.516c-1.314,0-2.241,0.506-2.78,1.516
			c-0.433,0.794-0.648,1.975-0.648,3.544c0,0.596,0.04,1.479,0.121,2.651c0.081,1.173,0.122,1.993,0.122,2.463
			c0,1.749-0.441,2.624-1.323,2.624c-0.793,0-1.188-0.424-1.188-1.271v-12.309c0-0.847,0.396-1.271,1.188-1.271
			c0.521,0,0.864,0.198,1.025,0.594c0.108,0.234,0.162,0.648,0.162,1.242l0.055,0.054c0.989-1.26,2.312-1.89,3.969-1.89
			c1.566,0,2.79,0.519,3.672,1.556c0.882,1.036,1.323,2.357,1.323,3.962V217.054z"/>
		<path fill="#FFFFFF" stroke="#000000" stroke-width="0.075" d="M155.966,204.67c0,0.522-0.249,0.848-0.747,0.974
			c-0.16,0.036-0.622,0.054-1.387,0.054v11.356c0,0.847-0.4,1.271-1.201,1.271s-1.201-0.424-1.201-1.271v-11.356
			c-0.765,0-1.228-0.018-1.387-0.054c-0.498-0.126-0.746-0.451-0.746-0.974s0.248-0.847,0.746-0.974
			c0.159-0.036,0.622-0.054,1.387-0.054c0-0.108-0.023-0.41-0.068-0.906c-0.044-0.495-0.066-0.905-0.066-1.23
			c0-1.531,0.44-2.298,1.322-2.298s1.323,0.767,1.323,2.298c0,0.325-0.019,0.735-0.054,1.23c-0.037,0.496-0.055,0.798-0.055,0.906
			c0.765,0,1.227,0.018,1.387,0.054C155.717,203.823,155.966,204.147,155.966,204.67z"/>
		<path fill="#FFFFFF" stroke="#000000" stroke-width="0.075" d="M167.684,205.283c0,0.27-0.095,0.509-0.282,0.716
			c-0.188,0.206-0.417,0.311-0.687,0.311c-0.233,0-0.642-0.13-1.225-0.392c-0.583-0.261-1.135-0.392-1.654-0.392
			c-1.328,0-2.368,0.576-3.122,1.728c-0.646,1.008-0.969,2.215-0.969,3.619c0,1.403,0.323,2.609,0.969,3.617
			c0.754,1.152,1.794,1.729,3.122,1.729c0.573,0,1.152-0.136,1.734-0.405c0.584-0.271,0.955-0.405,1.117-0.405
			c0.609,0,0.915,0.336,0.915,1.008c0,0.674-0.495,1.182-1.485,1.526c-0.72,0.255-1.484,0.382-2.295,0.382
			c-2.034,0-3.645-0.748-4.833-2.245c-1.098-1.37-1.646-3.102-1.646-5.193s0.549-3.823,1.646-5.193
			c1.188-1.479,2.799-2.218,4.833-2.218c0.846,0,1.62,0.107,2.322,0.323C167.17,204.123,167.684,204.617,167.684,205.283z"/>
		<path fill="#FFFFFF" stroke="#000000" stroke-width="0.075" d="M172.57,217.052c0,0.849-0.4,1.272-1.201,1.272
			s-1.201-0.424-1.201-1.272v-18.704c0-0.866,0.4-1.3,1.201-1.3s1.201,0.434,1.201,1.3V217.052z"/>
		<path fill="#FFFFFF" stroke="#000000" stroke-width="0.075" d="M187.475,210.886c0,2.021-0.541,3.732-1.62,5.14
			c-1.171,1.533-2.736,2.299-4.698,2.299s-3.527-0.766-4.698-2.299c-1.079-1.407-1.62-3.119-1.62-5.14
			c0-2.002,0.541-3.706,1.62-5.112c1.188-1.533,2.754-2.299,4.698-2.299s3.51,0.766,4.698,2.299
			C186.934,207.18,187.475,208.884,187.475,210.886z M185.071,210.873c0-1.423-0.295-2.619-0.886-3.592
			c-0.696-1.17-1.706-1.755-3.029-1.755s-2.333,0.585-3.029,1.755c-0.591,0.973-0.886,2.169-0.886,3.592
			c0,1.421,0.295,2.618,0.886,3.59c0.696,1.17,1.706,1.756,3.029,1.756s2.333-0.586,3.029-1.756
			C184.776,213.491,185.071,212.294,185.071,210.873z"/>
		<path fill="#FFFFFF" stroke="#000000" stroke-width="0.075" d="M200.596,212.536c0,1.803-0.504,3.219-1.512,4.246
			c-1.008,1.028-2.402,1.542-4.185,1.542c-1.801,0-3.199-0.514-4.198-1.542c-0.999-1.027-1.499-2.443-1.499-4.246v-7.791
			c0-0.847,0.396-1.271,1.188-1.271c0.882,0,1.322,0.846,1.322,2.537c0,0.486-0.045,1.337-0.135,2.553
			c-0.09,1.215-0.135,2.137-0.135,2.767c0,3.259,1.151,4.888,3.456,4.888c2.286,0,3.429-1.629,3.429-4.888
			c0-0.63-0.045-1.552-0.135-2.767c-0.091-1.216-0.135-2.066-0.135-2.553c0-1.691,0.449-2.537,1.35-2.537
			c0.792,0,1.188,0.424,1.188,1.271V212.536z"/>
		<path fill="#FFFFFF" stroke="#000000" stroke-width="0.075" d="M215.689,217.052c0,0.849-0.401,1.272-1.201,1.272
			c-0.547,0-0.902-0.219-1.065-0.657c-0.092-0.236-0.137-0.692-0.137-1.368c-0.687,1.35-1.968,2.025-3.845,2.025
			c-1.895,0-3.42-0.784-4.575-2.354c-1.047-1.424-1.57-3.119-1.57-5.085s0.523-3.651,1.57-5.058
			c1.155-1.569,2.681-2.354,4.575-2.354c1.66,0,2.941,0.648,3.845,1.943c0-0.126-0.036-0.73-0.108-1.814
			c-0.072-1.083-0.107-1.986-0.107-2.709c0-2.564,0.477-3.847,1.431-3.847c0.792,0,1.188,0.434,1.188,1.3V217.052z M213.557,210.873
			c0-1.423-0.297-2.619-0.889-3.592c-0.699-1.17-1.713-1.755-3.041-1.755c-1.327,0-2.34,0.585-3.04,1.755
			c-0.593,0.973-0.888,2.169-0.888,3.592c0,1.421,0.295,2.618,0.888,3.59c0.7,1.17,1.713,1.756,3.04,1.756
			c1.328,0,2.342-0.586,3.041-1.756C213.26,213.491,213.557,212.294,213.557,210.873z"/>
	</g>
</g>
<g opacity="0.8">
	<rect x="110.556" y="97.428" fill="#69BD45" stroke="#FFFFFF" stroke-width="0.8511" width="10.037" height="10.033"/>
	<rect x="110.556" y="110.33" fill="#69BD45" stroke="#FFFFFF" stroke-width="0.8511" width="10.037" height="10.033"/>
	<rect x="97.656" y="110.33" fill="#69BD45" stroke="#FFFFFF" stroke-width="0.8511" width="10.031" height="10.033"/>
	<rect x="97.656" y="97.428" fill="#69BD45" stroke="#FFFFFF" stroke-width="0.8511" width="10.031" height="10.033"/>
	<rect x="97.656" y="123.516" fill="#69BD45" stroke="#FFFFFF" stroke-width="0.8511" width="10.031" height="10.034"/>
	<rect x="110.562" y="123.516" fill="#69BD45" stroke="#FFFFFF" stroke-width="0.8511" width="10.03" height="10.034"/>
	<rect x="123.948" y="97.428" fill="#69BD45" stroke="#FFFFFF" stroke-width="0.8511" width="10.035" height="10.033"/>
	<rect x="123.948" y="110.33" fill="#69BD45" stroke="#FFFFFF" stroke-width="0.8511" width="10.035" height="10.033"/>
	<rect x="123.948" y="123.516" fill="#69BD45" stroke="#FFFFFF" stroke-width="0.8511" width="10.035" height="10.034"/>
	<rect x="110.315" y="136.717" fill="#69BD45" stroke="#FFFFFF" stroke-width="0.8511" width="10.035" height="10.033"/>
	<rect x="110.315" y="149.619" fill="#69BD45" stroke="#FFFFFF" stroke-width="0.8511" width="10.035" height="10.027"/>
	<rect x="97.416" y="149.619" fill="#69BD45" stroke="#FFFFFF" stroke-width="0.8511" width="10.031" height="10.027"/>
	<rect x="97.416" y="136.717" fill="#69BD45" stroke="#FFFFFF" stroke-width="0.8511" width="10.031" height="10.033"/>
	<rect x="123.705" y="136.717" fill="#69BD45" stroke="#FFFFFF" stroke-width="0.8511" width="10.038" height="10.033"/>
	<rect x="123.705" y="149.619" fill="#69BD45" stroke="#FFFFFF" stroke-width="0.8511" width="10.038" height="10.027"/>
	<rect x="136.491" y="97.428" fill="#69BD45" stroke="#FFFFFF" stroke-width="0.8511" width="10.041" height="10.033"/>
	<rect x="136.491" y="110.325" fill="#69BD45" stroke="#FFFFFF" stroke-width="0.8511" width="10.041" height="10.038"/>
	<rect x="136.498" y="123.516" fill="#69BD45" stroke="#FFFFFF" stroke-width="0.8511" width="10.034" height="10.034"/>
	<rect x="149.883" y="97.428" fill="#69BD45" stroke="#FFFFFF" stroke-width="0.8511" width="10.035" height="10.033"/>
	<rect x="149.883" y="110.325" fill="#69BD45" stroke="#FFFFFF" stroke-width="0.8511" width="10.035" height="10.038"/>
	<rect x="149.883" y="123.516" fill="#69BD45" stroke="#FFFFFF" stroke-width="0.8511" width="10.035" height="10.034"/>
	<rect x="136.25" y="136.713" fill="#69BD45" stroke="#FFFFFF" stroke-width="0.8511" width="10.04" height="10.037"/>
	<rect x="136.25" y="149.614" fill="#69BD45" stroke="#FFFFFF" stroke-width="0.8511" width="10.04" height="10.032"/>
	<rect x="149.641" y="136.713" fill="#69BD45" stroke="#FFFFFF" stroke-width="0.8511" width="10.037" height="10.037"/>
	<rect x="149.641" y="149.614" fill="#69BD45" stroke="#FFFFFF" stroke-width="0.8511" width="10.037" height="10.032"/>
</g>
<g opacity="0.8">
	<rect x="142.831" y="66.738" fill="#3953A4" stroke="#FFFFFF" stroke-width="0.8511" width="10.036" height="10.032"/>
	<rect x="142.831" y="79.64" fill="#3953A4" stroke="#FFFFFF" stroke-width="0.8511" width="10.036" height="10.032"/>
	<rect x="129.931" y="79.64" fill="#3953A4" stroke="#FFFFFF" stroke-width="0.8511" width="10.03" height="10.032"/>
	<rect x="129.931" y="66.738" fill="#3953A4" stroke="#FFFFFF" stroke-width="0.8511" width="10.03" height="10.032"/>
	<rect x="129.931" y="92.826" fill="#3953A4" stroke="#FFFFFF" stroke-width="0.8511" width="10.03" height="10.033"/>
	<rect x="142.838" y="92.826" fill="#3953A4" stroke="#FFFFFF" stroke-width="0.8511" width="10.029" height="10.033"/>
	<rect x="156.223" y="66.738" fill="#3953A4" stroke="#FFFFFF" stroke-width="0.8511" width="10.035" height="10.032"/>
	<rect x="156.223" y="79.64" fill="#3953A4" stroke="#FFFFFF" stroke-width="0.8511" width="10.035" height="10.032"/>
	<rect x="156.223" y="92.826" fill="#3953A4" stroke="#FFFFFF" stroke-width="0.8511" width="10.035" height="10.033"/>
	<rect x="142.591" y="106.026" fill="#3953A4" stroke="#FFFFFF" stroke-width="0.8511" width="10.034" height="10.033"/>
	<rect x="142.591" y="118.928" fill="#3953A4" stroke="#FFFFFF" stroke-width="0.8511" width="10.034" height="10.029"/>
	<rect x="129.69" y="118.928" fill="#3953A4" stroke="#FFFFFF" stroke-width="0.8511" width="10.03" height="10.029"/>
	<rect x="129.69" y="106.026" fill="#3953A4" stroke="#FFFFFF" stroke-width="0.8511" width="10.03" height="10.033"/>
	<rect x="155.979" y="106.026" fill="#3953A4" stroke="#FFFFFF" stroke-width="0.8511" width="10.038" height="10.033"/>
	<rect x="155.979" y="118.928" fill="#3953A4" stroke="#FFFFFF" stroke-width="0.8511" width="10.038" height="10.029"/>
	<rect x="168.766" y="66.738" fill="#3953A4" stroke="#FFFFFF" stroke-width="0.8511" width="10.041" height="10.032"/>
	<rect x="168.766" y="79.635" fill="#3953A4" stroke="#FFFFFF" stroke-width="0.8511" width="10.041" height="10.037"/>
	<rect x="168.772" y="92.826" fill="#3953A4" stroke="#FFFFFF" stroke-width="0.8511" width="10.034" height="10.033"/>
	<rect x="182.157" y="66.738" fill="#3953A4" stroke="#FFFFFF" stroke-width="0.8511" width="10.034" height="10.032"/>
	<rect x="182.157" y="79.635" fill="#3953A4" stroke="#FFFFFF" stroke-width="0.8511" width="10.034" height="10.037"/>
	<rect x="182.157" y="92.826" fill="#3953A4" stroke="#FFFFFF" stroke-width="0.8511" width="10.034" height="10.033"/>
	<rect x="168.525" y="106.022" fill="#3953A4" stroke="#FFFFFF" stroke-width="0.8511" width="10.039" height="10.037"/>
	<rect x="168.525" y="118.923" fill="#3953A4" stroke="#FFFFFF" stroke-width="0.8511" width="10.039" height="10.034"/>
	<rect x="181.915" y="106.022" fill="#3953A4" stroke="#FFFFFF" stroke-width="0.8511" width="10.036" height="10.037"/>
	<rect x="181.915" y="118.923" fill="#3953A4" stroke="#FFFFFF" stroke-width="0.8511" width="10.036" height="10.034"/>
</g>
<g opacity="0.8">
	<rect x="173.841" y="35.629" fill="#ED1F24" stroke="#FFFFFF" stroke-width="0.8511" width="10.037" height="10.033"/>
	<rect x="173.841" y="48.53" fill="#ED1F24" stroke="#FFFFFF" stroke-width="0.8511" width="10.037" height="10.032"/>
	<rect x="160.941" y="48.53" fill="#ED1F24" stroke="#FFFFFF" stroke-width="0.8511" width="10.03" height="10.032"/>
	<rect x="160.941" y="35.629" fill="#ED1F24" stroke="#FFFFFF" stroke-width="0.8511" width="10.03" height="10.033"/>
	<rect x="160.941" y="61.717" fill="#ED1F24" stroke="#FFFFFF" stroke-width="0.8511" width="10.03" height="10.033"/>
	<rect x="173.848" y="61.717" fill="#ED1F24" stroke="#FFFFFF" stroke-width="0.8511" width="10.03" height="10.033"/>
	<rect x="187.233" y="35.629" fill="#ED1F24" stroke="#FFFFFF" stroke-width="0.8511" width="10.034" height="10.033"/>
	<rect x="187.233" y="48.53" fill="#ED1F24" stroke="#FFFFFF" stroke-width="0.8511" width="10.034" height="10.032"/>
	<rect x="187.233" y="61.717" fill="#ED1F24" stroke="#FFFFFF" stroke-width="0.8511" width="10.034" height="10.033"/>
	<rect x="173.601" y="74.917" fill="#ED1F24" stroke="#FFFFFF" stroke-width="0.8511" width="10.034" height="10.033"/>
	<rect x="173.601" y="87.819" fill="#ED1F24" stroke="#FFFFFF" stroke-width="0.8511" width="10.034" height="10.028"/>
	<rect x="160.701" y="87.819" fill="#ED1F24" stroke="#FFFFFF" stroke-width="0.8511" width="10.03" height="10.028"/>
	<rect x="160.701" y="74.917" fill="#ED1F24" stroke="#FFFFFF" stroke-width="0.8511" width="10.03" height="10.033"/>
	<rect x="186.99" y="74.917" fill="#ED1F24" stroke="#FFFFFF" stroke-width="0.8511" width="10.037" height="10.033"/>
	<rect x="186.99" y="87.819" fill="#ED1F24" stroke="#FFFFFF" stroke-width="0.8511" width="10.037" height="10.028"/>
	<rect x="199.775" y="35.629" fill="#ED1F24" stroke="#FFFFFF" stroke-width="0.8511" width="10.042" height="10.033"/>
	<rect x="199.775" y="48.525" fill="#ED1F24" stroke="#FFFFFF" stroke-width="0.8511" width="10.042" height="10.037"/>
	<rect x="199.782" y="61.717" fill="#ED1F24" stroke="#FFFFFF" stroke-width="0.8511" width="10.035" height="10.033"/>
	<rect x="213.168" y="35.629" fill="#ED1F24" stroke="#FFFFFF" stroke-width="0.8511" width="10.034" height="10.033"/>
	<rect x="213.168" y="48.525" fill="#ED1F24" stroke="#FFFFFF" stroke-width="0.8511" width="10.034" height="10.037"/>
	<rect x="213.168" y="61.717" fill="#ED1F24" stroke="#FFFFFF" stroke-width="0.8511" width="10.034" height="10.033"/>
	<rect x="199.535" y="74.913" fill="#ED1F24" stroke="#FFFFFF" stroke-width="0.8511" width="10.039" height="10.037"/>
	<rect x="199.535" y="87.814" fill="#ED1F24" stroke="#FFFFFF" stroke-width="0.8511" width="10.039" height="10.033"/>
	<rect x="212.925" y="74.913" fill="#ED1F24" stroke="#FFFFFF" stroke-width="0.8511" width="10.037" height="10.037"/>
	<rect x="212.925" y="87.814" fill="#ED1F24" stroke="#FFFFFF" stroke-width="0.8511" width="10.037" height="10.033"/>
</g>
</svg>
