<?xml version="1.0" encoding="utf-8"?>
<!-- Generator: Adobe Illustrator 16.0.0, SVG Export Plug-In . SVG Version: 6.00 Build 0)  -->
<!DOCTYPE svg PUBLIC "-//W3C//DTD SVG 1.1//EN" "http://www.w3.org/Graphics/SVG/1.1/DTD/svg11.dtd">
<svg version="1.1" id="main" xmlns="http://www.w3.org/2000/svg" xmlns:xlink="http://www.w3.org/1999/xlink" x="0px" y="0px"
	 width="320px" height="240px" viewBox="0 0 320 240" enable-background="new 0 0 320 240" xml:space="preserve">
<path opacity="0.8" fill="#ED1F24" stroke="#FFFFFF" stroke-width="1.4319" d="M160,30.71c-30.306,0-54.871,24.567-54.871,54.871
	c0,30.305,24.565,54.865,54.871,54.865c30.301,0,54.87-24.561,54.87-54.865C214.87,55.277,190.301,30.71,160,30.71z M160,132.485
	c-25.867,0-46.906-21.04-46.906-46.904c0-25.87,21.039-46.904,46.906-46.904c25.862,0,46.905,21.034,46.905,46.904
	C206.905,111.445,185.862,132.485,160,132.485z"/>
<path opacity="0.8" fill="#69BD45" stroke="#FFFFFF" stroke-width="1.071" d="M159.673,58.703c-0.023,0-0.033,0-0.041,0
	c-0.017,0-0.017,0-0.017,0s0,0-0.008,0c-0.006,0-0.014,0-0.014,0c-0.015,0-0.015,0-0.015,0s0,0-0.009,0
	c-0.053-0.014-0.075-0.007-0.116-0.007c-6.952,0-13.717,2.762-18.72,7.604l-5.505-5.575c-0.262-0.263-0.668-0.35-0.995-0.202
	c-0.34,0.142-0.577,0.471-0.577,0.847l0.918,19.045h17.902c0.008,0,0.031,0,0.031,0c0.519,0,0.929-0.409,0.929-0.92
	c0-0.336-0.181-0.632-0.46-0.8l-5.425-5.495c3.226-3.104,7.421-4.81,12.026-4.81c9.399,0.061,17.058,7.766,17.058,17.312
	c-0.071,9.358-7.7,16.963-17.2,17.03c-6.185-0.336-12.026-4.018-14.818-10.11l-8.814,4.063l0.058,0.114
	c6.036,11.656,15.528,16.58,25.735,15.532c13.731-1.095,24.647-12.603,24.742-26.758C186.339,70.869,174.384,58.824,159.673,58.703z
	"/>
<g>
	<path fill="#FFFFFF" stroke="#000000" stroke-width="0.1" d="M134.57,209.077h-5.33v-1.924h12.975v1.924h-5.355v15.601h-2.289
		V209.077z"/>
	<path fill="#FFFFFF" stroke="#000000" stroke-width="0.1" d="M143.514,218.802c0.053,3.094,2.003,4.368,4.317,4.368
		c1.638,0,2.651-0.286,3.483-0.65l0.416,1.638c-0.806,0.364-2.209,0.807-4.211,0.807c-3.875,0-6.188-2.574-6.188-6.37
		s2.235-6.761,5.902-6.761c4.134,0,5.2,3.588,5.2,5.902c0,0.468-0.026,0.807-0.078,1.066H143.514z M150.223,217.163
		c0.027-1.43-0.598-3.691-3.172-3.691c-2.34,0-3.328,2.105-3.51,3.691H150.223z"/>
	<path fill="#FFFFFF" stroke="#000000" stroke-width="0.1" d="M155.266,216.02c0-1.482-0.025-2.756-0.104-3.927h2.002l0.104,2.496
		h0.077c0.572-1.689,1.977-2.756,3.51-2.756c0.235,0,0.417,0.026,0.625,0.053v2.157c-0.234-0.052-0.468-0.052-0.781-0.052
		c-1.611,0-2.756,1.196-3.066,2.912c-0.053,0.312-0.078,0.702-0.078,1.066v6.708h-2.289V216.02z"/>
	<path fill="#FFFFFF" stroke="#000000" stroke-width="0.1" d="M174.299,221.22c0,1.326,0.025,2.47,0.104,3.458h-2.027l-0.131-2.054
		h-0.053c-0.572,1.014-1.923,2.34-4.16,2.34c-1.975,0-4.341-1.118-4.341-5.513v-7.358h2.288v6.942c0,2.393,0.754,4.03,2.808,4.03
		c1.534,0,2.601-1.065,3.017-2.105c0.13-0.312,0.207-0.729,0.207-1.17v-7.697h2.289V221.22z"/>
	<path fill="#FFFFFF" stroke="#000000" stroke-width="0.1" d="M188.858,222.832c0,2.912-0.598,4.653-1.794,5.771
		c-1.248,1.118-3.016,1.509-4.602,1.509c-1.509,0-3.173-0.364-4.186-1.04l0.571-1.769c0.832,0.546,2.132,1.014,3.692,1.014
		c2.34,0,4.056-1.222,4.056-4.42v-1.378h-0.052c-0.676,1.17-2.055,2.106-4.004,2.106c-3.121,0-5.356-2.652-5.356-6.137
		c0-4.264,2.782-6.656,5.694-6.656c2.184,0,3.354,1.118,3.926,2.158h0.051l0.078-1.898h2.029c-0.078,0.885-0.104,1.925-0.104,3.433
		V222.832z M186.57,217.06c0-0.391-0.025-0.729-0.131-1.014c-0.416-1.353-1.507-2.444-3.197-2.444c-2.184,0-3.744,1.846-3.744,4.758
		c0,2.47,1.274,4.524,3.719,4.524c1.43,0,2.703-0.884,3.172-2.34c0.129-0.391,0.182-0.832,0.182-1.223V217.06z"/>
</g>
</svg>
