<?xml version="1.0" encoding="utf-8"?>
<!-- Generator: Adobe Illustrator 16.0.0, SVG Export Plug-In . SVG Version: 6.00 Build 0)  -->
<!DOCTYPE svg PUBLIC "-//W3C//DTD SVG 1.1//EN" "http://www.w3.org/Graphics/SVG/1.1/DTD/svg11.dtd">
<svg version="1.1" id="main" xmlns="http://www.w3.org/2000/svg" xmlns:xlink="http://www.w3.org/1999/xlink" x="0px" y="0px"
	 width="320px" height="240px" viewBox="0 0 320 240" enable-background="new 0 0 320 240" xml:space="preserve">
<g>
	<path fill="#FFFFFF" stroke="#000000" stroke-width="0.1" d="M133.444,224.991c-1.015,0.391-3.042,0.962-5.408,0.962
		c-2.652,0-4.837-0.676-6.553-2.313c-1.508-1.456-2.444-3.797-2.444-6.526c0-5.227,3.614-9.049,9.491-9.049
		c2.027,0,3.64,0.442,4.394,0.807l-0.572,1.846c-0.936-0.442-2.105-0.754-3.874-0.754c-4.264,0-7.046,2.652-7.046,7.046
		c0,4.446,2.652,7.072,6.76,7.072c1.482,0,2.496-0.208,3.017-0.468v-5.226h-3.536v-1.82h5.772V224.991z"/>
	<path fill="#FFFFFF" stroke="#000000" stroke-width="0.1" d="M136.798,217.113c0-1.482-0.026-2.756-0.104-3.927h2.002l0.104,2.496
		h0.078c0.571-1.689,1.976-2.756,3.51-2.756c0.234,0,0.416,0.026,0.624,0.053v2.157c-0.234-0.052-0.468-0.052-0.78-0.052
		c-1.612,0-2.756,1.196-3.067,2.912c-0.053,0.312-0.078,0.702-0.078,1.066v6.708h-2.288V217.113z"/>
	<path fill="#FFFFFF" stroke="#000000" stroke-width="0.1" d="M156.428,219.375c0,4.654-3.25,6.683-6.266,6.683
		c-3.381,0-6.032-2.496-6.032-6.475c0-4.186,2.782-6.656,6.24-6.656C153.984,212.926,156.428,215.552,156.428,219.375z
		 M146.47,219.504c0,2.757,1.56,4.837,3.796,4.837c2.185,0,3.822-2.055,3.822-4.889c0-2.132-1.066-4.81-3.77-4.81
		C147.64,214.643,146.47,217.139,146.47,219.504z"/>
	<path fill="#FFFFFF" stroke="#000000" stroke-width="0.1" d="M170.701,219.375c0,4.654-3.25,6.683-6.266,6.683
		c-3.381,0-6.032-2.496-6.032-6.475c0-4.186,2.782-6.656,6.24-6.656C168.258,212.926,170.701,215.552,170.701,219.375z
		 M160.743,219.504c0,2.757,1.56,4.837,3.796,4.837c2.185,0,3.822-2.055,3.822-4.889c0-2.132-1.066-4.81-3.77-4.81
		C161.913,214.643,160.743,217.139,160.743,219.504z"/>
	<path fill="#FFFFFF" stroke="#000000" stroke-width="0.1" d="M176.343,210.17v3.016h3.276v1.742h-3.276v6.787
		c0,1.56,0.442,2.443,1.716,2.443c0.624,0,0.988-0.052,1.326-0.156l0.104,1.742c-0.441,0.156-1.144,0.312-2.027,0.312
		c-1.066,0-1.924-0.364-2.471-0.962c-0.624-0.702-0.884-1.82-0.884-3.303v-6.864h-1.95v-1.742h1.95v-2.34L176.343,210.17z"/>
	<path fill="#FFFFFF" stroke="#000000" stroke-width="0.1" d="M184.948,210.17v3.016h3.276v1.742h-3.276v6.787
		c0,1.56,0.442,2.443,1.716,2.443c0.624,0,0.988-0.052,1.326-0.156l0.104,1.742c-0.441,0.156-1.144,0.312-2.027,0.312
		c-1.066,0-1.924-0.364-2.471-0.962c-0.624-0.702-0.884-1.82-0.884-3.303v-6.864h-1.95v-1.742h1.95v-2.34L184.948,210.17z"/>
	<path fill="#FFFFFF" stroke="#000000" stroke-width="0.1" d="M191.915,219.895c0.052,3.094,2.002,4.368,4.316,4.368
		c1.638,0,2.652-0.286,3.484-0.65l0.416,1.638c-0.807,0.364-2.21,0.807-4.212,0.807c-3.875,0-6.188-2.574-6.188-6.37
		s2.235-6.761,5.902-6.761c4.134,0,5.2,3.588,5.2,5.902c0,0.468-0.026,0.807-0.078,1.066H191.915z M198.623,218.256
		c0.026-1.43-0.598-3.691-3.172-3.691c-2.34,0-3.328,2.105-3.51,3.691H198.623z"/>
</g>
<polygon opacity="0.8" fill="#69BD45" stroke="#FFFFFF" stroke-width="0.75" points="109.112,128.185 95.644,118.731 95.644,55.701 
	158.673,55.701 166.659,69.162 109.112,69.162 "/>
<polygon opacity="0.8" fill="#ED1F24" stroke="#FFFFFF" stroke-width="0.75" points="220.085,60.795 220.085,104.156 209.963,94.03 
	134.72,169.361 146.579,180.275 100.154,180.275 100.154,136.259 110.28,146.385 185.527,71.054 175.269,60.795 "/>
<polyline opacity="0.8" fill="#3953A4" stroke="#FFFFFF" stroke-width="0.7108" points="161.729,166.232 154.738,156.542 
	196.11,156.542 196.11,114.109 205.799,120.855 205.799,166.232 160.473,166.232 "/>
</svg>
