<?xml version="1.0" encoding="utf-8"?>
<!-- Generator: Adobe Illustrator 16.0.0, SVG Export Plug-In . SVG Version: 6.00 Build 0)  -->
<!DOCTYPE svg PUBLIC "-//W3C//DTD SVG 1.1//EN" "http://www.w3.org/Graphics/SVG/1.1/DTD/svg11.dtd">
<svg version="1.1" id="main" xmlns="http://www.w3.org/2000/svg" xmlns:xlink="http://www.w3.org/1999/xlink" x="0px" y="0px"
	 width="320px" height="240px" viewBox="0 0 320 240" enable-background="new 0 0 320 240" xml:space="preserve">
<rect x="177" y="92" opacity="0.8" fill="#3953A4" stroke="#FFFFFF" stroke-width="1.0874" width="59" height="88"/>
<g>
	<path fill="#FFFFFF" stroke="#000000" stroke-width="0.1" d="M104.166,201.752c1.144-0.208,2.808-0.364,4.342-0.364
		c2.418,0,4.004,0.469,5.07,1.431c0.857,0.78,1.378,1.976,1.378,3.354c0,2.288-1.456,3.822-3.276,4.446v0.078
		c1.326,0.468,2.132,1.716,2.548,3.536c0.572,2.444,0.988,4.135,1.353,4.811h-2.34c-0.286-0.521-0.677-2.002-1.145-4.187
		c-0.52-2.418-1.482-3.328-3.536-3.406h-2.132v7.593h-2.262V201.752z M106.428,209.734h2.314c2.418,0,3.951-1.326,3.951-3.328
		c0-2.262-1.638-3.25-4.029-3.25c-1.093,0-1.847,0.078-2.236,0.182V209.734z"/>
	<path fill="#FFFFFF" stroke="#000000" stroke-width="0.1" d="M119.453,213.167c0.053,3.094,2.002,4.368,4.316,4.368
		c1.638,0,2.652-0.286,3.484-0.65l0.416,1.638c-0.807,0.364-2.21,0.807-4.213,0.807c-3.874,0-6.188-2.574-6.188-6.37
		c0-3.797,2.236-6.761,5.902-6.761c4.134,0,5.2,3.588,5.2,5.902c0,0.468-0.026,0.806-0.078,1.066H119.453z M126.162,211.528
		c0.025-1.43-0.599-3.692-3.173-3.692c-2.34,0-3.328,2.106-3.51,3.692H126.162z"/>
	<path fill="#FFFFFF" stroke="#000000" stroke-width="0.1" d="M140.175,218.601c-0.598,0.286-1.924,0.729-3.614,0.729
		c-3.796,0-6.266-2.574-6.266-6.423c0-3.874,2.652-6.708,6.76-6.708c1.353,0,2.549,0.338,3.172,0.676l-0.52,1.742
		c-0.546-0.286-1.404-0.598-2.652-0.598c-2.886,0-4.446,2.158-4.446,4.758c0,2.912,1.872,4.706,4.368,4.706
		c1.301,0,2.158-0.312,2.809-0.598L140.175,218.601z"/>
	<path fill="#FFFFFF" stroke="#000000" stroke-width="0.1" d="M142.854,200.582h2.288v7.878h0.052
		c0.364-0.649,0.936-1.248,1.638-1.638c0.677-0.39,1.482-0.624,2.341-0.624c1.689,0,4.394,1.04,4.394,5.356v7.488h-2.288v-7.229
		c0-2.028-0.754-3.718-2.912-3.718c-1.482,0-2.626,1.04-3.068,2.262c-0.13,0.338-0.155,0.676-0.155,1.092v7.593h-2.288V200.582z"/>
	<path fill="#FFFFFF" stroke="#000000" stroke-width="0.1" d="M159.936,203.442v3.016h3.276v1.742h-3.276v6.786
		c0,1.561,0.441,2.444,1.716,2.444c0.624,0,0.988-0.052,1.326-0.156l0.104,1.742c-0.442,0.156-1.145,0.312-2.028,0.312
		c-1.066,0-1.925-0.364-2.471-0.962c-0.624-0.702-0.884-1.82-0.884-3.303V208.2h-1.95v-1.742h1.95v-2.34L159.936,203.442z"/>
	<path fill="#FFFFFF" stroke="#000000" stroke-width="0.1" d="M165.785,200.582h2.288v7.878h0.052
		c0.364-0.649,0.936-1.248,1.638-1.638c0.677-0.39,1.482-0.624,2.341-0.624c1.689,0,4.394,1.04,4.394,5.356v7.488h-2.288v-7.229
		c0-2.028-0.754-3.718-2.912-3.718c-1.482,0-2.626,1.04-3.068,2.262c-0.13,0.338-0.155,0.676-0.155,1.092v7.593h-2.288V200.582z"/>
	<path fill="#FFFFFF" stroke="#000000" stroke-width="0.1" d="M191.603,212.646c0,4.654-3.25,6.683-6.266,6.683
		c-3.38,0-6.032-2.496-6.032-6.475c0-4.187,2.782-6.656,6.24-6.656C189.159,206.198,191.603,208.824,191.603,212.646z
		 M181.645,212.776c0,2.756,1.561,4.836,3.796,4.836c2.185,0,3.822-2.054,3.822-4.888c0-2.132-1.065-4.811-3.771-4.811
		C182.814,207.914,181.645,210.41,181.645,212.776z"/>
	<path fill="#FFFFFF" stroke="#000000" stroke-width="0.1" d="M195.762,213.167c0.053,3.094,2.002,4.368,4.316,4.368
		c1.638,0,2.652-0.286,3.484-0.65l0.416,1.638c-0.807,0.364-2.21,0.807-4.213,0.807c-3.874,0-6.188-2.574-6.188-6.37
		c0-3.797,2.236-6.761,5.902-6.761c4.134,0,5.2,3.588,5.2,5.902c0,0.468-0.026,0.806-0.078,1.066H195.762z M202.471,211.528
		c0.025-1.43-0.599-3.692-3.173-3.692c-2.34,0-3.328,2.106-3.51,3.692H202.471z"/>
	<path fill="#FFFFFF" stroke="#000000" stroke-width="0.1" d="M209.775,212.23h0.052c0.312-0.442,0.729-0.988,1.093-1.43
		l3.718-4.343h2.729l-4.836,5.175l5.538,7.41h-2.808l-4.316-6.032l-1.17,1.3v4.732h-2.262v-18.461h2.262V212.23z"/>
</g>
<rect x="83" y="77" opacity="0.8" fill="#69BD45" stroke="#FFFFFF" width="108" height="77"/>
<rect x="120" y="35" opacity="0.8" fill="#ED1F24" stroke="#FFFFFF" width="96" height="96"/>
</svg>
