<?xml version="1.0" encoding="utf-8"?>
<!-- Generator: Adobe Illustrator 16.0.0, SVG Export Plug-In . SVG Version: 6.00 Build 0)  -->
<!DOCTYPE svg PUBLIC "-//W3C//DTD SVG 1.1//EN" "http://www.w3.org/Graphics/SVG/1.1/DTD/svg11.dtd">
<svg version="1.1" id="main" xmlns="http://www.w3.org/2000/svg" xmlns:xlink="http://www.w3.org/1999/xlink" x="0px" y="0px"
	 width="125px" height="125px" viewBox="0 0 125 125" enable-background="new 0 0 125 125" xml:space="preserve">
<g>
	<path stroke="#FFFFFF" stroke-miterlimit="10" d="M62.5,12.5c-27.606,0-50,22.382-50,49.991c0,27.615,22.394,50.009,50,50.009
		c27.621,0,50.007-22.394,50.007-50.009C112.507,34.882,90.121,12.5,62.5,12.5z M62.5,104.744c-23.328,0-42.25-18.925-42.25-42.253
		c0-23.329,18.921-42.24,42.25-42.24c23.331,0,42.256,18.911,42.256,42.24C104.756,85.819,85.831,104.744,62.5,104.744z"/>
	<polygon stroke="#FFFFFF" stroke-miterlimit="10" points="70.301,37.031 54.933,37.031 54.933,54.552 37.043,54.552 37.043,69.928 
		54.933,69.928 54.933,87.957 70.301,87.957 70.301,69.928 87.964,69.928 87.964,54.552 70.301,54.552 	"/>
</g>
</svg>
